<svg width="24" height="24" viewBox="0 0 24 24" fill="none" xmlns="http://www.w3.org/2000/svg">
<path d="M5.89286 5C5.12562 5 4.38981 5.3017 3.8473 5.83874C3.30478 6.37578 3 7.10415 3 7.86364V8.81818H21V7.86364C21 7.10415 20.6952 6.37578 20.1527 5.83874C19.6102 5.3017 18.8744 5 18.1071 5H5.89286ZM3 16.1364V10.0909H21V16.1364C21 16.8958 20.6952 17.6242 20.1527 18.1613C19.6102 18.6983 18.8744 19 18.1071 19H5.89286C5.12562 19 4.38981 18.6983 3.8473 18.1613C3.30478 17.6242 3 16.8958 3 16.1364ZM15.2143 13.9091C15.0438 13.9091 14.8803 13.9761 14.7597 14.0955C14.6392 14.2148 14.5714 14.3767 14.5714 14.5455C14.5714 14.7142 14.6392 14.8761 14.7597 14.9954C14.8803 15.1148 15.0438 15.1818 15.2143 15.1818H17.1429C17.3134 15.1818 17.4769 15.1148 17.5974 14.9954C17.718 14.8761 17.7857 14.7142 17.7857 14.5455C17.7857 14.3767 17.718 14.2148 17.5974 14.0955C17.4769 13.9761 17.3134 13.9091 17.1429 13.9091H15.2143Z" fill="#33C060"/>
</svg>
