<svg width="24" height="24" viewBox="0 0 24 24" fill="none" xmlns="http://www.w3.org/2000/svg">
<path d="M19.117 15.4276C19.0503 15.3473 18.9848 15.2669 18.9205 15.1894C18.0366 14.1202 17.5018 13.475 17.5018 10.4483C17.5018 8.88134 17.1269 7.59562 16.388 6.63134C15.8432 5.91897 15.1067 5.37857 14.136 4.9792C14.1235 4.97225 14.1124 4.96313 14.1031 4.95228C13.7539 3.78308 12.7985 3 11.7209 3C10.6433 3 9.68826 3.78308 9.33911 4.95107C9.3298 4.96154 9.3188 4.97037 9.30656 4.97719C7.04129 5.90973 5.9404 7.69888 5.9404 10.4471C5.9404 13.475 5.40643 14.1202 4.5217 15.1882C4.45741 15.2657 4.39192 15.3445 4.32522 15.4264C4.15294 15.6342 4.04378 15.887 4.01067 16.1549C3.97756 16.4227 4.02188 16.6945 4.13839 16.9379C4.38629 17.4603 4.91464 17.7845 5.51772 17.7845H17.9285C18.5287 17.7845 19.0535 17.4607 19.3022 16.9408C19.4192 16.6972 19.4639 16.4253 19.4311 16.1571C19.3983 15.8889 19.2893 15.6357 19.117 15.4276ZM11.7209 21C12.3015 20.9995 12.8711 20.8419 13.3694 20.5439C13.8677 20.2459 14.276 19.8186 14.5511 19.3073C14.564 19.2828 14.5704 19.2553 14.5696 19.2276C14.5689 19.1999 14.5609 19.1729 14.5466 19.1491C14.5323 19.1254 14.5121 19.1058 14.488 19.0922C14.4638 19.0785 14.4366 19.0714 14.4088 19.0714H9.03375C9.006 19.0713 8.97869 19.0784 8.95449 19.092C8.93029 19.1056 8.91003 19.1252 8.89566 19.149C8.8813 19.1727 8.87333 19.1998 8.87254 19.2275C8.87174 19.2553 8.87814 19.2827 8.89112 19.3073C9.16615 19.8185 9.57441 20.2458 10.0726 20.5438C10.5708 20.8418 11.1404 20.9995 11.7209 21Z" fill="#33C060"/>
</svg>
