<svg width="24" height="24" viewBox="0 0 24 24" fill="none" xmlns="http://www.w3.org/2000/svg">
<path d="M7.00001 8.74988C6.48225 8.74985 5.97198 8.87351 5.51168 9.11058C5.05139 9.34765 4.6544 9.69126 4.35377 10.1128C4.05313 10.5343 3.85757 11.0216 3.78335 11.534C3.70913 12.0464 3.75841 12.5692 3.92709 13.0587C4.09576 13.5482 4.37895 13.9903 4.75307 14.3482C5.12718 14.7062 5.5814 14.9695 6.07789 15.1164C6.57438 15.2633 7.09878 15.2894 7.60741 15.1926C8.11604 15.0958 8.59418 14.8789 9.00201 14.5599L9.07001 14.6139L13.8 17.9259C13.6596 18.7086 13.811 19.5157 14.2257 20.1943C14.6403 20.8729 15.2894 21.3759 16.05 21.6081C16.8106 21.8403 17.6299 21.7856 18.3529 21.4543C19.0758 21.123 19.6522 20.5381 19.9729 19.8104C20.2936 19.0827 20.3364 18.2627 20.0931 17.5055C19.8499 16.7484 19.3374 16.1068 18.6529 15.7021C17.9683 15.2974 17.1591 15.1577 16.3785 15.3095C15.5979 15.4613 14.9 15.8941 14.417 16.5259L9.93801 13.3909C10.138 12.9699 10.25 12.4979 10.25 11.9999C10.25 11.5019 10.138 11.0299 9.93801 10.6089L14.418 7.47288C14.901 8.10466 15.5989 8.53743 16.3795 8.68925C17.1601 8.84107 17.9693 8.70141 18.6539 8.29671C19.3384 7.89201 19.8509 7.25035 20.0941 6.49323C20.3374 5.7361 20.2947 4.91606 19.9739 4.18835C19.6532 3.46063 19.0768 2.87577 18.3539 2.54447C17.6309 2.21318 16.8116 2.15845 16.051 2.39065C15.2904 2.62285 14.6413 3.12587 14.2267 3.80446C13.812 4.48306 13.6606 5.29013 13.801 6.07288L9.07001 9.38688L9.00201 9.43988C8.4308 8.99214 7.72579 8.74916 7.00001 8.74988Z" fill="#696B6B"/>
</svg>
