<svg width="24" height="24" viewBox="0 0 24 24" fill="none" xmlns="http://www.w3.org/2000/svg">
<path d="M18.75 5H5.25C4.65346 5.00063 4.08153 5.23549 3.65971 5.65305C3.2379 6.07061 3.00064 6.63676 3 7.22727V16.7727C3.00064 17.3632 3.2379 17.9294 3.65971 18.3469C4.08153 18.7645 4.65346 18.9994 5.25 19H18.75C19.3465 18.9994 19.9185 18.7645 20.3403 18.3469C20.7621 17.9294 20.9994 17.3632 21 16.7727V7.22727C20.9994 6.63676 20.7621 6.07061 20.3403 5.65305C19.9185 5.23549 19.3465 5.00063 18.75 5ZM18.1803 8.68415L12.3946 13.1387C12.2817 13.2255 12.1429 13.2726 12 13.2726C11.8571 13.2726 11.7183 13.2255 11.6054 13.1387L5.81973 8.68415C5.75176 8.63333 5.69466 8.56965 5.65176 8.4968C5.60886 8.42395 5.58102 8.34339 5.56984 8.2598C5.55867 8.1762 5.56439 8.09125 5.58667 8.00986C5.60895 7.92847 5.64735 7.85228 5.69964 7.78571C5.75192 7.71915 5.81705 7.66353 5.89124 7.62209C5.96543 7.58066 6.0472 7.55423 6.13179 7.54434C6.21639 7.53446 6.30212 7.54132 6.38402 7.56452C6.46591 7.58772 6.54233 7.6268 6.60884 7.67949L12 11.8302L17.3912 7.67949C17.526 7.57871 17.6954 7.53451 17.8629 7.55645C18.0304 7.57839 18.1824 7.66469 18.2861 7.79671C18.3898 7.92872 18.4368 8.09583 18.417 8.2619C18.3972 8.42798 18.3122 8.57966 18.1803 8.68415Z" fill="#33C060"/>
</svg>
