<svg width="24" height="24" viewBox="0 0 24 24" fill="none" xmlns="http://www.w3.org/2000/svg">
<path d="M9 17.6249C9.074 19.4769 10.617 21.0489 12.684 20.9989C13.165 20.9869 13.76 20.8189 14.949 20.4839C17.81 19.6769 20.294 18.3199 20.89 15.2819C21 14.7229 21 14.0939 21 12.8369V11.1629C21 9.90592 21 9.27692 20.89 8.71792C20.294 5.67992 17.81 4.32292 14.949 3.51592C13.759 3.18092 13.165 3.01292 12.684 3.00092C10.617 2.95092 9.074 4.52292 9 6.37492" stroke="white" stroke-width="1.4" stroke-linecap="round" stroke-linejoin="round"/>
<path d="M14 12H3M14 12C14 11.3 12.006 9.992 11.5 9.5M14 12C14 12.7 12.006 14.008 11.5 14.5" stroke="white" stroke-width="1.4" stroke-linecap="round" stroke-linejoin="round"/>
</svg>
