<svg width="24" height="24" viewBox="0 0 24 24" fill="none" xmlns="http://www.w3.org/2000/svg">
<path d="M6.5 15.5C5.76017 15.5 5.04852 15.7733 4.5 16.2639V7C4.5 6.04285 4.50106 5.37558 4.56879 4.87216C4.63456 4.38323 4.75486 4.12424 4.93955 3.93955C5.12424 3.75486 5.38323 3.63456 5.87216 3.56879C6.37558 3.50106 7.04285 3.5 8 3.5H16C16.9571 3.5 17.6244 3.50106 18.1278 3.56879C18.6168 3.63456 18.8758 3.75486 19.0604 3.93955C19.2451 4.12424 19.3654 4.38323 19.4312 4.87216C19.4989 5.37558 19.5 6.04285 19.5 7V12C19.5 12.9571 19.4989 13.6244 19.4312 14.1278C19.3654 14.6168 19.2451 14.8758 19.0604 15.0604C18.8758 15.2451 18.6168 15.3654 18.1278 15.4312C17.6244 15.4989 16.9571 15.5 16 15.5H6.5ZM9 5.5C8.33696 5.5 7.70107 5.76339 7.23223 6.23223C6.76339 6.70107 6.5 7.33696 6.5 8C6.5 8.66304 6.76339 9.29893 7.23223 9.76777C7.70107 10.2366 8.33696 10.5 9 10.5H15C15.663 10.5 16.2989 10.2366 16.7678 9.76777C17.2366 9.29893 17.5 8.66304 17.5 8C17.5 7.33696 17.2366 6.70107 16.7678 6.23223C16.2989 5.76339 15.663 5.5 15 5.5H9Z" fill="#696B6B" stroke="#696B6B"/>
<path d="M3.50042 6.5H4.50051C4.5026 5.80318 4.51337 5.28294 4.56845 4.8725L4.56856 4.87165C4.59534 4.67468 4.63082 4.51511 4.67564 4.38275L3.92373 3.63084C3.73367 3.9526 3.63345 4.32271 3.57759 4.73829L3.50042 6.5ZM3.50042 6.5C3.5024 5.7993 3.51366 5.21642 3.57755 4.73858L3.50042 6.5ZM4.63068 2.92357L5.38275 3.67564C5.51511 3.63082 5.67468 3.59534 5.87165 3.56856L5.87236 3.56847C6.28207 3.51336 6.80296 3.5026 7.5 3.50051V2.50042C6.79897 2.5024 6.21559 2.51366 5.73858 2.57755L4.63068 2.92357ZM4.63068 2.92357C4.95218 2.7337 5.3226 2.63345 5.7384 2.57758L4.63068 2.92357ZM20.0764 3.63068L19.7676 3.93956L19.3244 4.38275C19.3692 4.51511 19.4047 4.67468 19.4314 4.87165L19.4315 4.87236C19.4866 5.28207 19.4974 5.80296 19.4995 6.5H20.4996C20.4976 5.79897 20.4863 5.21559 20.4225 4.73858L20.0764 3.63068ZM20.0764 3.63068C20.2663 3.95218 20.3666 4.3226 20.4224 4.7384L20.0764 3.63068ZM19.7676 15.0605L19.3244 14.6173C19.3692 14.4849 19.4047 14.3253 19.4314 14.1284L19.4316 14.1275C19.4866 13.7171 19.4974 13.1968 19.4995 12.5H20.4996C20.4976 13.2007 20.4863 13.7836 20.4225 14.2614C20.3666 14.6771 20.2664 15.0473 20.0763 15.3692L19.7676 15.0605ZM18.1284 15.4314C18.3253 15.4047 18.4849 15.3692 18.6173 15.3244L19.0604 15.7676L19.3693 16.0764C19.0478 16.2663 18.6774 16.3666 18.2616 16.4224C17.7846 16.4863 17.2011 16.4976 16.5 16.4996V15.4995C17.1968 15.4974 17.7171 15.4866 18.1275 15.4316L18.1284 15.4314ZM15.5 15.5V16.5H7V15.5H15.5ZM6 15.542V16.5635C5.82485 16.6087 5.65663 16.6775 5.5 16.7679V15.6716C5.66217 15.6142 5.82943 15.5708 6 15.542ZM4.5 7.5V15.0359C4.19981 15.2092 3.92093 15.4222 3.67158 15.6716C3.61232 15.7308 3.55511 15.7918 3.5 15.8542V7.5H4.5ZM6 21.4581C5.38985 21.3549 4.82203 21.0647 4.37868 20.6213C3.93534 20.178 3.64509 19.6102 3.54195 19H4.56351C4.65208 19.343 4.83102 19.6594 5.08579 19.9142C5.34056 20.169 5.65699 20.3479 6 20.4365V21.4581ZM7 21.5V20.5H10.5V21.5H7ZM3.54195 18C3.64509 17.3898 3.93534 16.822 4.37868 16.3787C4.41816 16.3392 4.45862 16.301 4.5 16.2639V18H3.54195ZM8.5 3.5V2.5H15.5V3.5H8.5ZM16.5 3.50051V2.50042C17.2008 2.5024 17.7838 2.51367 18.2617 2.57759C18.6773 2.63345 19.0474 2.73367 19.3692 2.92373L19.0604 3.23245L18.6173 3.67564C18.4849 3.63082 18.3253 3.59534 18.1284 3.56856L18.1275 3.56845C17.7171 3.51337 17.1968 3.5026 16.5 3.50051ZM19.5 7.5H20.5V11.5H19.5V7.5ZM8.5 5.5505V6V6.58579C8.29105 6.65967 8.09905 6.77964 7.93934 6.93934C7.77964 7.09905 7.65967 7.29105 7.58579 7.5H6.5505C6.64782 7.02328 6.88305 6.58143 7.23224 6.23224C7.58143 5.88305 8.02328 5.64782 8.5 5.5505ZM9.5 6.5V6V5.5H14.5V6V6.5H9.5ZM15.5 6.58579V6V5.5505C15.9767 5.64782 16.4186 5.88305 16.7678 6.23224C17.117 6.58143 17.3522 7.02328 17.4495 7.5H16.4142C16.3403 7.29105 16.2204 7.09905 16.0607 6.93934C15.901 6.77964 15.709 6.65967 15.5 6.58579ZM16.4142 8.5H17.4495C17.3522 8.97673 17.117 9.41858 16.7678 9.76777C16.4186 10.117 15.9767 10.3522 15.5 10.4495V10V9.41422C15.709 9.34034 15.901 9.22037 16.0607 9.06066C16.2204 8.90096 16.3403 8.70896 16.4142 8.5ZM14.5 9.5V10V10.5H9.5V10V9.5H14.5ZM8.5 9.41422V10V10.4495C8.02328 10.3522 7.58143 10.117 7.23224 9.76777C6.88305 9.41858 6.64782 8.97673 6.5505 8.5H7.58579C7.65967 8.70896 7.77964 8.90096 7.93934 9.06066C8.09905 9.22037 8.29105 9.34034 8.5 9.41422Z" fill="#696B6B" stroke="#696B6B"/>
<path d="M20 21H10Z" fill="#696B6B"/>
<path d="M20 21H10" stroke="#696B6B" stroke-width="2" stroke-linecap="round"/>
</svg>
