<svg width="24" height="24" viewBox="0 0 24 24" fill="none" xmlns="http://www.w3.org/2000/svg">
<path d="M8.20409 5.2959C7.99274 5.08456 7.87401 4.79791 7.87401 4.49903C7.87401 4.20014 7.99274 3.91349 8.20409 3.70215C8.41543 3.49081 8.70208 3.37207 9.00096 3.37207C9.29985 3.37207 9.58649 3.49081 9.79784 3.70215L17.2978 11.2022C17.4027 11.3067 17.4859 11.4309 17.5427 11.5676C17.5995 11.7044 17.6287 11.851 17.6287 11.999C17.6287 12.1471 17.5995 12.2937 17.5427 12.4304C17.4859 12.5672 17.4027 12.6914 17.2978 12.7959L9.79784 20.2959C9.58649 20.5072 9.29985 20.626 9.00096 20.626C8.70208 20.626 8.41543 20.5072 8.20409 20.2959C7.99274 20.0846 7.87401 19.7979 7.87401 19.499C7.87401 19.2001 7.99274 18.9135 8.20409 18.7022L14.9063 12L8.20409 5.2959Z" fill="white"/>
</svg>
