<svg width="24" height="24" viewBox="0 0 24 24" fill="none" xmlns="http://www.w3.org/2000/svg">
<path d="M21 19.9943L4.00572 3L3 4.00572L6.47646 7.48218L8.22657 11.1725L7.1575 13.1126C7.0308 13.3344 6.95952 13.5957 6.95952 13.8729C6.95952 14.2929 7.12639 14.6958 7.42341 14.9928C7.72043 15.2898 8.12328 15.4567 8.54333 15.4567H14.4509L15.5438 16.5495C15.1478 16.8346 14.8786 17.3018 14.8786 17.8324C14.8786 18.2524 15.0454 18.6553 15.3425 18.9523C15.6395 19.2493 16.0423 19.4162 16.4624 19.4162C16.993 19.4162 17.4602 19.1549 17.7453 18.751L19.9943 21L21 19.9943ZM8.87594 13.8729C8.82343 13.8729 8.77307 13.852 8.73594 13.8149C8.69882 13.7777 8.67796 13.7274 8.67796 13.6749L8.70172 13.5799L9.41443 12.289H11.2833L12.8671 13.8729H8.87594ZM15.3141 12.289C15.9081 12.289 16.4307 11.9644 16.7 11.4734L19.535 6.34976C19.5983 6.22305 19.63 6.08843 19.63 5.95381C19.63 5.74378 19.5466 5.54236 19.3981 5.39384C19.2496 5.24533 19.0481 5.1619 18.8381 5.1619H8.17906L15.3141 12.289ZM8.54333 16.2486C8.12328 16.2486 7.72043 16.4154 7.42341 16.7125C7.12639 17.0095 6.95952 17.4123 6.95952 17.8324C6.95952 18.2524 7.12639 18.6553 7.42341 18.9523C7.72043 19.2493 8.12328 19.4162 8.54333 19.4162C8.96339 19.4162 9.36624 19.2493 9.66326 18.9523C9.96028 18.6553 10.1271 18.2524 10.1271 17.8324C10.1271 17.4123 9.96028 17.0095 9.66326 16.7125C9.36624 16.4154 8.96339 16.2486 8.54333 16.2486Z" fill="#33C060"/>
</svg>
