<svg width="200" height="200" viewBox="0 0 200 200" fill="none" xmlns="http://www.w3.org/2000/svg">
<mask id="path-1-outside-1_2697_53" maskUnits="userSpaceOnUse" x="68" y="47" width="56" height="103" fill="black">
<rect fill="white" x="68" y="47" width="56" height="103"/>
<path d="M97.448 142V75.696L76.072 88.24V69.168L98.6 55.984H115.752V142H97.448Z"/>
</mask>
<path d="M97.448 142V75.696L76.072 88.24V69.168L98.6 55.984H115.752V142H97.448Z" fill="#33C060"/>
<path d="M97.448 142H89.448V150H97.448V142ZM97.448 75.696H105.448V61.7256L93.3991 68.7963L97.448 75.696ZM76.072 88.24H68.072V102.21L80.1209 95.1397L76.072 88.24ZM76.072 69.168L72.0313 62.2635L68.072 64.5805V69.168H76.072ZM98.6 55.984V47.984H96.4311L94.5593 49.0795L98.6 55.984ZM115.752 55.984H123.752V47.984H115.752V55.984ZM115.752 142V150H123.752V142H115.752ZM105.448 142V75.696H89.448V142H105.448ZM93.3991 68.7963L72.0231 81.3403L80.1209 95.1397L101.497 82.5957L93.3991 68.7963ZM84.072 88.24V69.168H68.072V88.24H84.072ZM80.1127 76.0725L102.641 62.8885L94.5593 49.0795L72.0313 62.2635L80.1127 76.0725ZM98.6 63.984H115.752V47.984H98.6V63.984ZM107.752 55.984V142H123.752V55.984H107.752ZM115.752 134H97.448V150H115.752V134Z" fill="#696B6B" mask="url(#path-1-outside-1_2697_53)"/>
</svg>
