<svg width="24" height="24" viewBox="0 0 24 24" fill="none" xmlns="http://www.w3.org/2000/svg">
<path fill-rule="evenodd" clip-rule="evenodd" d="M12.593 23.2579L12.582 23.2599L12.511 23.2949L12.491 23.2989L12.477 23.2949L12.406 23.2599C12.3953 23.2566 12.3873 23.2583 12.382 23.2649L12.378 23.2749L12.361 23.7029L12.366 23.7229L12.376 23.7359L12.48 23.8099L12.495 23.8139L12.507 23.8099L12.611 23.7359L12.623 23.7199L12.627 23.7029L12.61 23.2759C12.6073 23.2653 12.6017 23.2593 12.593 23.2579ZM12.858 23.1449L12.845 23.1469L12.66 23.2399L12.65 23.2499L12.647 23.2609L12.665 23.6909L12.67 23.7029L12.678 23.7099L12.879 23.8029C12.8917 23.8063 12.9013 23.8036 12.908 23.7949L12.912 23.7809L12.878 23.1669C12.8747 23.1549 12.868 23.1476 12.858 23.1449ZM12.143 23.1469C12.1386 23.1443 12.1333 23.1434 12.1283 23.1445C12.1233 23.1456 12.1188 23.1487 12.116 23.1529L12.11 23.1669L12.076 23.7809C12.0767 23.7929 12.0823 23.8009 12.093 23.8049L12.108 23.8029L12.309 23.7099L12.319 23.7019L12.323 23.6909L12.34 23.2609L12.337 23.2489L12.327 23.2389L12.143 23.1469Z" fill="#33C060"/>
<path fill-rule="evenodd" clip-rule="evenodd" d="M10.2 3C10.2 1.895 10.896 1 12 1C13.104 1 13.8 1.895 13.8 3L14 11C14 10.636 14.5 5.34 14.5 5C14.5 4 15.095 3 16.2 3C17.305 3 18 3.895 18 5V12.268C18.083 12.22 18.3 8.422 18.3 8C18.3 7 18.563 6 19.5 6C20.438 6 21 6.895 21 8V14C21 16.1217 20.1571 18.1566 18.6569 19.6569C17.1566 21.1571 15.1217 22 13 22H12.326C10.8404 21.9999 9.38417 21.5862 8.12045 20.8052C6.85672 20.0242 5.83543 18.9067 5.171 17.578L2.329 11.894C1.965 11.166 2.245 10.226 3.049 9.87C3.472 9.683 3.946 9.578 4.392 9.72C5.5 10.073 5.336 10.58 6 11.21V5C6 3.895 6.695 3 7.8 3C8.8 3 9.409 4.315 9.5 5C9.625 5.938 10 10.634 10 10.998L10.2 3Z" fill="#33C060"/>
</svg>
