<svg width="27" height="24" viewBox="0 0 27 24" fill="none" xmlns="http://www.w3.org/2000/svg">
<path d="M13.9983 4C11.193 4 8.94662 5.27767 7.31134 6.79837C5.68649 8.30518 4.59977 10.1106 4.08593 11.3501C3.97136 11.6243 3.97136 11.9299 4.08593 12.2041C4.59977 13.4436 5.68649 15.249 7.31134 16.7558C8.94662 18.2765 11.193 19.5542 13.9983 19.5542C16.8036 19.5542 19.0499 18.2765 20.6852 16.7558C22.31 15.2456 23.3968 13.4436 23.9141 12.2041C24.0286 11.9299 24.0286 11.6243 23.9141 11.3501C23.3968 10.1106 22.31 8.30518 20.6852 6.79837C19.0499 5.27767 16.8036 4 13.9983 4ZM8.9987 11.7771C8.9987 10.4511 9.52544 9.17948 10.463 8.24188C11.4006 7.30428 12.6723 6.77754 13.9983 6.77754C15.3242 6.77754 16.5959 7.30428 17.5335 8.24188C18.4711 9.17948 18.9978 10.4511 18.9978 11.7771C18.9978 13.1031 18.4711 14.3747 17.5335 15.3123C16.5959 16.2499 15.3242 16.7767 13.9983 16.7767C12.6723 16.7767 11.4006 16.2499 10.463 15.3123C9.52544 14.3747 8.9987 13.1031 8.9987 11.7771ZM13.9983 9.55507C13.9983 10.7807 13.0018 11.7771 11.7762 11.7771C11.5297 11.7771 11.2936 11.7354 11.0714 11.6625C10.8805 11.6 10.6583 11.7181 10.6652 11.9195C10.6756 12.159 10.7104 12.3986 10.7763 12.6381C11.252 14.4158 13.0817 15.4712 14.8593 14.9956C16.6369 14.5199 17.6924 12.6902 17.2167 10.9126C16.8314 9.47175 15.5572 8.50308 14.1406 8.44406C13.9392 8.43712 13.8212 8.65585 13.8837 8.85027C13.9566 9.07248 13.9983 9.30857 13.9983 9.55507Z" fill="white"/>
</svg>
