<svg width="24" height="24" viewBox="0 0 24 24" fill="none" xmlns="http://www.w3.org/2000/svg">
<path d="M15.7958 18.7041C16.0071 18.9154 16.1259 19.2021 16.1259 19.501C16.1259 19.7999 16.0071 20.0865 15.7958 20.2979C15.5844 20.5092 15.2978 20.6279 14.9989 20.6279C14.7 20.6279 14.4134 20.5092 14.202 20.2979L6.70204 12.7979C6.59716 12.6933 6.51395 12.5691 6.45716 12.4324C6.40038 12.2957 6.37115 12.149 6.37115 12.001C6.37115 11.8529 6.40038 11.7063 6.45716 11.5696C6.51395 11.4328 6.59716 11.3086 6.70204 11.2041L14.202 3.7041C14.4134 3.49276 14.7 3.37402 14.9989 3.37402C15.2978 3.37402 15.5844 3.49276 15.7958 3.7041C16.0071 3.91544 16.1259 4.20209 16.1259 4.50097C16.1259 4.79986 16.0071 5.08651 15.7958 5.29785L9.0936 12L15.7958 18.7041Z" fill="#33C060"/>
</svg>
