<svg width="24" height="24" viewBox="0 0 24 24" fill="none" xmlns="http://www.w3.org/2000/svg">
<path d="M8.20396 5.2959C7.99262 5.08456 7.87389 4.79791 7.87389 4.49902C7.87389 4.20014 7.99262 3.91349 8.20396 3.70215C8.41531 3.49081 8.70195 3.37207 9.00084 3.37207C9.29972 3.37207 9.58637 3.49081 9.79771 3.70215L17.2977 11.2021C17.4026 11.3067 17.4858 11.4309 17.5426 11.5676C17.5994 11.7043 17.6286 11.851 17.6286 11.999C17.6286 12.1471 17.5994 12.2937 17.5426 12.4304C17.4858 12.5672 17.4026 12.6914 17.2977 12.7959L9.79771 20.2959C9.58637 20.5072 9.29972 20.626 9.00084 20.626C8.70195 20.626 8.41531 20.5072 8.20396 20.2959C7.99262 20.0846 7.87389 19.7979 7.87389 19.499C7.87389 19.2001 7.99262 18.9135 8.20396 18.7022L14.9062 12L8.20396 5.2959Z" fill="#33C060"/>
</svg>
