<svg width="24" height="24" viewBox="0 0 24 24" fill="none" xmlns="http://www.w3.org/2000/svg">
<g clip-path="url(#clip0_2683_4)">
<path d="M22 2.66675H1.99998C1.82317 2.66675 1.6536 2.73699 1.52858 2.86201C1.40355 2.98703 1.33331 3.1566 1.33331 3.33341V4.44675C1.3343 4.76463 1.46138 5.06913 1.68665 5.29341L9.33331 13.0534V19.8534L10.6666 20.3601V12.6667C10.6672 12.579 10.6503 12.492 10.6172 12.4108C10.584 12.3296 10.5351 12.2557 10.4733 12.1934L2.66665 4.39341V4.00008H21.3333V4.40675L13.5533 12.1934C13.4867 12.2535 13.4329 12.3263 13.3951 12.4077C13.3573 12.489 13.3363 12.5771 13.3333 12.6667V21.4734L14.6666 22.0001V13.0001L22.3133 5.33341C22.4273 5.21999 22.5173 5.08483 22.578 4.93595C22.6387 4.78707 22.6688 4.62751 22.6666 4.46675V3.33341C22.6666 3.1566 22.5964 2.98703 22.4714 2.86201C22.3464 2.73699 22.1768 2.66675 22 2.66675Z" fill="white"/>
</g>
<defs>
<clipPath id="clip0_2683_4">
<rect width="24" height="24" fill="white"/>
</clipPath>
</defs>
</svg>
