<svg width="24" height="24" viewBox="0 0 24 24" fill="none" xmlns="http://www.w3.org/2000/svg">
<path d="M12 12C14.2091 12 16 10.2091 16 8C16 5.79086 14.2091 4 12 4C9.79086 4 8 5.79086 8 8C8 10.2091 9.79086 12 12 12Z" stroke="black" stroke-width="2" stroke-linecap="round"/>
<path fill-rule="evenodd" clip-rule="evenodd" d="M13.327 15.076C12.8883 15.0253 12.446 15 12 15C10.08 15 8.194 15.474 6.631 16.373C5.069 17.273 3.881 18.57 3.331 20.111C3.24981 20.3587 3.26858 20.6284 3.38331 20.8625C3.49803 21.0966 3.69963 21.2766 3.94516 21.3642C4.19069 21.4519 4.46073 21.4401 4.69774 21.3316C4.93475 21.223 5.11999 21.0262 5.214 20.783C5.576 19.773 6.397 18.816 7.629 18.107C8.643 17.523 9.864 17.15 11.158 17.037C11.3222 16.5523 11.6078 16.1176 11.9874 15.7744C12.3671 15.4311 12.8282 15.1907 13.327 15.076Z" fill="black"/>
<path d="M18 14V22M22 18H14" stroke="black" stroke-width="2.5" stroke-linecap="round"/>
</svg>
