<svg width="24" height="24" viewBox="0 0 24 24" fill="none" xmlns="http://www.w3.org/2000/svg">
<path d="M22.005 10V20C22.005 20.2652 21.8996 20.5196 21.7121 20.7071C21.5246 20.8946 21.2702 21 21.005 21H3.005C2.73979 21 2.48543 20.8946 2.2979 20.7071C2.11036 20.5196 2.005 20.2652 2.005 20V10H22.005ZM22.005 8H2.005V4C2.005 3.73478 2.11036 3.48043 2.2979 3.29289C2.48543 3.10536 2.73979 3 3.005 3H21.005C21.2702 3 21.5246 3.10536 21.7121 3.29289C21.8996 3.48043 22.005 3.73478 22.005 4V8ZM15.005 16V18H19.005V16H15.005Z" fill="#0084FF"/>
</svg>
