<svg width="24" height="24" viewBox="0 0 24 24" fill="none" xmlns="http://www.w3.org/2000/svg">
<path d="M5.98201 5.70877C5.38785 5.97284 5 6.56699 5 7.21891V11.0974C5 15.6774 8.16883 19.9602 12.4269 21C16.685 19.9602 19.8539 15.6774 19.8539 11.0974V7.21891C19.8539 6.56699 19.466 5.97284 18.8719 5.70877L13.0954 3.14235C12.6662 2.95255 12.1794 2.95255 11.7585 3.14235L5.98201 5.70877ZM12.4269 7.79656C12.8808 7.79656 13.2521 8.16791 13.2521 8.62178C13.2521 9.07564 12.8808 9.44699 12.4269 9.44699C11.9731 9.44699 11.6017 9.07564 11.6017 8.62178C11.6017 8.16791 11.9731 7.79656 12.4269 7.79656ZM12.4269 11.0974C12.8808 11.0974 13.2521 11.4688 13.2521 11.9226V15.2235C13.2521 15.6774 12.8808 16.0487 12.4269 16.0487C11.9731 16.0487 11.6017 15.6774 11.6017 15.2235V11.9226C11.6017 11.4688 11.9731 11.0974 12.4269 11.0974Z" fill="#33C060"/>
</svg>
