<svg width="24" height="24" viewBox="0 0 24 24" fill="none" xmlns="http://www.w3.org/2000/svg">
<path d="M12 12C14.2091 12 16 10.2091 16 8C16 5.79086 14.2091 4 12 4C9.79086 4 8 5.79086 8 8C8 10.2091 9.79086 12 12 12Z" stroke="white" stroke-width="2" stroke-linecap="round"/>
<path d="M11.5399 15.5095C9.86121 15.5787 8.23726 16.026 6.88063 16.8062L11.5399 15.5095ZM11.5399 15.5095C11.2306 15.8149 10.9813 16.175 10.8043 16.5709C9.55871 16.7189 8.37976 17.0976 7.37961 17.6736C6.06755 18.4287 5.15626 19.4683 4.74584 20.6073C4.6983 20.7268 4.60652 20.8234 4.48951 20.877C4.37101 20.9313 4.23599 20.9371 4.11322 20.8933C3.99046 20.8495 3.88966 20.7595 3.8323 20.6424C3.77575 20.5271 3.76583 20.3944 3.80444 20.272C4.30821 18.8667 5.40303 17.6576 6.88051 16.8063L11.5399 15.5095Z" fill="black" stroke="white"/>
<path d="M18 14V22M22 18H14" stroke="white" stroke-width="2.5" stroke-linecap="round"/>
</svg>
