<svg width="24" height="24" viewBox="0 0 24 24" fill="none" xmlns="http://www.w3.org/2000/svg">
<g clip-path="url(#clip0_3101_29)">
<path d="M21.3297 11.7292C21.3296 11.5433 21.2759 11.3613 21.1749 11.2053C21.0739 11.0492 20.9299 10.9257 20.7603 10.8495L5.09281 3.78576L5.09053 3.78349C4.90908 3.70285 4.70716 3.68018 4.51235 3.71859C4.31754 3.757 4.13933 3.85461 4.00206 3.99809C3.8648 4.14157 3.77518 4.32392 3.74543 4.52024C3.71568 4.71657 3.74726 4.91728 3.83586 5.09499L3.84382 5.11033L6.07898 10.6771C6.13197 10.7763 6.21005 10.8598 6.30542 10.9194C6.4008 10.979 6.51013 11.0125 6.6225 11.0166L18.7172 11.4436C18.7545 11.4436 18.7914 11.451 18.8259 11.4653C18.8604 11.4795 18.8917 11.5005 18.9181 11.5269C18.9445 11.5532 18.9654 11.5846 18.9797 11.619C18.994 11.6535 19.0013 11.6904 19.0013 11.7278C19.0013 11.7651 18.994 11.802 18.9797 11.8365C18.9654 11.871 18.9445 11.9023 18.9181 11.9287C18.8917 11.955 18.8604 11.976 18.8259 11.9902C18.7914 12.0045 18.7545 12.0119 18.7172 12.0119L6.62506 12.4358C6.51268 12.4399 6.40335 12.4734 6.30798 12.533C6.21261 12.5926 6.13453 12.6761 6.08154 12.7753L3.84467 18.3449C3.84069 18.3523 3.83728 18.3591 3.83387 18.3665C3.66141 18.7208 3.70573 19.1367 3.97139 19.4274L3.9998 19.4558C4.13942 19.597 4.31829 19.693 4.51317 19.7312C4.70805 19.7694 4.90991 19.7481 5.09252 19.67L20.7563 12.6088C20.9266 12.5333 21.0714 12.41 21.1732 12.2539C21.275 12.0978 21.3293 11.9155 21.3297 11.7292Z" fill="white"/>
</g>
<defs>
<clipPath id="clip0_3101_29">
<rect width="24" height="24" fill="white"/>
</clipPath>
</defs>
</svg>
