<svg width="24" height="24" viewBox="0 0 24 24" fill="none" xmlns="http://www.w3.org/2000/svg">
<path fill-rule="evenodd" clip-rule="evenodd" d="M11.1424 3.06187C12.8438 2.67892 14.0778 4.14112 14.0778 5.58683V18.4132C14.0778 19.8589 12.8438 21.3211 11.1424 20.9381C7.0545 20.0183 4 16.3665 4 12C4 7.63355 7.0545 3.98171 11.1424 3.06187ZM16.1786 8.60377C16.3504 8.43201 16.5834 8.33553 16.8263 8.33553C17.0693 8.33553 17.3023 8.43201 17.4741 8.60377L20.2226 11.3523C20.3943 11.5241 20.4908 11.7571 20.4908 12C20.4908 12.2429 20.3943 12.4759 20.2226 12.6477L17.4741 15.3962C17.3013 15.5631 17.0699 15.6555 16.8296 15.6534C16.5894 15.6513 16.3596 15.5549 16.1898 15.3851C16.0199 15.2152 15.9236 14.9854 15.9215 14.7452C15.9194 14.505 16.0117 14.2736 16.1786 14.1008L17.3632 12.9162H9.497C9.25402 12.9162 9.02099 12.8196 8.84917 12.6478C8.67736 12.476 8.58084 12.243 8.58084 12C8.58084 11.757 8.67736 11.524 8.84917 11.3522C9.02099 11.1804 9.25402 11.0838 9.497 11.0838H17.3632L16.1786 9.89923C16.0069 9.72742 15.9104 9.49443 15.9104 9.2515C15.9104 9.00856 16.0069 8.77558 16.1786 8.60377Z" fill="#33C060"/>
</svg>
