<svg width="24" height="24" viewBox="0 0 24 24" fill="none" xmlns="http://www.w3.org/2000/svg">
<g clip-path="url(#clip0_2039_2164)">
<path fill-rule="evenodd" clip-rule="evenodd" d="M0 2.48571C0 1.07143 1.19314 0 2.57143 0H21.4286C22.8069 0 24 1.07143 24 2.48571V12.0857C24 13.5 22.8069 14.5714 21.4286 14.5714H2.57143C1.19314 14.5714 0 13.5 0 12.0857V2.48571ZM15.4286 7.28571C15.4286 8.19503 15.0673 9.0671 14.4244 9.71008C13.7814 10.3531 12.9093 10.7143 12 10.7143C11.0907 10.7143 10.2186 10.3531 9.57563 9.71008C8.93265 9.0671 8.57143 8.19503 8.57143 7.28571C8.57143 6.3764 8.93265 5.50433 9.57563 4.86135C10.2186 4.21837 11.0907 3.85714 12 3.85714C12.9093 3.85714 13.7814 4.21837 14.4244 4.86135C15.0673 5.50433 15.4286 6.3764 15.4286 7.28571ZM6 7.71429C6 7.54544 5.96674 7.37825 5.90213 7.22226C5.83752 7.06627 5.74281 6.92454 5.62342 6.80515C5.50403 6.68576 5.3623 6.59105 5.20631 6.52644C5.05032 6.46183 4.88313 6.42857 4.71429 6.42857C4.54544 6.42857 4.37825 6.46183 4.22226 6.52644C4.06627 6.59105 3.92454 6.68576 3.80515 6.80515C3.68576 6.92454 3.59105 7.06627 3.52644 7.22226C3.46183 7.37825 3.42857 7.54544 3.42857 7.71429C3.42857 8.05528 3.56403 8.38231 3.80515 8.62342C4.04627 8.86454 4.37329 9 4.71429 9C5.05528 9 5.38231 8.86454 5.62342 8.62342C5.86454 8.38231 6 8.05528 6 7.71429ZM19.2857 6.42857C19.6267 6.42857 19.9537 6.56403 20.1949 6.80515C20.436 7.04627 20.5714 7.37329 20.5714 7.71429C20.5714 8.05528 20.436 8.38231 20.1949 8.62342C19.9537 8.86454 19.6267 9 19.2857 9C18.9447 9 18.6177 8.86454 18.3766 8.62342C18.1355 8.38231 18 8.05528 18 7.71429C18 7.37329 18.1355 7.04627 18.3766 6.80515C18.6177 6.56403 18.9447 6.42857 19.2857 6.42857ZM8.78571 18C8.78571 17.7158 8.67283 17.4433 8.4719 17.2424C8.27097 17.0415 7.99845 16.9286 7.71429 16.9286C7.43013 16.9286 7.1576 17.0415 6.95667 17.2424C6.75574 17.4433 6.64286 17.7158 6.64286 18V21.4286C6.64286 21.7127 6.75574 21.9853 6.95667 22.1862C7.1576 22.3871 7.43013 22.5 7.71429 22.5C7.99845 22.5 8.27097 22.3871 8.4719 22.1862C8.67283 21.9853 8.78571 21.7127 8.78571 21.4286V18ZM16.2857 16.9286C16.8771 16.9286 17.3571 17.4086 17.3571 18V21.4286C17.3571 21.5693 17.3294 21.7086 17.2756 21.8386C17.2217 21.9686 17.1428 22.0867 17.0433 22.1862C16.9438 22.2857 16.8257 22.3646 16.6957 22.4184C16.5657 22.4723 16.4264 22.5 16.2857 22.5C16.145 22.5 16.0057 22.4723 15.8757 22.4184C15.7457 22.3646 15.6276 22.2857 15.5281 22.1862C15.4286 22.0867 15.3497 21.9686 15.2958 21.8386C15.242 21.7086 15.2143 21.5693 15.2143 21.4286V18C15.2143 17.4086 15.6943 16.9286 16.2857 16.9286ZM12 18.2143C12.5914 18.2143 13.0714 18.6943 13.0714 19.2857V22.7143C13.0714 22.9984 12.9585 23.271 12.7576 23.4719C12.5567 23.6728 12.2842 23.7857 12 23.7857C11.7158 23.7857 11.4433 23.6728 11.2424 23.4719C11.0415 23.271 10.9286 22.9984 10.9286 22.7143V19.2857C10.9286 18.6943 11.4086 18.2143 12 18.2143Z" fill="#33C060"/>
</g>
<defs>
<clipPath id="clip0_2039_2164">
<rect width="24" height="24" fill="white"/>
</clipPath>
</defs>
</svg>
