<svg width="24" height="24" viewBox="0 0 24 24" fill="none" xmlns="http://www.w3.org/2000/svg">
<path d="M18.704 8.20409C18.9154 7.99274 19.202 7.87401 19.5009 7.87401C19.7998 7.87401 20.0864 7.99274 20.2978 8.20409C20.5091 8.41543 20.6279 8.70208 20.6279 9.00096C20.6279 9.29985 20.5091 9.58649 20.2978 9.79784L12.7978 17.2978C12.6933 17.4027 12.5691 17.4859 12.4323 17.5427C12.2956 17.5995 12.149 17.6287 12.0009 17.6287C11.8528 17.6287 11.7062 17.5995 11.5695 17.5427C11.4327 17.4859 11.3086 17.4027 11.204 17.2978L3.70404 9.79784C3.49269 9.58649 3.37396 9.29985 3.37396 9.00096C3.37396 8.70208 3.49269 8.41543 3.70404 8.20409C3.91538 7.99274 4.20203 7.87401 4.50091 7.87401C4.7998 7.87401 5.08644 7.99274 5.29779 8.20409L12 14.9063L18.704 8.20409Z" fill="#33C060"/>
</svg>
