<svg width="24" height="24" viewBox="0 0 24 24" fill="none" xmlns="http://www.w3.org/2000/svg">
<path d="M12.028 17.23C12.2493 17.23 12.436 17.154 12.588 17.002C12.74 16.85 12.816 16.6633 12.816 16.442C12.816 16.2207 12.7393 16.034 12.586 15.882C12.434 15.73 12.2473 15.654 12.026 15.654C11.8047 15.654 11.618 15.7303 11.466 15.883C11.314 16.0357 11.2383 16.2223 11.239 16.443C11.239 16.6643 11.315 16.851 11.467 17.003C11.6203 17.155 11.8073 17.231 12.028 17.231M12.003 21C10.759 21 9.589 20.764 8.493 20.292C7.39767 19.8193 6.44467 19.178 5.634 18.368C4.82333 17.558 4.18167 16.606 3.709 15.512C3.23633 14.418 3 13.2483 3 12.003C3 10.7577 3.23633 9.58767 3.709 8.493C4.181 7.39767 4.82133 6.44467 5.63 5.634C6.43867 4.82333 7.391 4.18167 8.487 3.709C9.583 3.23633 10.753 3 11.997 3C13.241 3 14.411 3.23633 15.507 3.709C16.6023 4.181 17.5553 4.82167 18.366 5.631C19.1767 6.44033 19.8183 7.39267 20.291 8.488C20.7637 9.58333 21 10.753 21 11.997C21 13.241 20.764 14.411 20.292 15.507C19.82 16.603 19.1787 17.556 18.368 18.366C17.5573 19.176 16.6053 19.8177 15.512 20.291C14.4187 20.7643 13.249 21.0007 12.003 21ZM12.062 7.738C12.5687 7.738 13.0047 7.89533 13.37 8.21C13.7367 8.524 13.92 8.91667 13.92 9.388C13.92 9.75467 13.8167 10.0863 13.61 10.383C13.4047 10.679 13.1667 10.952 12.896 11.202C12.5533 11.5127 12.2517 11.8543 11.991 12.227C11.7303 12.6003 11.5807 13.011 11.542 13.459C11.5293 13.5903 11.5703 13.6997 11.665 13.787C11.7583 13.875 11.8683 13.919 11.995 13.919C12.129 13.919 12.242 13.874 12.334 13.784C12.4253 13.6947 12.4833 13.589 12.508 13.467C12.5747 13.1297 12.7087 12.83 12.91 12.568C13.1107 12.306 13.3313 12.0577 13.572 11.823C13.918 11.4797 14.225 11.105 14.493 10.699C14.7617 10.2937 14.896 9.84133 14.896 9.342C14.896 8.60733 14.6173 8.00133 14.06 7.524C13.5033 7.04667 12.85 6.808 12.1 6.808C11.544 6.808 11.0263 6.938 10.547 7.198C10.0683 7.458 9.68533 7.818 9.398 8.278C9.33267 8.38867 9.31167 8.503 9.335 8.621C9.35833 8.739 9.42167 8.82867 9.525 8.89C9.657 8.95933 9.79033 8.97533 9.925 8.938C10.0597 8.90067 10.1783 8.82333 10.281 8.706C10.503 8.43 10.7643 8.2 11.065 8.016C11.365 7.83067 11.6973 7.738 12.062 7.738Z" fill="#33C060"/>
</svg>
