<svg width="24" height="24" viewBox="0 0 24 24" fill="none" xmlns="http://www.w3.org/2000/svg">
<path d="M12 3C16.9707 3 21 7.0293 21 12C21 16.9707 16.9707 21 12 21C7.0293 21 3 16.9707 3 12C3 7.0293 7.0293 3 12 3ZM11.8695 9.489C11.7032 9.48947 11.5438 9.55569 11.4261 9.6732C11.3085 9.79071 11.242 9.94999 11.2413 10.1163V16.9185C11.2474 17.0809 11.3163 17.2346 11.4333 17.3473C11.5504 17.46 11.7066 17.5229 11.869 17.5229C12.0315 17.5229 12.1877 17.46 12.3048 17.3473C12.4218 17.2346 12.4907 17.0809 12.4968 16.9185V10.1163C12.4963 9.94999 12.4301 9.79062 12.3126 9.67294C12.1951 9.55525 12.0358 9.48971 11.8695 9.489ZM11.8947 6.9762C11.6727 6.9762 11.4598 7.06438 11.3029 7.22135C11.1459 7.37832 11.0577 7.59121 11.0577 7.8132C11.0577 8.03519 11.1459 8.24808 11.3029 8.40505C11.4598 8.56202 11.6727 8.6502 11.8947 8.6502C12.1167 8.6502 12.3296 8.56202 12.4865 8.40505C12.6435 8.24808 12.7317 8.03519 12.7317 7.8132C12.7317 7.59121 12.6435 7.37832 12.4865 7.22135C12.3296 7.06438 12.1167 6.9762 11.8947 6.9762Z" fill="#33C060"/>
</svg>
