<svg width="24" height="24" viewBox="0 0 24 24" fill="none" xmlns="http://www.w3.org/2000/svg">
<path d="M19.2 8.4C19.0792 6.97389 18.488 5.62834 17.5192 4.57484C16.5504 3.52135 15.259 2.81964 13.848 2.58C13.92 1.752 13.836 0 12 0C10.164 0 10.08 1.752 10.152 2.58C8.74101 2.81964 7.44963 3.52135 6.48084 4.57484C5.51206 5.62834 4.92081 6.97389 4.80002 8.4V15.6L2.40002 18V19.2H21.6V18L19.2 15.6V8.4ZM12 24C12.9548 24 13.8705 23.6207 14.5456 22.9456C15.2207 22.2705 15.6 21.3548 15.6 20.4H8.40002C8.40002 21.3548 8.77931 22.2705 9.45444 22.9456C10.1296 23.6207 11.0452 24 12 24Z" fill="#33C060"/>
</svg>
