<svg width="24" height="24" viewBox="0 0 24 24" fill="none" xmlns="http://www.w3.org/2000/svg">
<path d="M8.8 20.199C8.28792 20.7114 7.59338 20.9995 6.869 21H3V17.156C3 16.432 3.288 15.737 3.8 15.225M8.8 20.199L3.8 15.225M8.8 20.199L18.774 10.221M3.8 15.225L13.784 5.23L15.21 3.802C15.4638 3.54786 15.7651 3.34622 16.0968 3.20862C16.4286 3.07101 16.7842 3.00014 17.1433 3.00005C17.5024 2.99995 17.8581 3.07064 18.1899 3.20808C18.5217 3.34551 18.8231 3.54699 19.077 3.801L20.203 4.928C20.7155 5.44054 21.0035 6.13568 21.0035 6.8605C21.0035 7.58533 20.7155 8.28047 20.203 8.793L18.774 10.221M18.774 10.221L13.783 5.23" stroke="black" stroke-width="0.8" stroke-linecap="round" stroke-linejoin="round"/>
</svg>
