<svg width="24" height="24" viewBox="0 0 24 24" fill="none" xmlns="http://www.w3.org/2000/svg">
<path opacity="0.3" d="M12 4C18.928 4 23.258 11.5 19.794 17.5C19.0041 18.8681 17.868 20.0043 16.4998 20.7942C15.1317 21.5841 13.5798 22 12 22C5.07198 22 0.741979 14.5 4.20598 8.5C4.99587 7.13186 6.13198 5.99574 7.50011 5.20583C8.86824 4.41592 10.4202 4.00004 12 4Z" fill="#33C060"/>
<path d="M7.36601 2.97109C7.49861 3.20077 7.53454 3.47372 7.46591 3.72989C7.39727 3.98606 7.22968 4.20448 7.00001 4.33709C5.95971 4.94046 5.03554 5.72477 4.27101 6.65309C4.18902 6.75869 4.08669 6.84677 3.97007 6.91213C3.85345 6.9775 3.7249 7.01882 3.59204 7.03364C3.45918 7.04847 3.32469 7.0365 3.19653 6.99845C3.06837 6.9604 2.94914 6.89704 2.84589 6.81212C2.74264 6.72719 2.65747 6.62242 2.59541 6.50401C2.53335 6.3856 2.49567 6.25594 2.48458 6.12272C2.4735 5.98949 2.48924 5.85539 2.53088 5.72835C2.57252 5.60131 2.63921 5.48391 2.72701 5.38309C3.64165 4.26842 4.74969 3.32772 5.99801 2.60609C6.11172 2.54023 6.23729 2.49743 6.36755 2.48014C6.49781 2.46284 6.6302 2.47138 6.75715 2.50528C6.88411 2.53918 7.00314 2.59777 7.10744 2.67769C7.21174 2.75762 7.29926 2.85732 7.36501 2.97109H7.36601ZM18 2.60609C19.2486 3.32732 20.357 4.26769 21.272 5.38209C21.4317 5.58773 21.5048 5.84753 21.476 6.10627C21.4471 6.36501 21.3185 6.60229 21.1174 6.76767C20.9163 6.93306 20.6587 7.01351 20.3992 6.99193C20.1398 6.97034 19.899 6.84842 19.728 6.65209C18.9649 5.72261 18.0405 4.93839 16.999 4.33709C16.7695 4.20422 16.6021 3.9856 16.5337 3.72933C16.4654 3.47306 16.5016 3.20013 16.6345 2.97059C16.7674 2.74104 16.986 2.57368 17.2423 2.50533C17.4985 2.43697 17.7705 2.47322 18 2.60609ZM12 8.00009C11.7551 8.00012 11.5187 8.09004 11.3356 8.2528C11.1526 8.41556 11.0357 8.63984 11.007 8.88309L11 9.00009V12.9861C10.997 13.2081 11.068 13.4261 11.202 13.6031L11.292 13.7071L13.398 15.8121C13.5775 15.9933 13.8196 16.0991 14.0746 16.1078C14.3295 16.1164 14.5782 16.0273 14.7696 15.8586C14.961 15.69 15.0807 15.4545 15.1042 15.2005C15.1277 14.9464 15.0532 14.693 14.896 14.4921L14.812 14.3981L13 12.5861V9.00009C13 8.73487 12.8946 8.48052 12.7071 8.29298C12.5196 8.10545 12.2652 8.00009 12 8.00009Z" fill="#33C060"/>
</svg>
