<svg width="24" height="24" viewBox="0 0 24 24" fill="none" xmlns="http://www.w3.org/2000/svg">
<path d="M10.837 10.5459C10.837 10.1439 10.525 9.81794 10.14 9.81794H8.58002C8.90402 8.15794 10.311 6.90894 12 6.90894C13.687 6.90894 15.095 8.15894 15.418 9.81894H12.93C12.545 9.81894 12.233 10.1439 12.233 10.5449C12.233 10.9469 12.545 11.2729 12.93 11.2729H15.489V12.7269H12.93C12.545 12.7269 12.233 13.0529 12.233 13.4549C12.233 13.8569 12.545 14.1819 12.93 14.1819H15.419C15.141 15.6069 14.065 16.7289 12.698 17.0179V19.2729C12.698 19.6739 12.385 19.9999 12 19.9999C11.615 19.9999 11.302 19.6739 11.302 19.2729V17.0179C9.93602 16.7289 8.85902 15.6069 8.58202 14.1819H10.14C10.525 14.1819 10.837 13.8559 10.837 13.4549C10.837 13.0529 10.525 12.7269 10.14 12.7269H8.51202V11.2729H10.14C10.525 11.2729 10.837 10.9469 10.837 10.5459Z" fill="#33C060"/>
<path opacity="0.5" d="M12 4C8.67 4 5.946 6.701 5.734 10.116C5.37302 9.92005 4.96873 9.8176 4.558 9.818C3.145 9.818 2 11.012 2 12.485V14.425C2 15.897 3.145 17.091 4.558 17.091C4.606 17.091 4.65367 17.0897 4.701 17.087V17.091C6.035 17.091 7.116 15.964 7.116 14.573V10.545C7.116 7.734 9.303 5.455 12 5.455C14.697 5.455 16.884 7.734 16.884 10.545V14.573C16.884 15.963 17.964 17.091 19.299 17.091V17.087C19.3457 17.0897 19.3933 17.091 19.442 17.091C20.855 17.091 22 15.897 22 14.424V12.484C22 11.012 20.855 9.818 19.442 9.818C19.018 9.818 18.618 9.926 18.266 10.116C18.054 6.701 15.329 4 12 4Z" fill="#33C060"/>
</svg>
