<svg width="24" height="24" viewBox="0 0 24 24" fill="none" xmlns="http://www.w3.org/2000/svg">
<path d="M3 3.77143C3 3.56683 3.08128 3.37062 3.22595 3.22595C3.37062 3.08128 3.56683 3 3.77143 3H4.34537C5.32251 3 5.9088 3.65726 6.24309 4.26823C6.46629 4.67554 6.62777 5.14766 6.75429 5.57554L6.85714 5.57143H19.7122C20.5659 5.57143 21.1831 6.38811 20.9486 7.20994L19.0683 13.8021C18.8998 14.3933 18.5431 14.9136 18.0524 15.284C17.5617 15.6545 16.9636 15.8549 16.3488 15.8551H10.2309C9.61114 15.8551 9.00856 15.6516 8.51574 15.2759C8.02292 14.9001 7.66714 14.3729 7.50309 13.7753L6.72137 10.9241L5.42537 6.55474L5.42434 6.54651C5.26389 5.96331 5.11371 5.41714 4.88949 5.00983C4.67451 4.61383 4.50171 4.54286 4.3464 4.54286H3.77143C3.56683 4.54286 3.37062 4.46158 3.22595 4.31691C3.08128 4.17224 3 3.97602 3 3.77143ZM9.68571 21C10.2313 21 10.7545 20.7833 11.1403 20.3975C11.5261 20.0117 11.7429 19.4884 11.7429 18.9429C11.7429 18.3973 11.5261 17.874 11.1403 17.4882C10.7545 17.1024 10.2313 16.8857 9.68571 16.8857C9.14013 16.8857 8.61688 17.1024 8.23109 17.4882C7.84531 17.874 7.62857 18.3973 7.62857 18.9429C7.62857 19.4884 7.84531 20.0117 8.23109 20.3975C8.61688 20.7833 9.14013 21 9.68571 21ZM16.8857 21C17.4313 21 17.9545 20.7833 18.3403 20.3975C18.7261 20.0117 18.9429 19.4884 18.9429 18.9429C18.9429 18.3973 18.7261 17.874 18.3403 17.4882C17.9545 17.1024 17.4313 16.8857 16.8857 16.8857C16.3401 16.8857 15.8169 17.1024 15.4311 17.4882C15.0453 17.874 14.8286 18.3973 14.8286 18.9429C14.8286 19.4884 15.0453 20.0117 15.4311 20.3975C15.8169 20.7833 16.3401 21 16.8857 21Z" fill="#33C060"/>
</svg>
