<svg width="24" height="24" viewBox="0 0 24 24" fill="none" xmlns="http://www.w3.org/2000/svg">
<path fill-rule="evenodd" clip-rule="evenodd" d="M12.5337 21.1322L12.5238 21.134L12.4599 21.1655L12.4419 21.1691L12.4293 21.1655L12.3654 21.134C12.3558 21.131 12.3486 21.1325 12.3438 21.1385L12.3402 21.1475L12.3249 21.5327L12.3294 21.5507L12.3384 21.5624L12.432 21.629L12.4455 21.6326L12.4563 21.629L12.5499 21.5624L12.5607 21.548L12.5643 21.5327L12.549 21.1484C12.5466 21.1388 12.5415 21.1334 12.5337 21.1322ZM12.7722 21.0305L12.7605 21.0323L12.594 21.116L12.585 21.125L12.5823 21.1349L12.5985 21.5219L12.603 21.5327L12.6102 21.539L12.7911 21.6227C12.8025 21.6257 12.8112 21.6233 12.8172 21.6155L12.8208 21.6029L12.7902 21.0503C12.7872 21.0395 12.7812 21.0329 12.7722 21.0305ZM12.1287 21.0323C12.1247 21.0299 12.12 21.0291 12.1154 21.0301C12.1109 21.0311 12.1069 21.0338 12.1044 21.0377L12.099 21.0503L12.0684 21.6029C12.069 21.6137 12.0741 21.6209 12.0837 21.6245L12.0972 21.6227L12.2781 21.539L12.2871 21.5318L12.2907 21.5219L12.306 21.1349L12.3033 21.1241L12.2943 21.1151L12.1287 21.0323Z" fill="#33C060"/>
<path fill-rule="evenodd" clip-rule="evenodd" d="M12 2C7.0293 2 3 6.0293 3 11C3 12.701 3.4725 14.294 4.2942 15.6512L3.4914 18.38C3.44531 18.5367 3.44227 18.7029 3.48262 18.8611C3.52297 19.0194 3.6052 19.1638 3.72068 19.2793C3.83616 19.3948 3.98062 19.477 4.13887 19.5174C4.29713 19.5577 4.46333 19.5547 4.62 19.5086L7.3488 18.7058C8.75166 19.5545 10.3604 20.0021 12 20C16.9707 20 21 15.9707 21 11C21 6.0293 16.9707 2 12 2ZM9.9642 13.0367C11.7849 14.8565 13.5228 15.0968 14.1366 15.1193C15.0699 15.1535 15.9789 14.4407 16.3326 13.6136C16.3769 13.5106 16.3929 13.3977 16.379 13.2865C16.365 13.1753 16.3217 13.0698 16.2534 12.9809C15.7602 12.3509 15.0933 11.8982 14.4417 11.4482C14.3057 11.3539 14.1385 11.316 13.9752 11.3426C13.8118 11.3691 13.6652 11.4579 13.566 11.5904L13.026 12.4139C12.9975 12.458 12.9532 12.4896 12.9023 12.5023C12.8513 12.515 12.7974 12.5079 12.7515 12.4823C12.3852 12.2726 11.8515 11.9162 11.4681 11.5328C11.0847 11.1494 10.7499 10.64 10.5618 10.2971C10.539 10.2534 10.5326 10.203 10.5437 10.155C10.5547 10.107 10.5825 10.0645 10.6221 10.0352L11.4537 9.4178C11.5727 9.31483 11.6496 9.17157 11.6695 9.01545C11.6894 8.85934 11.651 8.70137 11.5617 8.5718C11.1585 7.9814 10.6887 7.2308 10.0074 6.7331C9.91929 6.66979 9.81632 6.63031 9.70847 6.61849C9.60062 6.60666 9.49154 6.62289 9.3918 6.6656C8.5638 7.0202 7.8474 7.9292 7.8816 8.8643C7.9041 9.4781 8.1444 11.216 9.9642 13.0367Z" fill="#33C060"/>
</svg>
