<svg width="200" height="200" viewBox="0 0 200 200" fill="none" xmlns="http://www.w3.org/2000/svg">
<mask id="path-1-outside-1_2697_56" maskUnits="userSpaceOnUse" x="56" y="46" width="87" height="106" fill="black">
<rect fill="white" x="56" y="46" width="87" height="106"/>
<path d="M101.832 143.92C91.2507 143.835 82.8027 141.147 76.488 135.856C70.2587 130.48 66.5467 122.971 65.352 113.328L83.016 110C83.9547 115.888 85.8747 120.24 88.776 123.056C91.6773 125.872 96.0293 127.28 101.832 127.28C106.184 127.28 109.597 126.299 112.072 124.336C114.547 122.373 115.784 119.557 115.784 115.888C115.784 112.219 114.547 109.445 112.072 107.568C109.683 105.691 106.141 104.752 101.448 104.752H92.616V90.544H99.912C104.264 90.544 107.592 89.6907 109.896 87.984C112.2 86.2773 113.352 83.888 113.352 80.816C113.267 77.744 112.115 75.2693 109.896 73.392C107.592 71.6 104.477 70.6613 100.552 70.576C96.1147 70.576 92.5307 71.6427 89.8 73.776C87.0693 75.9093 85.32 78.9387 84.552 82.864L66.76 79.792C68.1253 71.856 71.7947 65.584 77.768 60.976C83.7413 56.4533 91.336 54.1493 100.552 54.064C109.768 54.1493 117.235 56.4533 122.952 60.976C128.584 65.4133 131.485 71.3013 131.656 78.64C131.656 82.48 130.675 85.8507 128.712 88.752C126.835 91.6533 124.189 94 120.776 95.792V96.048C124.872 97.9253 128.115 100.699 130.504 104.368C132.808 108.037 134.003 112.389 134.088 117.424C133.917 125.104 130.973 131.419 125.256 136.368C119.453 141.232 111.645 143.749 101.832 143.92Z"/>
</mask>
<path d="M101.832 143.92C91.2507 143.835 82.8027 141.147 76.488 135.856C70.2587 130.48 66.5467 122.971 65.352 113.328L83.016 110C83.9547 115.888 85.8747 120.24 88.776 123.056C91.6773 125.872 96.0293 127.28 101.832 127.28C106.184 127.28 109.597 126.299 112.072 124.336C114.547 122.373 115.784 119.557 115.784 115.888C115.784 112.219 114.547 109.445 112.072 107.568C109.683 105.691 106.141 104.752 101.448 104.752H92.616V90.544H99.912C104.264 90.544 107.592 89.6907 109.896 87.984C112.2 86.2773 113.352 83.888 113.352 80.816C113.267 77.744 112.115 75.2693 109.896 73.392C107.592 71.6 104.477 70.6613 100.552 70.576C96.1147 70.576 92.5307 71.6427 89.8 73.776C87.0693 75.9093 85.32 78.9387 84.552 82.864L66.76 79.792C68.1253 71.856 71.7947 65.584 77.768 60.976C83.7413 56.4533 91.336 54.1493 100.552 54.064C109.768 54.1493 117.235 56.4533 122.952 60.976C128.584 65.4133 131.485 71.3013 131.656 78.64C131.656 82.48 130.675 85.8507 128.712 88.752C126.835 91.6533 124.189 94 120.776 95.792V96.048C124.872 97.9253 128.115 100.699 130.504 104.368C132.808 108.037 134.003 112.389 134.088 117.424C133.917 125.104 130.973 131.419 125.256 136.368C119.453 141.232 111.645 143.749 101.832 143.92Z" fill="#33C060"/>
<path d="M101.832 143.92L101.767 151.92L101.869 151.921L101.971 151.919L101.832 143.92ZM76.488 135.856L71.2612 141.912L71.3054 141.951L71.3502 141.988L76.488 135.856ZM65.352 113.328L63.8708 105.466L56.4891 106.857L57.4127 114.312L65.352 113.328ZM83.016 110L90.9162 108.741L89.6208 100.615L81.5348 102.138L83.016 110ZM88.776 123.056L83.2042 128.797L83.2042 128.797L88.776 123.056ZM112.072 124.336L107.101 118.068L107.101 118.068L112.072 124.336ZM112.072 107.568L107.129 113.859L107.183 113.9L107.237 113.942L112.072 107.568ZM92.616 104.752H84.616V112.752H92.616V104.752ZM92.616 90.544V82.544H84.616V90.544H92.616ZM109.896 87.984L114.658 94.4125L114.658 94.4125L109.896 87.984ZM113.352 80.816H121.352V80.7049L121.349 80.5939L113.352 80.816ZM109.896 73.392L115.064 67.2849L114.938 67.1784L114.808 67.0772L109.896 73.392ZM100.552 70.576L100.726 62.5779L100.639 62.576H100.552V70.576ZM89.8 73.776L84.8749 67.4718L84.8748 67.4718L89.8 73.776ZM84.552 82.864L83.1908 90.7474L90.9008 92.0786L92.4031 84.4001L84.552 82.864ZM66.76 79.792L58.8758 78.4356L57.5202 86.315L65.3988 87.6753L66.76 79.792ZM77.768 60.976L72.9389 54.5979L72.9101 54.6197L72.8816 54.6417L77.768 60.976ZM100.552 54.064L100.626 46.0643L100.552 46.0637L100.478 46.0643L100.552 54.064ZM122.952 60.976L117.989 67.2503L117.995 67.2551L118.001 67.2599L122.952 60.976ZM131.656 78.64H139.656V78.547L139.654 78.454L131.656 78.64ZM128.712 88.752L122.086 84.2695L122.04 84.3373L121.995 84.406L128.712 88.752ZM120.776 95.792L117.057 88.7088L112.776 90.9565V95.792H120.776ZM120.776 96.048H112.776V101.182L117.443 103.321L120.776 96.048ZM130.504 104.368L137.279 100.114L137.244 100.058L137.208 100.003L130.504 104.368ZM134.088 117.424L142.086 117.602L142.09 117.445L142.087 117.288L134.088 117.424ZM125.256 136.368L130.395 142.499L130.444 142.458L130.492 142.416L125.256 136.368ZM101.897 135.92C92.6341 135.846 86.1535 133.517 81.6258 129.724L71.3502 141.988C79.4519 148.776 89.8672 151.824 101.767 151.92L101.897 135.92ZM81.7148 129.8C77.2522 125.948 74.2888 120.396 73.2913 112.344L57.4127 114.312C58.8045 125.546 63.2651 135.012 71.2612 141.912L81.7148 129.8ZM66.8332 121.19L84.4972 117.862L81.5348 102.138L63.8708 105.466L66.8332 121.19ZM75.1158 111.259C76.2029 118.079 78.5989 124.327 83.2042 128.797L94.3478 117.315C93.1505 116.153 91.7064 113.697 90.9162 108.741L75.1158 111.259ZM83.2042 128.797C88.1421 133.589 94.8551 135.28 101.832 135.28V119.28C97.2036 119.28 95.2126 118.155 94.3478 117.315L83.2042 128.797ZM101.832 135.28C107.315 135.28 112.704 134.045 117.043 130.604L107.101 118.068C106.491 118.552 105.053 119.28 101.832 119.28V135.28ZM117.043 130.604C121.754 126.868 123.784 121.555 123.784 115.888H107.784C107.784 117.559 107.339 117.879 107.101 118.068L117.043 130.604ZM123.784 115.888C123.784 110.228 121.751 104.869 116.907 101.194L107.237 113.942C107.427 114.086 107.493 114.187 107.55 114.316C107.626 114.486 107.784 114.947 107.784 115.888H123.784ZM117.015 101.277C112.631 97.8329 107.012 96.752 101.448 96.752V112.752C105.271 112.752 106.735 113.548 107.129 113.859L117.015 101.277ZM101.448 96.752H92.616V112.752H101.448V96.752ZM100.616 104.752V90.544H84.616V104.752H100.616ZM92.616 98.544H99.912V82.544H92.616V98.544ZM99.912 98.544C105.14 98.544 110.428 97.546 114.658 94.4125L105.134 81.5555C104.756 81.8353 103.388 82.544 99.912 82.544V98.544ZM114.658 94.4125C119.162 91.0757 121.352 86.2119 121.352 80.816H105.352C105.352 81.3388 105.259 81.4856 105.282 81.4376C105.289 81.4236 105.297 81.4132 105.294 81.417C105.289 81.423 105.246 81.4725 105.134 81.5555L114.658 94.4125ZM121.349 80.5939C121.204 75.3948 119.129 70.725 115.064 67.2849L104.728 79.4991C105.1 79.8137 105.329 80.0932 105.355 81.0381L121.349 80.5939ZM114.808 67.0772C110.746 63.9186 105.784 62.6878 100.726 62.5779L100.378 78.5741C103.171 78.6348 104.438 79.2814 104.984 79.7068L114.808 67.0772ZM100.552 62.576C94.8365 62.576 89.3652 63.9637 84.8749 67.4718L94.7252 80.0802C95.6962 79.3216 97.3928 78.576 100.552 78.576V62.576ZM84.8748 67.4718C80.3957 70.9711 77.7781 75.822 76.7009 81.3279L92.4031 84.4001C92.8619 82.0553 93.743 80.8475 94.7252 80.0802L84.8748 67.4718ZM85.9132 74.9806L68.1212 71.9086L65.3988 87.6753L83.1908 90.7474L85.9132 74.9806ZM74.6442 81.1484C75.6945 75.0431 78.3822 70.606 82.6544 67.3103L72.8816 54.6417C65.2071 60.562 60.5561 68.6689 58.8758 78.4356L74.6442 81.1484ZM82.5971 67.3541C86.911 64.0879 92.7252 62.1368 100.626 62.0637L100.478 46.0643C89.9468 46.1618 80.5717 48.8188 72.9389 54.5979L82.5971 67.3541ZM100.478 62.0637C108.395 62.137 113.997 64.0926 117.989 67.2503L127.915 54.7017C120.472 48.814 111.142 46.1617 100.626 46.0643L100.478 62.0637ZM118.001 67.2599C121.708 70.1805 123.541 73.807 123.658 78.826L139.654 78.454C139.429 68.7957 135.46 60.6462 127.903 54.6921L118.001 67.2599ZM123.656 78.64C123.656 81.0428 123.067 82.8187 122.086 84.2695L135.338 93.2345C138.282 88.8827 139.656 83.9172 139.656 78.64H123.656ZM121.995 84.406C120.949 86.0233 119.396 87.4808 117.057 88.7088L124.495 102.875C128.982 100.519 132.72 97.2834 135.429 93.098L121.995 84.406ZM112.776 95.792V96.048H128.776V95.792H112.776ZM117.443 103.321C120.205 104.586 122.262 106.371 123.8 108.733L137.208 100.003C133.968 95.0266 129.539 91.2642 124.109 88.7755L117.443 103.321ZM123.729 108.622C125.139 110.867 126.024 113.744 126.089 117.56L142.087 117.288C141.981 111.035 140.477 105.207 137.279 100.114L123.729 108.622ZM126.09 117.246C125.969 122.708 123.998 126.876 120.02 130.32L130.492 142.416C137.949 135.962 141.866 127.5 142.086 117.602L126.09 117.246ZM120.117 130.237C116.088 133.614 110.224 135.773 101.693 135.921L101.971 151.919C113.067 151.726 122.819 148.85 130.395 142.499L120.117 130.237Z" fill="#696B6B" mask="url(#path-1-outside-1_2697_56)"/>
</svg>
