<svg width="200" height="200" viewBox="0 0 200 200" fill="none" xmlns="http://www.w3.org/2000/svg">
<mask id="path-1-outside-1_2697_54" maskUnits="userSpaceOnUse" x="57" y="46" width="84" height="104" fill="black">
<rect fill="white" x="57" y="46" width="84" height="104"/>
<path d="M89.312 119.344C88.7147 120.112 88.3307 120.923 88.16 121.776C87.904 122.715 87.776 123.867 87.776 125.232H131.68V142H66.912V129.328C66.912 125.403 67.3813 121.947 68.32 118.96C69.1733 115.973 70.5387 113.413 72.416 111.28C74.464 108.805 77.28 106.459 80.864 104.24C84.3627 102.021 88.8 99.76 94.176 97.456C101.685 94.2987 106.933 91.4827 109.92 89.008C112.821 86.5333 114.229 83.76 114.144 80.688C114.144 77.616 112.949 75.184 110.56 73.392C108.171 71.6 104.885 70.704 100.704 70.704C95.6693 70.704 91.7013 72.0267 88.8 74.672C85.984 77.4027 84.32 81.328 83.808 86.448L65.632 85.04C66.4 75.312 69.856 67.7173 76 62.256C82.144 56.88 90.3787 54.1493 100.704 54.064C110.261 54.2347 117.899 56.752 123.616 61.616C129.333 66.5653 132.277 72.9653 132.448 80.816C132.448 87.1307 130.4 92.592 126.304 97.2C122.123 101.808 115.723 105.989 107.104 109.744C100.363 112.645 95.8827 114.693 93.664 115.888C91.36 117.168 89.9093 118.32 89.312 119.344Z"/>
</mask>
<path d="M89.312 119.344C88.7147 120.112 88.3307 120.923 88.16 121.776C87.904 122.715 87.776 123.867 87.776 125.232H131.68V142H66.912V129.328C66.912 125.403 67.3813 121.947 68.32 118.96C69.1733 115.973 70.5387 113.413 72.416 111.28C74.464 108.805 77.28 106.459 80.864 104.24C84.3627 102.021 88.8 99.76 94.176 97.456C101.685 94.2987 106.933 91.4827 109.92 89.008C112.821 86.5333 114.229 83.76 114.144 80.688C114.144 77.616 112.949 75.184 110.56 73.392C108.171 71.6 104.885 70.704 100.704 70.704C95.6693 70.704 91.7013 72.0267 88.8 74.672C85.984 77.4027 84.32 81.328 83.808 86.448L65.632 85.04C66.4 75.312 69.856 67.7173 76 62.256C82.144 56.88 90.3787 54.1493 100.704 54.064C110.261 54.2347 117.899 56.752 123.616 61.616C129.333 66.5653 132.277 72.9653 132.448 80.816C132.448 87.1307 130.4 92.592 126.304 97.2C122.123 101.808 115.723 105.989 107.104 109.744C100.363 112.645 95.8827 114.693 93.664 115.888C91.36 117.168 89.9093 118.32 89.312 119.344Z" fill="#33C060"/>
<path d="M89.312 119.344L95.6268 124.256L95.9538 123.835L96.2222 123.375L89.312 119.344ZM88.16 121.776L95.8781 123.881L95.9506 123.615L96.0046 123.345L88.16 121.776ZM87.776 125.232H79.776V133.232H87.776V125.232ZM131.68 125.232H139.68V117.232H131.68V125.232ZM131.68 142V150H139.68V142H131.68ZM66.912 142H58.912V150H66.912V142ZM68.32 118.96L75.952 121.359L75.9834 121.259L76.0122 121.158L68.32 118.96ZM72.416 111.28L78.4217 116.565L78.5018 116.474L78.5792 116.381L72.416 111.28ZM80.864 104.24L85.0748 111.042L85.1117 111.019L85.1483 110.996L80.864 104.24ZM94.176 97.456L91.0753 90.0813L91.0499 90.092L91.0246 90.1028L94.176 97.456ZM109.92 89.008L115.024 95.1682L115.068 95.1317L115.112 95.0947L109.92 89.008ZM114.144 80.688H106.144V80.7991L106.147 80.9101L114.144 80.688ZM110.56 73.392L105.76 79.792L105.76 79.792L110.56 73.392ZM88.8 74.672L83.41 68.7604L83.3191 68.8432L83.2308 68.9288L88.8 74.672ZM83.808 86.448L83.1901 94.4241L90.9899 95.0283L91.7683 87.244L83.808 86.448ZM65.632 85.04L57.6568 84.4104L57.0263 92.3973L65.0141 93.0161L65.632 85.04ZM76 62.256L70.732 56.2354L70.7084 56.256L70.6851 56.2767L76 62.256ZM100.704 54.064L100.847 46.0653L100.742 46.0634L100.638 46.0643L100.704 54.064ZM123.616 61.616L128.852 55.5675L128.826 55.545L128.8 55.5227L123.616 61.616ZM132.448 80.816H140.448V80.7291L140.446 80.6421L132.448 80.816ZM126.304 97.2L132.228 102.576L132.256 102.546L132.283 102.515L126.304 97.2ZM107.104 109.744L110.267 117.092L110.283 117.085L110.299 117.078L107.104 109.744ZM93.664 115.888L89.8712 108.844L89.8249 108.869L89.7789 108.895L93.664 115.888ZM82.9972 114.432C81.7283 116.064 80.7571 117.998 80.3154 120.207L96.0046 123.345C95.9043 123.847 95.701 124.16 95.6268 124.256L82.9972 114.432ZM80.4419 119.671C79.9405 121.509 79.776 123.418 79.776 125.232H95.776C95.776 124.794 95.7968 124.464 95.8231 124.227C95.836 124.111 95.8495 124.025 95.8604 123.965C95.8713 123.906 95.8786 123.879 95.8781 123.881L80.4419 119.671ZM87.776 133.232H131.68V117.232H87.776V133.232ZM123.68 125.232V142H139.68V125.232H123.68ZM131.68 134H66.912V150H131.68V134ZM74.912 142V129.328H58.912V142H74.912ZM74.912 129.328C74.912 126.019 75.31 123.401 75.952 121.359L60.6881 116.561C59.4527 120.492 58.912 124.786 58.912 129.328H74.912ZM76.0122 121.158C76.5702 119.205 77.3994 117.727 78.4217 116.565L66.4103 105.995C63.6779 109.1 61.7765 112.742 60.6278 116.762L76.0122 121.158ZM78.5792 116.381C79.9308 114.747 82.0125 112.938 85.0748 111.042L76.6532 97.4379C72.5475 99.9794 68.9972 102.863 66.2528 106.179L78.5792 116.381ZM85.1483 110.996C88.1726 109.078 92.198 107.007 97.3274 104.809L91.0246 90.1028C85.402 92.5125 80.5527 94.9644 76.5797 97.4839L85.1483 110.996ZM97.2767 104.831C104.896 101.627 111.075 98.4407 115.024 95.1682L104.816 82.8478C102.792 84.5246 98.4747 86.9702 91.0753 90.0813L97.2767 104.831ZM115.112 95.0947C119.367 91.4648 122.309 86.5312 122.141 80.4659L106.147 80.9101C106.149 80.9888 106.275 81.6019 104.728 82.9213L115.112 95.0947ZM122.144 80.688C122.144 75.1825 119.83 70.3449 115.36 66.992L105.76 79.792C105.917 79.9095 105.995 79.9931 106.028 80.0318C106.059 80.0682 106.066 80.0843 106.068 80.0872C106.069 80.0907 106.085 80.1217 106.102 80.2009C106.12 80.2836 106.144 80.4394 106.144 80.688H122.144ZM115.36 66.992C111.129 63.8184 105.941 62.704 100.704 62.704V78.704C103.83 78.704 105.213 79.3816 105.76 79.792L115.36 66.992ZM100.704 62.704C94.2566 62.704 88.1645 64.4253 83.41 68.7604L94.19 80.5836C95.2381 79.628 97.0821 78.704 100.704 78.704V62.704ZM83.2308 68.9288C78.6842 73.3377 76.4883 79.2465 75.8477 85.652L91.7683 87.244C92.1517 83.4095 93.2838 81.4676 94.3692 80.4152L83.2308 68.9288ZM84.4259 78.4719L66.2499 77.0639L65.0141 93.0161L83.1901 94.4241L84.4259 78.4719ZM73.6072 85.6696C74.245 77.5902 76.9983 72.0722 81.3149 68.2353L70.6851 56.2767C62.7137 63.3624 58.555 73.0338 57.6568 84.4104L73.6072 85.6696ZM81.268 68.2766C85.6214 64.4674 91.8379 62.1375 100.77 62.0637L100.638 46.0643C88.9195 46.1611 78.6666 49.2926 70.732 56.2354L81.268 68.2766ZM100.561 62.0627C108.784 62.2096 114.473 64.3409 118.432 67.7093L128.8 55.5227C121.325 49.1631 111.738 46.2598 100.847 46.0653L100.561 62.0627ZM118.38 67.6645C122.315 71.0706 124.326 75.3012 124.45 80.9899L140.446 80.6421C140.228 70.6294 136.352 62.06 128.852 55.5675L118.38 67.6645ZM124.448 80.816C124.448 85.2236 123.085 88.7801 120.325 91.8851L132.283 102.515C137.715 96.4039 140.448 89.0377 140.448 80.816H124.448ZM120.38 91.8241C117.247 95.2767 111.97 98.8978 103.909 102.41L110.299 117.078C119.475 113.081 126.999 108.339 132.228 102.576L120.38 91.8241ZM103.941 102.396C97.2468 105.277 92.4474 107.457 89.8712 108.844L97.4568 122.932C99.3179 121.93 103.478 120.014 110.267 117.092L103.941 102.396ZM89.7789 108.895C87.4098 110.211 84.1912 112.245 82.4018 115.313L96.2222 123.375C95.9993 123.757 95.8028 123.974 95.7456 124.035C95.6835 124.101 95.694 124.079 95.8231 123.977C96.0959 123.76 96.6338 123.39 97.5491 122.881L89.7789 108.895Z" fill="#696B6B" mask="url(#path-1-outside-1_2697_54)"/>
</svg>
