<svg width="24" height="24" viewBox="0 0 24 24" fill="none" xmlns="http://www.w3.org/2000/svg">
<path d="M11.9983 4C9.19295 4 6.94662 5.31429 5.31134 6.87857C3.68649 8.42857 2.59977 10.2857 2.08593 11.5607C1.97136 11.8429 1.97136 12.1571 2.08593 12.4393C2.59977 13.7143 3.68649 15.5714 5.31134 17.1214C6.94662 18.6857 9.19295 20 11.9983 20C14.8036 20 17.0499 18.6857 18.6852 17.1214C20.31 15.5679 21.3968 13.7143 21.9141 12.4393C22.0286 12.1571 22.0286 11.8429 21.9141 11.5607C21.3968 10.2857 20.31 8.42857 18.6852 6.87857C17.0499 5.31429 14.8036 4 11.9983 4ZM6.9987 12C6.9987 10.636 7.52544 9.32792 8.46304 8.36345C9.40064 7.39898 10.6723 6.85714 11.9983 6.85714C13.3242 6.85714 14.5959 7.39898 15.5335 8.36345C16.4711 9.32792 16.9978 10.636 16.9978 12C16.9978 13.364 16.4711 14.6721 15.5335 15.6365C14.5959 16.601 13.3242 17.1429 11.9983 17.1429C10.6723 17.1429 9.40064 16.601 8.46304 15.6365C7.52544 14.6721 6.9987 13.364 6.9987 12ZM11.9983 9.71429C11.9983 10.975 11.0018 12 9.77624 12C9.52973 12 9.29364 11.9571 9.07144 11.8821C8.88048 11.8179 8.65828 11.9393 8.66522 12.1464C8.67564 12.3929 8.71036 12.6393 8.77632 12.8857C9.25198 14.7143 11.0817 15.8 12.8593 15.3107C14.6369 14.8214 15.6924 12.9393 15.2167 11.1107C14.8314 9.62857 13.5572 8.63214 12.1406 8.57143C11.9392 8.56429 11.8212 8.78929 11.8837 8.98929C11.9566 9.21786 11.9983 9.46071 11.9983 9.71429Z" fill="#696B6B"/>
</svg>
