<svg width="24" height="24" viewBox="0 0 24 24" fill="none" xmlns="http://www.w3.org/2000/svg">
<path d="M3.60001 5.9999C2.96349 5.9999 2.35304 6.25276 1.90296 6.70285C1.45287 7.15293 1.20001 7.76338 1.20001 8.3999V20.3999C1.20001 21.0364 1.45287 21.6469 1.90296 22.097C2.35304 22.547 2.96349 22.7999 3.60001 22.7999H20.4C21.0365 22.7999 21.647 22.547 22.0971 22.097C22.5472 21.6469 22.8 21.0364 22.8 20.3999V8.3999C22.8 7.76338 22.5472 7.15293 22.0971 6.70285C21.647 6.25276 21.0365 5.9999 20.4 5.9999H3.60001ZM3.60001 19.1999L7.80001 13.7999L10.8 17.3999L15 11.9999L20.4 19.1999H3.60001ZM19.2 2.3999C19.8365 2.3999 20.447 2.65276 20.8971 3.10285C21.3472 3.55293 21.6 4.16338 21.6 4.7999H2.40001C2.40001 4.16338 2.65287 3.55293 3.10296 3.10285C3.55304 2.65276 4.16349 2.3999 4.80001 2.3999H19.2Z" fill="#33C060"/>
</svg>
