<svg width="24" height="24" viewBox="0 0 24 24" fill="none" xmlns="http://www.w3.org/2000/svg">
<path d="M20.2827 5.15754V15.9592C20.2821 16.0617 20.2596 16.163 20.2168 16.2561C20.174 16.3492 20.1117 16.4322 20.0342 16.4993C18.6588 17.6902 17.3437 18.1196 16.0898 18.1196C14.3877 18.1196 12.798 17.3328 11.3191 16.6028C8.92922 15.4191 6.8517 14.3939 4.44022 16.2986V20.2799C4.44022 20.4709 4.36435 20.654 4.22931 20.7891C4.09426 20.9241 3.9111 21 3.72011 21C3.52913 21 3.34596 20.9241 3.21092 20.7891C3.07587 20.654 3 20.4709 3 20.2799V5.15754C3.00069 5.05495 3.02329 4.95369 3.0663 4.86055C3.1093 4.76741 3.1717 4.68452 3.24934 4.61746C6.48984 1.81082 9.39819 3.24835 11.9618 4.51664C14.4318 5.73903 16.5732 6.7958 19.0909 4.61746C19.195 4.52725 19.3227 4.46877 19.459 4.44896C19.5953 4.42915 19.7344 4.44884 19.8598 4.50568C19.9853 4.56253 20.0918 4.65415 20.1667 4.76968C20.2417 4.88522 20.2819 5.01983 20.2827 5.15754Z" fill="#33C060"/>
</svg>
