<svg width="20" height="20" viewBox="0 0 20 20" fill="none" xmlns="http://www.w3.org/2000/svg">
<path d="M16 7C15.8993 5.81157 15.4066 4.69028 14.5993 3.81237C13.792 2.93446 12.7158 2.3497 11.54 2.15C11.6 1.46 11.53 0 10 0C8.47 0 8.4 1.46 8.46 2.15C7.28415 2.3497 6.208 2.93446 5.40068 3.81237C4.59337 4.69028 4.10066 5.81157 4 7V13L2 15V16H18V15L16 13V7ZM10 20C10.7956 20 11.5587 19.6839 12.1213 19.1213C12.6839 18.5587 13 17.7956 13 17H7C7 17.7956 7.31607 18.5587 7.87868 19.1213C8.44129 19.6839 9.20435 20 10 20Z" fill="white"/>
</svg>
