<svg width="24" height="24" viewBox="0 0 24 24" fill="none" xmlns="http://www.w3.org/2000/svg">
<path d="M4.36151 3.51299L4.869 5.23015H18.3905C20.0883 5.23015 21.3847 6.81359 20.8957 8.46712L19.3686 13.6315C19.0438 14.7326 18.0113 15.4667 16.8634 15.4667H8.415C7.26714 15.4667 6.23555 14.7326 5.90983 13.6315L3.03372 3.90493C3.00523 3.81708 2.99463 3.72442 3.00254 3.63241C3.01046 3.5404 3.03673 3.45091 3.0798 3.36921C3.12288 3.28751 3.18189 3.21526 3.25335 3.15672C3.32482 3.09818 3.40728 3.05454 3.49589 3.02836C3.5845 3.00219 3.67746 2.99401 3.76928 3.00432C3.8611 3.01463 3.94993 3.04321 4.03052 3.08838C4.11111 3.13355 4.18184 3.19439 4.23853 3.26732C4.29522 3.34024 4.33764 3.42378 4.36151 3.51299ZM14.8537 9.18553C14.958 9.03669 14.9996 8.85279 14.9693 8.6736C14.939 8.4944 14.8394 8.33431 14.692 8.22793C14.5446 8.12155 14.3612 8.07743 14.1815 8.1051C14.0018 8.13278 13.8402 8.23002 13.7317 8.37582L12.1511 10.5624L11.5984 9.9316C11.5393 9.86062 11.4666 9.80217 11.3846 9.75971C11.3026 9.71725 11.2129 9.69162 11.1208 9.68435C11.0287 9.67708 10.9361 9.6883 10.8485 9.71737C10.7608 9.74643 10.6798 9.79274 10.6103 9.85356C10.5408 9.91439 10.4842 9.98851 10.4439 10.0715C10.4035 10.1546 10.3802 10.2448 10.3752 10.337C10.3703 10.4292 10.3839 10.5215 10.4152 10.6083C10.4465 10.6952 10.4949 10.7749 10.5576 10.8427L11.5116 11.9319C11.6006 12.0335 11.7113 12.1138 11.8356 12.1667C11.9598 12.2197 12.0944 12.244 12.2294 12.2378C12.3643 12.2316 12.4962 12.1951 12.615 12.1309C12.7339 12.0668 12.8368 11.9767 12.916 11.8673L14.8537 9.18553ZM8.77209 16.85C8.22148 16.85 7.69341 17.0687 7.30406 17.4578C6.91472 17.8469 6.69598 18.3747 6.69598 18.925C6.69598 19.4753 6.91472 20.0031 7.30406 20.3923C7.69341 20.7814 8.22148 21 8.77209 21C9.32271 21 9.85078 20.7814 10.2401 20.3923C10.6295 20.0031 10.8482 19.4753 10.8482 18.925C10.8482 18.3747 10.6295 17.8469 10.2401 17.4578C9.85078 17.0687 9.32271 16.85 8.77209 16.85ZM16.1538 16.85C15.6032 16.85 15.0751 17.0687 14.6858 17.4578C14.2964 17.8469 14.0777 18.3747 14.0777 18.925C14.0777 19.4753 14.2964 20.0031 14.6858 20.3923C15.0751 20.7814 15.6032 21 16.1538 21C16.7044 21 17.2325 20.7814 17.6219 20.3923C18.0112 20.0031 18.2299 19.4753 18.2299 18.925C18.2299 18.3747 18.0112 17.8469 17.6219 17.4578C17.2325 17.0687 16.7044 16.85 16.1538 16.85Z" fill="#33C060"/>
</svg>
