<svg width="24" height="24" viewBox="0 0 24 24" fill="none" xmlns="http://www.w3.org/2000/svg">
<path d="M5.29584 15.796C5.08449 16.0073 4.79785 16.1261 4.49896 16.1261C4.20008 16.1261 3.91343 16.0073 3.70209 15.796C3.49074 15.5846 3.37201 15.298 3.37201 14.9991C3.37201 14.7002 3.49074 14.4136 3.70209 14.2022L11.2021 6.70222C11.3066 6.59734 11.4308 6.51413 11.5675 6.45735C11.7043 6.40057 11.8509 6.37134 11.999 6.37134C12.147 6.37134 12.2936 6.40057 12.4304 6.45735C12.5671 6.51413 12.6913 6.59734 12.7958 6.70222L20.2958 14.2022C20.5072 14.4136 20.6259 14.7002 20.6259 14.9991C20.6259 15.298 20.5072 15.5846 20.2958 15.796C20.0845 16.0073 19.7979 16.1261 19.499 16.1261C19.2001 16.1261 18.9134 16.0073 18.7021 15.796L11.9999 9.09379L5.29584 15.796Z" fill="#33C060"/>
</svg>
