<svg width="24" height="24" viewBox="0 0 24 24" fill="none" xmlns="http://www.w3.org/2000/svg">
<path d="M11.673 7.22201C10.797 7.22201 9.44101 6.22601 8.01301 6.26201C6.12901 6.28601 4.40101 7.35401 3.42901 9.04601C1.47301 12.442 2.92501 17.458 4.83301 20.218C5.76901 21.562 6.87301 23.074 8.33701 23.026C9.74101 22.966 10.269 22.114 11.973 22.114C13.665 22.114 14.145 23.026 15.633 22.99C17.145 22.966 18.105 21.622 19.029 20.266C20.097 18.706 20.541 17.194 20.565 17.11C20.529 17.098 17.625 15.982 17.589 12.622C17.565 9.81401 19.881 8.47001 19.989 8.41001C18.669 6.47801 16.641 6.26201 15.933 6.21401C14.085 6.07001 12.537 7.22201 11.673 7.22201ZM14.793 4.39001C15.573 3.45401 16.089 2.14601 15.945 0.850006C14.829 0.898006 13.485 1.59401 12.681 2.53001C11.961 3.35801 11.337 4.69001 11.505 5.96201C12.741 6.05801 14.013 5.32601 14.793 4.39001Z" fill="black"/>
</svg>
