<svg id="Illustration" xmlns="http://www.w3.org/2000/svg" viewBox="0 0 1080 1080"><defs><style>.cls-1{fill:#d6f2df;}.cls-2{fill:#1f733a;}.cls-3,.cls-6{fill:#fff;}.cls-4{fill:#5ccd80;}.cls-5{fill:#33c060;}.cls-6{opacity:0.7;isolation:isolate;}.cls-7{fill:#263238;}.cls-8{fill:#aae2ba;}.cls-9{fill:#efdff4;}.cls-10{fill:#bcddc6;}.cls-11{fill:#cdb4d6;}.cls-12{fill:#6ba37d;}.cls-13{fill:#92deaa;}.cls-14{fill:#333;}.cls-15{fill:#76d594;}</style></defs><title>Image-2</title><path class="cls-1" d="M837.36,327.81h189.42l-46.17-47.05V189l40.29-40.3L932.07,59.9l-88.83,88.83,40.3,40.3v91.73Zm15.42-179.08,79.29-79.29,79.3,79.29-37.5,37.51v97.28l36.84,37.54H853.43l36.85-37.54V186.24ZM898,308.52h68.07V183l34.29-34.29L932.07,80.41l-68.32,68.32L898,183ZM870.42,148.73l61.65-61.64,61.65,61.64-32.33,32.34V303.8H902.76V181.07Zm47.85,139.56h27.61V174.64l25.9-25.91L932.07,109l-39.71,39.71,25.91,25.91ZM899,148.73l33-33,33,33-24,24V283.56H923V172.69Z"/><g id="freepik--Device--inject-1136"><path class="cls-2" d="M757.09,117.3H366.88a39.85,39.85,0,0,0-39.47,40.21h0V960.75A39.86,39.86,0,0,0,366.87,1001H757.09a39.91,39.91,0,0,0,39.52-40.21V157.56A39.9,39.9,0,0,0,757.1,117.3Zm14.82,818.63c0,21.15-15.83,38.25-35.36,38.25H387.47c-19.58,0-35.41-17.1-35.41-38.25V188c0-43.07,15.83-45.18,35.41-45.18H457.4c4.07,0,7.39,4.62,7.39,10.35v2.46c0,13.42,7.34,13.46,16.34,13.46H642.79c9.1,0,16.39,0,16.39-13.46v-2.46c0-5.73,3.28-10.35,7.41-10.35H736.5c19.53,0,35.37,5.73,35.37,45.18Z"/><path class="cls-3" d="M771.91,188v748c0,21.15-15.83,38.25-35.36,38.25H387.47c-19.58,0-35.41-17.1-35.41-38.25V188c0-43.07,15.83-45.18,35.41-45.18H457.4c4.07,0,7.39,4.62,7.39,10.35v2.46c0,13.42,7.34,13.46,16.34,13.46H642.79c9.1,0,16.39,0,16.39-13.46v-2.46c0-5.73,3.28-10.35,7.41-10.35H736.5C756.08,142.78,771.91,148.51,771.91,188Z"/><path class="cls-4" d="M771.91,188v75H352V188c0-43.07,15.83-45.18,35.4-45.18h69.94c4.06,0,7.39,4.62,7.39,10.35v2.46c0,13.42,7.34,13.46,16.34,13.46H642.79c9.1,0,16.39,0,16.39-13.46v-2.46c0-5.73,3.28-10.35,7.41-10.35H736.5C756.08,142.78,771.91,148.51,771.91,188Z"/><g id="freepik--u5Zjqx--inject-1136"><path class="cls-3" d="M445.33,159.59l-.67.67-.39.37a9.23,9.23,0,0,0-13,0l-.37-.4-.67-.67h0l.86-.76a10.44,10.44,0,0,1,2-1.24,9.68,9.68,0,0,1,2.61-.88,11.63,11.63,0,0,1,1.32-.18h2a10.27,10.27,0,0,1,2.31.57,11,11,0,0,1,1.63.76,10.53,10.53,0,0,1,1.55,1.09l.72.64Z"/><path class="cls-3" d="M433.38,162.75l-1.07-1.06a7.63,7.63,0,0,1,4.34-2.17,7.54,7.54,0,0,1,6.54,2.17l-1.07,1.06a6,6,0,0,0-4.36-1.8A6.11,6.11,0,0,0,433.38,162.75Z"/><path class="cls-3" d="M441.06,163.81,440,164.87a3.11,3.11,0,0,0-2.31-.92,3,3,0,0,0-2.31,1l-1.06-1.06a4.62,4.62,0,0,1,6.53-.24Z"/><path class="cls-3" d="M438.71,165.84a.94.94,0,0,1-.93,1h0a1,1,0,0,1-1-1,.94.94,0,0,1,.95-.94h0a1,1,0,0,1,.95.94Z"/></g><path class="cls-3" d="M379.43,161.62a2.8,2.8,0,1,1,2.8,2.79,2.79,2.79,0,0,1-2.8-2.79Z"/><path class="cls-3" d="M388.21,161.62a2.79,2.79,0,1,1,2.79,2.79,2.79,2.79,0,0,1-2.79-2.79Z"/><path class="cls-3" d="M397,161.62a2.79,2.79,0,1,1,2.79,2.79h0A2.79,2.79,0,0,1,397,161.62Z"/><path class="cls-3" d="M405.75,161.62a2.79,2.79,0,1,1,2.79,2.79h0A2.79,2.79,0,0,1,405.75,161.62Z"/><path class="cls-3" d="M414.49,161.62a2.8,2.8,0,1,1,2.8,2.79,2.8,2.8,0,0,1-2.8-2.79Z"/><path class="cls-3" d="M740.43,167.76H717.76V157.21h22.67Zm-21.51-1.16h20.35v-8.24H719Z"/><rect class="cls-3" x="719.65" y="158.99" width="14.61" height="6.92"/><rect class="cls-3" x="740.43" y="159.63" width="2.01" height="5.61"/><rect class="cls-3" x="723.83" y="228.53" width="18.95" height="2.19"/><rect class="cls-3" x="723.83" y="235.8" width="18.95" height="2.19"/><rect class="cls-3" x="723.83" y="243.07" width="18.95" height="2.19"/><circle class="cls-3" cx="728.2" cy="229.62" r="3.28"/><path class="cls-3" d="M741.07,237a3.3,3.3,0,1,1-3.3-3.3h0A3.3,3.3,0,0,1,741.07,237Z"/><circle class="cls-3" cx="731.22" cy="244.18" r="3.28"/><path class="cls-3" d="M394.21,237.65a25.22,25.22,0,0,1-6.93,6.92,25.06,25.06,0,0,1-6.81-6.92c-2.31-4.16-1-8.4,2.31-8.4,3.62,0,4.62,4.61,4.62,4.61s.94-4.61,4.61-4.61C395.22,229.25,396.47,233.49,394.21,237.65Z"/><path class="cls-3" d="M584.05,152.29H539.94a2.72,2.72,0,0,1-2.72-2.72h0a2.72,2.72,0,0,1,2.72-2.72h44.11a2.72,2.72,0,0,1,2.72,2.72h0A2.72,2.72,0,0,1,584.05,152.29Z"/><rect class="cls-1" x="378.56" y="295.49" width="366.9" height="140.59"/><rect class="cls-3" x="392.82" y="311.58" width="108.41" height="108.41"/><path class="cls-2" d="M531.45,413.07a24.92,24.92,0,0,1-6.81,6.92,24.52,24.52,0,0,1-6.81-6.92c-2.31-4.16-1-8.43,2.31-8.43,3.62,0,4.62,4.62,4.62,4.62s.94-4.62,4.61-4.62C532.46,404.64,533.71,408.91,531.45,413.07Z"/><rect class="cls-4" x="516.68" y="312.83" width="79.7" height="6.26"/><rect class="cls-5" x="516.68" y="369.86" width="48.29" height="6.26"/><rect class="cls-4" x="516.68" y="333.35" width="139.74" height="6.26"/><rect class="cls-4" x="516.68" y="344.08" width="114.11" height="6.26"/><rect class="cls-2" x="361.04" y="448.73" width="401.96" height="154.02"/><rect class="cls-6" x="361.04" y="448.73" width="401.96" height="154.02"/><rect class="cls-3" x="376.66" y="466.36" width="118.75" height="118.75"/><path class="cls-2" d="M528.54,577.55a27.78,27.78,0,0,1-7.48,7.57,27.39,27.39,0,0,1-7.45-7.57c-2.47-4.62-1.11-9.24,2.44-9.24,4,0,5,5,5,5s1-5,5-5C529.69,568.34,531,573,528.54,577.55Z"/><rect class="cls-2" x="512.36" y="467.75" width="87.32" height="6.86"/><rect class="cls-7" x="512.36" y="530.21" width="52.9" height="6.86"/><rect class="cls-2" x="512.36" y="490.21" width="153.1" height="6.86"/><rect class="cls-2" x="512.36" y="501.98" width="125.01" height="6.86"/><circle class="cls-2" cx="424.03" cy="548.67" r="1.96"/><circle class="cls-2" cx="430.03" cy="557.58" r="1.96"/><circle class="cls-2" cx="436.05" cy="548.67" r="1.96"/><circle class="cls-2" cx="442.05" cy="557.58" r="1.96"/><circle class="cls-2" cx="448.08" cy="548.67" r="1.96"/><path class="cls-2" d="M462,548.6a2,2,0,1,1-2-2h0A2,2,0,0,1,462,548.6Z"/><rect class="cls-1" x="378.56" y="616.95" width="366.9" height="140.59"/><rect class="cls-3" x="392.82" y="633.04" width="108.41" height="108.41"/><path class="cls-2" d="M531.45,734.52a24.83,24.83,0,0,1-6.81,6.93,24.43,24.43,0,0,1-6.81-6.93c-2.31-4.15-1-8.4,2.31-8.4,3.62,0,4.62,4.62,4.62,4.62s.94-4.62,4.61-4.62C532.46,726.12,533.71,730.37,531.45,734.52Z"/><rect class="cls-4" x="516.68" y="634.3" width="79.7" height="6.26"/><rect class="cls-5" x="516.68" y="691.32" width="48.29" height="6.26"/><rect class="cls-4" x="516.68" y="654.8" width="139.74" height="6.26"/><rect class="cls-4" x="516.68" y="665.56" width="114.11" height="6.26"/><rect class="cls-1" x="378.56" y="770.76" width="366.9" height="140.59"/><rect class="cls-3" x="392.82" y="786.85" width="108.41" height="108.41"/><path class="cls-2" d="M531.45,888.34a25.06,25.06,0,0,1-6.81,6.92,24.79,24.79,0,0,1-6.81-6.92c-2.31-4.16-1-8.4,2.31-8.4,3.62,0,4.62,4.61,4.62,4.61s.94-4.61,4.61-4.61C532.46,879.94,533.71,884.18,531.45,888.34Z"/><rect class="cls-4" x="516.68" y="788.1" width="79.7" height="6.26"/><rect class="cls-5" x="516.68" y="845.13" width="48.29" height="6.26"/><rect class="cls-4" x="516.68" y="808.62" width="139.74" height="6.26"/><rect class="cls-4" x="516.68" y="819.35" width="114.11" height="6.26"/><path class="cls-2" d="M535.35,940.09a9.1,9.1,0,1,1-9.12-9.07h0A9.07,9.07,0,0,1,535.35,940.09Z"/><circle class="cls-4" cx="562.01" cy="940.09" r="5.84"/><path class="cls-4" d="M603.56,940.09a5.87,5.87,0,1,1-5.89-5.84h0A5.87,5.87,0,0,1,603.56,940.09Z"/><path class="cls-8" d="M415.54,491.12l.29-.18Z"/><path class="cls-8" d="M415.4,491.21l-.2.13Z"/><path class="cls-8" d="M415.5,491.14h0Z"/><path class="cls-8" d="M465.45,489.59h-49a6.89,6.89,0,0,0-4.19,2.62v.48h0v64.92a2.28,2.28,0,0,0,1.57,2.17V492.69h46.67a1,1,0,0,1,1,.95v65.2a1,1,0,0,1-.9,1H461a1,1,0,0,0,.89-.51,1,1,0,0,0,.14-.51V493.4a1.18,1.18,0,0,0-1.18-1.19h-47l1.2-.76-1.16.74s0-1.47,3.32-2.13h48.5v67.2h.5V490.33A.74.74,0,0,0,465.45,489.59Z"/><path class="cls-9" d="M465.69,490.06h-48.5l-1.36.88-.29.18,11.66-.1,11.95-.06c4,0,8,0,12,0l11.95,0h.23v15.7l0,15.48-.06,12.66v2.82l-.06,7.74-.07,7.73L463,545.3l-.06-7.74V534.8l-.06-12.72,0-15.48,0-7.74v-7.51l-11.72,0c-4,0-8,0-12,0l-11.95-.06-11.67-.1h0l-.1.07-.2.13-.17.11-1.2.76h47A1.18,1.18,0,0,1,462,493.4v65.45a1,1,0,0,1-.14.51l3.84-2.1v-67.2Zm-12.86.68h-5.69l-5.68,0-11.37-.07-5.68-.06-5.69-.07c1.9,0,3.79-.06,5.69-.08l5.68-.06,11.37-.07,5.68,0h17.28v.23l0,7.3,0,7.31c0,2.44,0,4.87-.06,7.31s-.05,4.87-.1,7.31c0-2.44-.06-4.88-.09-7.31s0-4.87-.06-7.31l-.05-7.31,0-7.07Z"/><path class="cls-10" d="M461.5,558.84V535.1c-.95.19-1.91.36-2.87.5v22H416.8v-35.9c-1-1.1-2-2.24-2.93-3.4v41.61H460.6A1,1,0,0,0,461.5,558.84Z"/><path class="cls-10" d="M431.45,540.07l3.65,3.65h5.17l3.65-3.65V535.8a45.51,45.51,0,0,1-10.67-2.69l-1.8,1.8Zm6.24-5a2.46,2.46,0,1,1-2.46,2.46A2.46,2.46,0,0,1,437.69,535Z"/><polygon class="cls-10" points="428.87 537.49 430.51 539.13 430.51 535.85 428.87 537.49"/><polygon class="cls-10" points="437.69 546.3 439.32 544.67 436.05 544.67 437.69 546.3"/><path class="cls-10" d="M451.6,553.33a3.34,3.34,0,0,1,3.34-3.33,3.2,3.2,0,0,1,.83.11v-1.3a4.58,4.58,0,0,0-5.16,6.05H452A3.42,3.42,0,0,1,451.6,553.33Z"/><polygon class="cls-10" points="431.45 543.72 433.77 543.72 431.45 541.4 431.45 543.72"/><polygon class="cls-10" points="443.92 543.72 443.92 541.4 441.6 543.72 443.92 543.72"/><path class="cls-10" d="M425.09,553.36a4.58,4.58,0,0,0-5.43-4.52v1.29a3.32,3.32,0,0,1,4.17,3.23,3.29,3.29,0,0,1-.36,1.5h1.37A4.67,4.67,0,0,0,425.09,553.36Z"/><path class="cls-10" d="M446.5,537.49l-1.57-1.57h-.07v3.22Z"/><path class="cls-10" d="M437.69,539a1.51,1.51,0,1,0-1.52-1.51A1.52,1.52,0,0,0,437.69,539Z"/><path class="cls-10" d="M417.64,556.74h40.15v-21c-.39.06-.79.1-1.19.15v19.81H418.83V523.77c-.4-.4-.8-.8-1.19-1.21Z"/><path class="cls-10" d="M419.66,548.17a4.61,4.61,0,0,1,.84-.07,5.26,5.26,0,0,1,5.25,5.26,5.34,5.34,0,0,1-.22,1.5h24.38a5.2,5.2,0,0,1-.23-1.53,5.27,5.27,0,0,1,5.26-5.26,5.69,5.69,0,0,1,.83.07V536a54.34,54.34,0,0,1-9.37.1l1.43,1.43-3,3v4.21h-4.2l-3,3-3-3h-4.2v-4.21l-3-3,3-3V532a42,42,0,0,1-9.35-6c-.51-.45-1-.9-1.5-1.36Z"/><path class="cls-10" d="M431.45,532.37v1.21l.84-.85Z"/><path class="cls-1" d="M432.3,532.73l1.47-1.47h-2.32v1.11C431.73,532.5,432,532.61,432.3,532.73Z"/><path class="cls-1" d="M443.92,535.8v-.89l-3.65-3.65H435.1l-1.85,1.85A45.51,45.51,0,0,0,443.92,535.8Z"/><path class="cls-1" d="M437.13,519.09c-.42,0-.9.33-.9.69s.41.67,1.45.67a3.29,3.29,0,0,0,.66,0C438.09,519.57,437.67,519.09,437.13,519.09Z"/><path class="cls-1" d="M423.79,499a3.34,3.34,0,0,1-3.34,3.33,3.42,3.42,0,0,1-.79-.1v1.29a4.15,4.15,0,0,0,.79.07,4.6,4.6,0,0,0,4.6-4.59,4.31,4.31,0,0,0-.19-1.3h-1.33A3.5,3.5,0,0,1,423.79,499Z"/><path class="cls-1" d="M433.16,514.22a.71.71,0,0,0,.66-.38.85.85,0,0,0-.77-.58.5.5,0,0,0-.49.46A.53.53,0,0,0,433.16,514.22Z"/><path class="cls-1" d="M454.89,502.36a3.33,3.33,0,0,1-3.33-3.33,3.42,3.42,0,0,1,.27-1.32h-1.34a4.44,4.44,0,0,0-.19,1.32,4.6,4.6,0,0,0,4.59,4.6,4.24,4.24,0,0,0,.88-.09v-1.3A3.17,3.17,0,0,1,454.89,502.36Z"/><path class="cls-1" d="M444.86,535.85v.06h.07Z"/><path class="cls-1" d="M441.63,513.46c0-.33-.24-.72-.51-.72s-.43.17-.43.3.37.44.92.55A.51.51,0,0,0,441.63,513.46Z"/><polygon class="cls-1" points="441.6 531.26 443.92 533.58 443.92 531.26 441.6 531.26"/><polygon class="cls-1" points="436.05 530.32 439.32 530.32 437.69 528.67 436.05 530.32"/><path class="cls-1" d="M416.8,521.67V495h41.83v40.6c1-.14,1.92-.31,2.87-.5V493.64a1,1,0,0,0-1-.95H413.87v25.58Q415.28,520,416.8,521.67Z"/><path class="cls-1" d="M418.83,523.77V496.89H456.6v39l1.19-.15V495.83H417.64v26.73C418,523,418.43,523.37,418.83,523.77Z"/><path class="cls-1" d="M454.89,504.29a5.26,5.26,0,0,1-5.25-5.26,5.19,5.19,0,0,1,.17-1.32H425.55a5.58,5.58,0,0,1,.16,1.3,5.26,5.26,0,0,1-5.26,5.25,5.16,5.16,0,0,1-.79-.06v20.36c.49.46,1,.91,1.5,1.36a41.59,41.59,0,0,0,9.35,6v-1.63h4.2l3-3,3,3h4.2v4.21l1.54,1.54a53.36,53.36,0,0,0,9.37-.11V504.21A5.05,5.05,0,0,1,454.89,504.29Z"/><path class="cls-5" d="M458.63,495H416.8v26.67l.84.89V495.83h40.15v39.89l.84-.12Z"/><path class="cls-4" d="M457.79,535.72v21H417.64V522.56l-.84-.89v35.9h41.83v-22Z"/><path class="cls-4" d="M455.77,536v12.18a5.69,5.69,0,0,0-.83-.07,5.27,5.27,0,0,0-5.26,5.26,5.2,5.2,0,0,0,.23,1.53H425.53a5.34,5.34,0,0,0,.22-1.5,5.26,5.26,0,0,0-5.25-5.26,4.61,4.61,0,0,0-.84.07V524.56l-.83-.79v31.91H456.6V535.87Zm-5.43,17.37a4.58,4.58,0,0,1,5.43-4.52v1.3a3.2,3.2,0,0,0-.83-.11,3.34,3.34,0,0,0-3.34,3.33,3.42,3.42,0,0,0,.37,1.53h-1.36A4.56,4.56,0,0,1,450.34,553.33Zm-26.87,1.53a3.29,3.29,0,0,0,.36-1.5,3.32,3.32,0,0,0-4.17-3.23v-1.29a4.58,4.58,0,0,1,5.43,4.52,4.67,4.67,0,0,1-.25,1.5Z"/><path class="cls-5" d="M418.83,496.89v26.88l.83.79V504.2a5.16,5.16,0,0,0,.79.06,5.26,5.26,0,0,0,5.26-5.25,5.58,5.58,0,0,0-.16-1.3h24.26a5.19,5.19,0,0,0-.17,1.32,5.26,5.26,0,0,0,5.25,5.26,5.05,5.05,0,0,0,.88-.08V536l.83-.08v-39Zm6.22,2.12a4.6,4.6,0,0,1-4.6,4.59,4.15,4.15,0,0,1-.79-.07v-1.29a3.42,3.42,0,0,0,.79.1,3.34,3.34,0,0,0,3.34-3.33,3.5,3.5,0,0,0-.26-1.3h1.33A4.31,4.31,0,0,1,425.05,499Zm29.84,4.62a4.6,4.6,0,0,1-4.59-4.6,4.44,4.44,0,0,1,.19-1.32h1.34a3.42,3.42,0,0,0-.27,1.32,3.33,3.33,0,0,0,3.33,3.33,3.17,3.17,0,0,0,.88-.12v1.3A4.24,4.24,0,0,1,454.89,503.63Z"/><path class="cls-11" d="M415.4,491.21l.1-.07h0l11.67.1,11.95.06c4,0,8,0,12,0l11.72,0v7.51l0,7.74,0,15.48.06,12.72v2.76l.06,7.74.07,7.73.07-7.73.06-7.74v-2.82l.06-12.66,0-15.48V490.9h-.23l-11.95,0c-4,0-8,0-12,0L427.2,491l-11.66.1.29-.18,1.36-.88c-3.32.66-3.32,2.13-3.32,2.13l1.16-.74.17-.11Z"/><path class="cls-11" d="M464,497.81l.05,7.31c0,2.44,0,4.87.06,7.31s0,4.87.09,7.31c.05-2.44.07-4.88.1-7.31s0-4.87.06-7.31l0-7.31,0-7.3v-.23H447.14l-5.68,0-11.37.07-5.68.06c-1.9,0-3.79,0-5.69.08l5.69.07,5.68.06,11.37.07,5.68,0H464Z"/><path class="cls-5" d="M444.86,534.52v-4.21h-4.2l-3-3-3,3h-4.2v1.63l.94.43v-1.11h2.32l-1.47,1.47.95.39,1.85-1.86h5.17l3.65,3.65v.89l.94.12v-.07l.07.07,1.47.14Zm-8.81-4.21,1.64-1.63,1.64,1.63Zm5.55,1h2.32v2.32Z"/><path class="cls-4" d="M444.93,535.92l1.57,1.57-1.64,1.64v-3.21l-.94-.12v4.27l-3.65,3.65H435.1l-3.65-3.65v-5.16l1.8-1.79-1-.39-.84.85v-1.21l-.94-.42v2.57l-3,3,3,3v4.21h4.2l3,3,3-3h4.2v-4.21l3-3-1.43-1.43C445.91,536,445.42,536,444.93,535.92Zm-16.06,1.57,1.64-1.64v3.28Zm2.58,6.23v-2.31l2.32,2.31Zm6.24,2.59-1.64-1.64h3.28Zm6.23-2.59H441.6l2.32-2.31Z"/><path class="cls-4" d="M437.69,540a2.46,2.46,0,1,0-2.46-2.46A2.46,2.46,0,0,0,437.69,540Zm0-4a1.51,1.51,0,1,1-1.52,1.51A1.52,1.52,0,0,1,437.69,536Z"/><path class="cls-8" d="M420.54,654.12l.29-.18Z"/><path class="cls-8" d="M420.4,654.21l-.2.13Z"/><path class="cls-8" d="M420.5,654.14h0Z"/><path class="cls-8" d="M470.45,652.59h-49a6.89,6.89,0,0,0-4.19,2.62v.48h0v64.92a2.28,2.28,0,0,0,1.57,2.17V655.69h46.67a1,1,0,0,1,1,.95v65.2a1,1,0,0,1-.9,1H466a1,1,0,0,0,.89-.51,1,1,0,0,0,.14-.51V656.4a1.18,1.18,0,0,0-1.18-1.19h-47l1.2-.76-1.16.74s0-1.47,3.32-2.13h48.5v67.2h.5V653.33A.74.74,0,0,0,470.45,652.59Z"/><path class="cls-9" d="M470.69,653.06h-48.5l-1.36.88-.29.18,11.66-.1,11.95-.06c4,0,8,0,12,0l11.95,0h.23v15.7l0,15.48-.06,12.66v2.82l-.06,7.74-.07,7.73L468,708.3l-.06-7.74V697.8l-.06-12.72,0-15.48,0-7.74v-7.51l-11.72,0c-4,0-8,0-12,0l-11.95-.06-11.67-.1h0l-.1.07-.2.13-.17.11-1.2.76h47A1.18,1.18,0,0,1,467,656.4v65.45a1,1,0,0,1-.14.51l3.84-2.1v-67.2Zm-12.86.68h-5.69l-5.68,0-11.37-.07-5.68-.06-5.69-.07c1.9,0,3.79-.06,5.69-.08l5.68-.06,11.37-.07,5.68,0h17.28v.23l0,7.3,0,7.31c0,2.44,0,4.87-.06,7.31s-.05,4.87-.1,7.31c0-2.44-.06-4.88-.09-7.31s0-4.87-.06-7.31l-.05-7.31,0-7.07Z"/><path class="cls-10" d="M466.5,721.84V698.1c-.95.19-1.91.36-2.87.5v22H421.8v-35.9c-1-1.1-2-2.24-2.93-3.4v41.61H465.6A1,1,0,0,0,466.5,721.84Z"/><path class="cls-10" d="M436.45,703.07l3.65,3.65h5.17l3.65-3.65V698.8a45.51,45.51,0,0,1-10.67-2.69l-1.8,1.8Zm6.24-5a2.46,2.46,0,1,1-2.46,2.46A2.46,2.46,0,0,1,442.69,698Z"/><polygon class="cls-10" points="433.87 700.49 435.51 702.13 435.51 698.85 433.87 700.49"/><polygon class="cls-10" points="442.69 709.3 444.32 707.67 441.05 707.67 442.69 709.3"/><path class="cls-10" d="M456.6,716.33a3.34,3.34,0,0,1,3.34-3.33,3.2,3.2,0,0,1,.83.11v-1.3a4.58,4.58,0,0,0-5.16,6.05H457A3.42,3.42,0,0,1,456.6,716.33Z"/><polygon class="cls-10" points="436.45 706.72 438.77 706.72 436.45 704.4 436.45 706.72"/><polygon class="cls-10" points="448.92 706.72 448.92 704.4 446.6 706.72 448.92 706.72"/><path class="cls-10" d="M430.09,716.36a4.58,4.58,0,0,0-5.43-4.52v1.29a3.32,3.32,0,0,1,4.17,3.23,3.29,3.29,0,0,1-.36,1.5h1.37A4.67,4.67,0,0,0,430.09,716.36Z"/><path class="cls-10" d="M451.5,700.49l-1.57-1.57h-.07v3.22Z"/><path class="cls-10" d="M442.69,702a1.51,1.51,0,1,0-1.52-1.51A1.52,1.52,0,0,0,442.69,702Z"/><path class="cls-10" d="M422.64,719.74h40.15v-21c-.39.06-.79.1-1.19.15v19.81H423.83V686.77c-.4-.4-.8-.8-1.19-1.21Z"/><path class="cls-10" d="M424.66,711.17a4.61,4.61,0,0,1,.84-.07,5.26,5.26,0,0,1,5.25,5.26,5.34,5.34,0,0,1-.22,1.5h24.38a5.2,5.2,0,0,1-.23-1.53,5.27,5.27,0,0,1,5.26-5.26,5.69,5.69,0,0,1,.83.07V699a54.34,54.34,0,0,1-9.37.1l1.43,1.43-3,3v4.21h-4.2l-3,3-3-3h-4.2v-4.21l-3-3,3-3V695a42,42,0,0,1-9.35-6c-.51-.45-1-.9-1.5-1.36Z"/><path class="cls-10" d="M436.45,695.37v1.21l.84-.85Z"/><path class="cls-1" d="M437.3,695.73l1.47-1.47h-2.32v1.11C436.73,695.5,437,695.61,437.3,695.73Z"/><path class="cls-1" d="M448.92,698.8v-.89l-3.65-3.65H440.1l-1.85,1.85A45.51,45.51,0,0,0,448.92,698.8Z"/><path class="cls-1" d="M442.13,682.09c-.42,0-.9.33-.9.69s.41.67,1.45.67a3.29,3.29,0,0,0,.66,0C443.09,682.57,442.67,682.09,442.13,682.09Z"/><path class="cls-1" d="M428.79,662a3.34,3.34,0,0,1-3.34,3.33,3.42,3.42,0,0,1-.79-.1v1.29a4.15,4.15,0,0,0,.79.07,4.6,4.6,0,0,0,4.6-4.59,4.31,4.31,0,0,0-.19-1.3h-1.33A3.5,3.5,0,0,1,428.79,662Z"/><path class="cls-1" d="M438.16,677.22a.71.71,0,0,0,.66-.38.85.85,0,0,0-.77-.58.5.5,0,0,0-.49.46A.53.53,0,0,0,438.16,677.22Z"/><path class="cls-1" d="M459.89,665.36a3.33,3.33,0,0,1-3.33-3.33,3.42,3.42,0,0,1,.27-1.32h-1.34a4.44,4.44,0,0,0-.19,1.32,4.6,4.6,0,0,0,4.59,4.6,4.24,4.24,0,0,0,.88-.09v-1.3A3.17,3.17,0,0,1,459.89,665.36Z"/><path class="cls-1" d="M449.86,698.85v.06h.07Z"/><path class="cls-1" d="M446.63,676.46c0-.33-.24-.72-.51-.72s-.43.17-.43.3.37.44.92.55A.51.51,0,0,0,446.63,676.46Z"/><polygon class="cls-1" points="446.6 694.26 448.92 696.58 448.92 694.26 446.6 694.26"/><polygon class="cls-1" points="441.05 693.32 444.32 693.32 442.69 691.67 441.05 693.32"/><path class="cls-1" d="M421.8,684.67V658h41.83v40.6c1-.14,1.92-.31,2.87-.5V656.64a1,1,0,0,0-1-.95H418.87v25.58Q420.28,683,421.8,684.67Z"/><path class="cls-1" d="M423.83,686.77V659.89H461.6v39l1.19-.15V658.83H422.64v26.73C423,686,423.43,686.37,423.83,686.77Z"/><path class="cls-1" d="M459.89,667.29a5.26,5.26,0,0,1-5.25-5.26,5.19,5.19,0,0,1,.17-1.32H430.55a5.58,5.58,0,0,1,.16,1.3,5.26,5.26,0,0,1-5.26,5.25,5.16,5.16,0,0,1-.79-.06v20.36c.49.46,1,.91,1.5,1.36a41.59,41.59,0,0,0,9.35,6v-1.63h4.2l3-3,3,3h4.2v4.21l1.54,1.54a53.36,53.36,0,0,0,9.37-.11V667.21A5.05,5.05,0,0,1,459.89,667.29Z"/><path class="cls-5" d="M463.63,658H421.8v26.67l.84.89V658.83h40.15v39.89l.84-.12Z"/><path class="cls-4" d="M462.79,698.72v21H422.64V685.56l-.84-.89v35.9h41.83v-22Z"/><path class="cls-4" d="M460.77,699v12.18a5.69,5.69,0,0,0-.83-.07,5.27,5.27,0,0,0-5.26,5.26,5.2,5.2,0,0,0,.23,1.53H430.53a5.34,5.34,0,0,0,.22-1.5,5.26,5.26,0,0,0-5.25-5.26,4.61,4.61,0,0,0-.84.07V687.56l-.83-.79v31.91H461.6V698.87Zm-5.43,17.37a4.58,4.58,0,0,1,5.43-4.52v1.3a3.2,3.2,0,0,0-.83-.11,3.34,3.34,0,0,0-3.34,3.33,3.42,3.42,0,0,0,.37,1.53h-1.36A4.56,4.56,0,0,1,455.34,716.33Zm-26.87,1.53a3.29,3.29,0,0,0,.36-1.5,3.32,3.32,0,0,0-4.17-3.23v-1.29a4.58,4.58,0,0,1,5.43,4.52,4.67,4.67,0,0,1-.25,1.5Z"/><path class="cls-5" d="M423.83,659.89v26.88l.83.79V667.2a5.16,5.16,0,0,0,.79.06,5.26,5.26,0,0,0,5.26-5.25,5.58,5.58,0,0,0-.16-1.3h24.26a5.19,5.19,0,0,0-.17,1.32,5.26,5.26,0,0,0,5.25,5.26,5.05,5.05,0,0,0,.88-.08V699l.83-.08v-39Zm6.22,2.12a4.6,4.6,0,0,1-4.6,4.59,4.15,4.15,0,0,1-.79-.07v-1.29a3.42,3.42,0,0,0,.79.1,3.34,3.34,0,0,0,3.34-3.33,3.5,3.5,0,0,0-.26-1.3h1.33A4.31,4.31,0,0,1,430.05,662Zm29.84,4.62a4.6,4.6,0,0,1-4.59-4.6,4.44,4.44,0,0,1,.19-1.32h1.34a3.42,3.42,0,0,0-.27,1.32,3.33,3.33,0,0,0,3.33,3.33,3.17,3.17,0,0,0,.88-.12v1.3A4.24,4.24,0,0,1,459.89,666.63Z"/><path class="cls-11" d="M420.4,654.21l.1-.07h0l11.67.1,11.95.06c4,0,8,0,12,0l11.72,0v7.51l0,7.74,0,15.48.06,12.72v2.76l.06,7.74.07,7.73.07-7.73.06-7.74v-2.82l.06-12.66,0-15.48V653.9h-.23l-11.95,0c-4,0-8,0-12,0L432.2,654l-11.66.1.29-.18,1.36-.88c-3.32.66-3.32,2.13-3.32,2.13l1.16-.74.17-.11Z"/><path class="cls-11" d="M469,660.81l.05,7.31c0,2.44,0,4.87.06,7.31s0,4.87.09,7.31c.05-2.44.07-4.88.1-7.31s0-4.87.06-7.31l0-7.31,0-7.3v-.23H452.14l-5.68,0-11.37.07-5.68.06c-1.9,0-3.79,0-5.69.08l5.69.07,5.68.06,11.37.07,5.68,0H469Z"/><path class="cls-5" d="M449.86,697.52v-4.21h-4.2l-3-3-3,3h-4.2v1.63l.94.43v-1.11h2.32l-1.47,1.47.95.39,1.85-1.86h5.17l3.65,3.65v.89l.94.12v-.07l.07.07,1.47.14Zm-8.81-4.21,1.64-1.63,1.64,1.63Zm5.55,1h2.32v2.32Z"/><path class="cls-4" d="M449.93,698.92l1.57,1.57-1.64,1.64v-3.21l-.94-.12v4.27l-3.65,3.65H440.1l-3.65-3.65v-5.16l1.8-1.79-1-.39-.84.85v-1.21l-.94-.42v2.57l-3,3,3,3v4.21h4.2l3,3,3-3h4.2v-4.21l3-3-1.43-1.43C450.91,699,450.42,699,449.93,698.92Zm-16.06,1.57,1.64-1.64v3.28Zm2.58,6.23v-2.31l2.32,2.31Zm6.24,2.59-1.64-1.64h3.28Zm6.23-2.59H446.6l2.32-2.31Z"/><path class="cls-4" d="M442.69,703a2.46,2.46,0,1,0-2.46-2.46A2.46,2.46,0,0,0,442.69,703Zm0-4a1.51,1.51,0,1,1-1.52,1.51A1.52,1.52,0,0,1,442.69,699Z"/><path class="cls-8" d="M425.54,333.12l.29-.18Z"/><path class="cls-8" d="M425.4,333.21l-.2.13Z"/><path class="cls-8" d="M425.5,333.14h0Z"/><path class="cls-8" d="M475.45,331.59h-49a6.89,6.89,0,0,0-4.19,2.62v.48h0v64.92a2.28,2.28,0,0,0,1.57,2.17V334.69h46.67a1,1,0,0,1,1,.95v65.2a1,1,0,0,1-.9,1H471a1,1,0,0,0,.89-.51,1,1,0,0,0,.14-.51V335.4a1.18,1.18,0,0,0-1.18-1.19h-47l1.2-.76-1.16.74s0-1.47,3.32-2.13h48.5v67.2h.5V332.33A.74.74,0,0,0,475.45,331.59Z"/><path class="cls-9" d="M475.69,332.06h-48.5l-1.36.88-.29.18,11.66-.1,11.95-.06c4,0,8,0,12,0l11.95,0h.23v15.7l0,15.48-.06,12.66v2.82l-.06,7.74-.07,7.73L473,387.3l-.06-7.74V376.8l-.06-12.72,0-15.48,0-7.74v-7.51l-11.72,0c-4,0-8,0-12,0l-11.95-.06-11.67-.1h0l-.1.07-.2.13-.17.11-1.2.76h47A1.18,1.18,0,0,1,472,335.4v65.45a1,1,0,0,1-.14.51l3.84-2.1v-67.2Zm-12.86.68h-5.69l-5.68,0-11.37-.07-5.68-.06-5.69-.07c1.9,0,3.79-.06,5.69-.08l5.68-.06,11.37-.07,5.68,0h17.28v.23l0,7.3,0,7.31c0,2.44,0,4.87-.06,7.31s-.05,4.87-.1,7.31c0-2.44-.06-4.88-.09-7.31s0-4.87-.06-7.31l-.05-7.31,0-7.07Z"/><path class="cls-10" d="M471.5,400.84V377.1c-.95.19-1.91.36-2.87.5v22H426.8v-35.9c-1-1.1-2-2.24-2.93-3.4v41.61H470.6A1,1,0,0,0,471.5,400.84Z"/><path class="cls-10" d="M441.45,382.07l3.65,3.65h5.17l3.65-3.65V377.8a45.51,45.51,0,0,1-10.67-2.69l-1.8,1.8Zm6.24-5a2.46,2.46,0,1,1-2.46,2.46A2.46,2.46,0,0,1,447.69,377Z"/><polygon class="cls-10" points="438.87 379.49 440.51 381.13 440.51 377.85 438.87 379.49"/><polygon class="cls-10" points="447.69 388.31 449.32 386.67 446.05 386.67 447.69 388.31"/><path class="cls-10" d="M461.6,395.33a3.34,3.34,0,0,1,3.34-3.33,3.2,3.2,0,0,1,.83.11v-1.3a4.58,4.58,0,0,0-5.16,6.05H462A3.42,3.42,0,0,1,461.6,395.33Z"/><polygon class="cls-10" points="441.45 385.72 443.77 385.72 441.45 383.4 441.45 385.72"/><polygon class="cls-10" points="453.92 385.72 453.92 383.4 451.6 385.72 453.92 385.72"/><path class="cls-10" d="M435.09,395.36a4.58,4.58,0,0,0-5.43-4.52v1.29a3.32,3.32,0,0,1,4.17,3.23,3.29,3.29,0,0,1-.36,1.5h1.37A4.67,4.67,0,0,0,435.09,395.36Z"/><path class="cls-10" d="M456.5,379.49l-1.57-1.57h-.07v3.22Z"/><path class="cls-10" d="M447.69,381a1.51,1.51,0,1,0-1.52-1.51A1.52,1.52,0,0,0,447.69,381Z"/><path class="cls-10" d="M427.64,398.74h40.15v-21c-.39.06-.79.1-1.19.15v19.81H428.83V365.77c-.4-.4-.8-.8-1.19-1.21Z"/><path class="cls-10" d="M429.66,390.17a4.61,4.61,0,0,1,.84-.07,5.26,5.26,0,0,1,5.25,5.26,5.34,5.34,0,0,1-.22,1.5h24.38a5.2,5.2,0,0,1-.23-1.53,5.27,5.27,0,0,1,5.26-5.26,5.69,5.69,0,0,1,.83.07V378a54.34,54.34,0,0,1-9.37.1l1.43,1.43-3,3v4.21h-4.2l-3,3-3-3h-4.2v-4.21l-3-3,3-3V374a42,42,0,0,1-9.35-6c-.51-.45-1-.9-1.5-1.36Z"/><path class="cls-10" d="M441.45,374.37v1.21l.84-.85Z"/><path class="cls-1" d="M442.3,374.73l1.47-1.47h-2.32v1.11C441.73,374.5,442,374.61,442.3,374.73Z"/><path class="cls-1" d="M453.92,377.8v-.89l-3.65-3.65H445.1l-1.85,1.85A45.51,45.51,0,0,0,453.92,377.8Z"/><path class="cls-1" d="M447.13,361.09c-.42,0-.9.33-.9.69s.41.67,1.45.67a3.29,3.29,0,0,0,.66,0C448.09,361.57,447.67,361.09,447.13,361.09Z"/><path class="cls-1" d="M433.79,341a3.34,3.34,0,0,1-3.34,3.33,3.42,3.42,0,0,1-.79-.1v1.29a4.15,4.15,0,0,0,.79.07,4.6,4.6,0,0,0,4.6-4.59,4.31,4.31,0,0,0-.19-1.3h-1.33A3.5,3.5,0,0,1,433.79,341Z"/><path class="cls-1" d="M443.16,356.22a.71.71,0,0,0,.66-.38.85.85,0,0,0-.77-.58.5.5,0,0,0-.49.46A.53.53,0,0,0,443.16,356.22Z"/><path class="cls-1" d="M464.89,344.36a3.33,3.33,0,0,1-3.33-3.33,3.42,3.42,0,0,1,.27-1.32h-1.34a4.44,4.44,0,0,0-.19,1.32,4.6,4.6,0,0,0,4.59,4.6,4.24,4.24,0,0,0,.88-.09v-1.3A3.17,3.17,0,0,1,464.89,344.36Z"/><path class="cls-1" d="M454.86,377.85v.06h.07Z"/><path class="cls-1" d="M451.63,355.46c0-.33-.24-.72-.51-.72s-.43.17-.43.3.37.44.92.55A.51.51,0,0,0,451.63,355.46Z"/><polygon class="cls-1" points="451.6 373.26 453.92 375.57 453.92 373.26 451.6 373.26"/><polygon class="cls-1" points="446.05 372.31 449.32 372.31 447.69 370.68 446.05 372.31"/><path class="cls-1" d="M426.8,363.67V337h41.83v40.6c1-.14,1.92-.31,2.87-.5V335.64a1,1,0,0,0-1-.95H423.87v25.58Q425.28,362,426.8,363.67Z"/><path class="cls-1" d="M428.83,365.77V338.89H466.6v39l1.19-.15V337.83H427.64v26.73C428,365,428.43,365.37,428.83,365.77Z"/><path class="cls-1" d="M464.89,346.29a5.26,5.26,0,0,1-5.25-5.26,5.19,5.19,0,0,1,.17-1.32H435.55a5.58,5.58,0,0,1,.16,1.3,5.26,5.26,0,0,1-5.26,5.25,5.16,5.16,0,0,1-.79-.06v20.36c.49.46,1,.91,1.5,1.36a41.59,41.59,0,0,0,9.35,6v-1.63h4.2l3-3,3,3h4.2v4.21l1.54,1.54a53.36,53.36,0,0,0,9.37-.11V346.21A5.05,5.05,0,0,1,464.89,346.29Z"/><path class="cls-5" d="M468.63,337H426.8v26.67l.84.89V337.83h40.15v39.89l.84-.12Z"/><path class="cls-4" d="M467.79,377.72v21H427.64V364.56l-.84-.89v35.9h41.83v-22Z"/><path class="cls-4" d="M465.77,378v12.18a5.69,5.69,0,0,0-.83-.07,5.27,5.27,0,0,0-5.26,5.26,5.2,5.2,0,0,0,.23,1.53H435.53a5.34,5.34,0,0,0,.22-1.5,5.26,5.26,0,0,0-5.25-5.26,4.61,4.61,0,0,0-.84.07V366.56l-.83-.79v31.91H466.6V377.87Zm-5.43,17.37a4.58,4.58,0,0,1,5.43-4.52v1.3a3.2,3.2,0,0,0-.83-.11,3.34,3.34,0,0,0-3.34,3.33,3.42,3.42,0,0,0,.37,1.53h-1.36A4.56,4.56,0,0,1,460.34,395.33Zm-26.87,1.53a3.29,3.29,0,0,0,.36-1.5,3.32,3.32,0,0,0-4.17-3.23v-1.29a4.58,4.58,0,0,1,5.43,4.52,4.67,4.67,0,0,1-.25,1.5Z"/><path class="cls-5" d="M428.83,338.89v26.88l.83.79V346.2a5.16,5.16,0,0,0,.79.06,5.26,5.26,0,0,0,5.26-5.25,5.58,5.58,0,0,0-.16-1.3h24.26a5.19,5.19,0,0,0-.17,1.32,5.26,5.26,0,0,0,5.25,5.26,5.05,5.05,0,0,0,.88-.08V378l.83-.08v-39Zm6.22,2.12a4.6,4.6,0,0,1-4.6,4.59,4.15,4.15,0,0,1-.79-.07v-1.29a3.42,3.42,0,0,0,.79.1,3.34,3.34,0,0,0,3.34-3.33,3.5,3.5,0,0,0-.26-1.3h1.33A4.31,4.31,0,0,1,435.05,341Zm29.84,4.62a4.6,4.6,0,0,1-4.59-4.6,4.44,4.44,0,0,1,.19-1.32h1.34a3.42,3.42,0,0,0-.27,1.32,3.33,3.33,0,0,0,3.33,3.33,3.17,3.17,0,0,0,.88-.12v1.3A4.24,4.24,0,0,1,464.89,345.63Z"/><path class="cls-11" d="M425.4,333.21l.1-.07h0l11.67.1,11.95.06c4,0,8,0,12,0l11.72,0v7.51l0,7.74,0,15.48.06,12.72v2.76l.06,7.74.07,7.73.07-7.73.06-7.74v-2.82l.06-12.66,0-15.48V332.9h-.23l-11.95,0c-4,0-8,0-12,0L437.2,333l-11.66.1.29-.18,1.36-.88c-3.32.66-3.32,2.13-3.32,2.13l1.16-.74.17-.11Z"/><path class="cls-11" d="M474,339.81l.05,7.31c0,2.44,0,4.87.06,7.31s0,4.87.09,7.31c.05-2.44.07-4.88.1-7.31s0-4.87.06-7.31l0-7.31,0-7.3v-.23H457.14l-5.68,0-11.37.07-5.68.06c-1.9,0-3.79,0-5.69.08l5.69.07,5.68.06,11.37.07,5.68,0H474Z"/><path class="cls-5" d="M454.86,376.52v-4.21h-4.2l-3-3-3,3h-4.2v1.63l.94.43v-1.11h2.32l-1.47,1.47.95.39,1.85-1.86h5.17l3.65,3.65v.89l.94.12v-.07l.07.07,1.47.14Zm-8.81-4.21,1.64-1.63,1.64,1.63Zm5.55.95h2.32v2.32Z"/><path class="cls-4" d="M454.93,377.92l1.57,1.57-1.64,1.64v-3.21l-.94-.12v4.27l-3.65,3.65H445.1l-3.65-3.65v-5.16l1.8-1.79-1-.39-.84.85v-1.21l-.94-.42v2.57l-3,3,3,3v4.21h4.2l3,3,3-3h4.2v-4.21l3-3-1.43-1.43C455.91,378,455.42,378,454.93,377.92Zm-16.06,1.57,1.64-1.64v3.28Zm2.58,6.23v-2.31l2.32,2.31Zm6.24,2.59-1.64-1.64h3.28Zm6.23-2.59H451.6l2.32-2.31Z"/><path class="cls-4" d="M447.69,382a2.46,2.46,0,1,0-2.46-2.46A2.46,2.46,0,0,0,447.69,382Zm0-4a1.51,1.51,0,1,1-1.52,1.51A1.52,1.52,0,0,1,447.69,378Z"/><path class="cls-8" d="M425.54,807.12l.29-.18Z"/><path class="cls-8" d="M425.4,807.21l-.2.13Z"/><path class="cls-8" d="M425.5,807.14h0Z"/><path class="cls-8" d="M475.45,805.59h-49a6.89,6.89,0,0,0-4.19,2.62v.48h0v64.92a2.28,2.28,0,0,0,1.57,2.17V808.69h46.67a1,1,0,0,1,1,.95v65.2a1,1,0,0,1-.9,1H471a1,1,0,0,0,.89-.51,1,1,0,0,0,.14-.51V809.4a1.18,1.18,0,0,0-1.18-1.19h-47l1.2-.76-1.16.74s0-1.47,3.32-2.13h48.5v67.2h.5V806.33A.74.74,0,0,0,475.45,805.59Z"/><path class="cls-9" d="M475.69,806.06h-48.5l-1.36.88-.29.18,11.66-.1,11.95-.06c4,0,8,0,12,0l11.95,0h.23v15.7l0,15.48-.06,12.66v2.82l-.06,7.74-.07,7.73L473,861.3l-.06-7.74V850.8l-.06-12.72,0-15.48,0-7.74v-7.51l-11.72,0c-4,0-8,0-12,0l-11.95-.06-11.67-.1h0l-.1.07-.2.13-.17.11-1.2.76h47A1.18,1.18,0,0,1,472,809.4v65.45a1,1,0,0,1-.14.51l3.84-2.1v-67.2Zm-12.86.68h-5.69l-5.68,0-11.37-.07-5.68-.06-5.69-.07c1.9,0,3.79-.06,5.69-.08l5.68-.06,11.37-.07,5.68,0h17.28v.23l0,7.3,0,7.31c0,2.44,0,4.87-.06,7.31s-.05,4.87-.1,7.31c0-2.44-.06-4.88-.09-7.31s0-4.87-.06-7.31l-.05-7.31,0-7.07Z"/><path class="cls-10" d="M471.5,874.84V851.1c-.95.19-1.91.36-2.87.5v22H426.8v-35.9c-1-1.1-2-2.24-2.93-3.4v41.61H470.6A1,1,0,0,0,471.5,874.84Z"/><path class="cls-10" d="M441.45,856.07l3.65,3.65h5.17l3.65-3.65V851.8a45.51,45.51,0,0,1-10.67-2.69l-1.8,1.8Zm6.24-5a2.46,2.46,0,1,1-2.46,2.46A2.46,2.46,0,0,1,447.69,851Z"/><polygon class="cls-10" points="438.87 853.49 440.51 855.13 440.51 851.85 438.87 853.49"/><polygon class="cls-10" points="447.69 862.3 449.32 860.67 446.05 860.67 447.69 862.3"/><path class="cls-10" d="M461.6,869.33a3.34,3.34,0,0,1,3.34-3.33,3.2,3.2,0,0,1,.83.11v-1.3a4.58,4.58,0,0,0-5.16,6.05H462A3.42,3.42,0,0,1,461.6,869.33Z"/><polygon class="cls-10" points="441.45 859.72 443.77 859.72 441.45 857.4 441.45 859.72"/><polygon class="cls-10" points="453.92 859.72 453.92 857.4 451.6 859.72 453.92 859.72"/><path class="cls-10" d="M435.09,869.36a4.58,4.58,0,0,0-5.43-4.52v1.29a3.32,3.32,0,0,1,4.17,3.23,3.29,3.29,0,0,1-.36,1.5h1.37A4.67,4.67,0,0,0,435.09,869.36Z"/><path class="cls-10" d="M456.5,853.49l-1.57-1.57h-.07v3.22Z"/><path class="cls-10" d="M447.69,855a1.51,1.51,0,1,0-1.52-1.51A1.52,1.52,0,0,0,447.69,855Z"/><path class="cls-10" d="M427.64,872.74h40.15v-21c-.39.06-.79.1-1.19.15v19.81H428.83V839.77c-.4-.4-.8-.8-1.19-1.21Z"/><path class="cls-10" d="M429.66,864.17a4.61,4.61,0,0,1,.84-.07,5.26,5.26,0,0,1,5.25,5.26,5.34,5.34,0,0,1-.22,1.5h24.38a5.2,5.2,0,0,1-.23-1.53,5.27,5.27,0,0,1,5.26-5.26,5.69,5.69,0,0,1,.83.07V852a54.34,54.34,0,0,1-9.37.1l1.43,1.43-3,3v4.21h-4.2l-3,3-3-3h-4.2v-4.21l-3-3,3-3V848a42,42,0,0,1-9.35-6c-.51-.45-1-.9-1.5-1.36Z"/><path class="cls-10" d="M441.45,848.37v1.21l.84-.85Z"/><path class="cls-1" d="M442.3,848.73l1.47-1.47h-2.32v1.11C441.73,848.5,442,848.61,442.3,848.73Z"/><path class="cls-1" d="M453.92,851.8v-.89l-3.65-3.65H445.1l-1.85,1.85A45.51,45.51,0,0,0,453.92,851.8Z"/><path class="cls-1" d="M447.13,835.09c-.42,0-.9.33-.9.69s.41.67,1.45.67a3.29,3.29,0,0,0,.66,0C448.09,835.57,447.67,835.09,447.13,835.09Z"/><path class="cls-1" d="M433.79,815a3.34,3.34,0,0,1-3.34,3.33,3.42,3.42,0,0,1-.79-.1v1.29a4.15,4.15,0,0,0,.79.07,4.6,4.6,0,0,0,4.6-4.59,4.31,4.31,0,0,0-.19-1.3h-1.33A3.5,3.5,0,0,1,433.79,815Z"/><path class="cls-1" d="M443.16,830.22a.71.71,0,0,0,.66-.38.85.85,0,0,0-.77-.58.5.5,0,0,0-.49.46A.53.53,0,0,0,443.16,830.22Z"/><path class="cls-1" d="M464.89,818.36a3.33,3.33,0,0,1-3.33-3.33,3.42,3.42,0,0,1,.27-1.32h-1.34a4.44,4.44,0,0,0-.19,1.32,4.6,4.6,0,0,0,4.59,4.6,4.24,4.24,0,0,0,.88-.09v-1.3A3.17,3.17,0,0,1,464.89,818.36Z"/><path class="cls-1" d="M454.86,851.85v.06h.07Z"/><path class="cls-1" d="M451.63,829.46c0-.33-.24-.72-.51-.72s-.43.17-.43.3.37.44.92.55A.51.51,0,0,0,451.63,829.46Z"/><polygon class="cls-1" points="451.6 847.26 453.92 849.58 453.92 847.26 451.6 847.26"/><polygon class="cls-1" points="446.05 846.32 449.32 846.32 447.69 844.67 446.05 846.32"/><path class="cls-1" d="M426.8,837.67V811h41.83v40.6c1-.14,1.92-.31,2.87-.5V809.64a1,1,0,0,0-1-.95H423.87v25.58Q425.28,836,426.8,837.67Z"/><path class="cls-1" d="M428.83,839.77V812.89H466.6v39l1.19-.15V811.83H427.64v26.73C428,839,428.43,839.37,428.83,839.77Z"/><path class="cls-1" d="M464.89,820.29a5.26,5.26,0,0,1-5.25-5.26,5.19,5.19,0,0,1,.17-1.32H435.55a5.58,5.58,0,0,1,.16,1.3,5.26,5.26,0,0,1-5.26,5.25,5.16,5.16,0,0,1-.79-.06v20.36c.49.46,1,.91,1.5,1.36a41.59,41.59,0,0,0,9.35,6v-1.63h4.2l3-3,3,3h4.2v4.21l1.54,1.54a53.36,53.36,0,0,0,9.37-.11V820.21A5.05,5.05,0,0,1,464.89,820.29Z"/><path class="cls-5" d="M468.63,811H426.8v26.67l.84.89V811.83h40.15v39.89l.84-.12Z"/><path class="cls-4" d="M467.79,851.72v21H427.64V838.56l-.84-.89v35.9h41.83v-22Z"/><path class="cls-4" d="M465.77,852v12.18a5.69,5.69,0,0,0-.83-.07,5.27,5.27,0,0,0-5.26,5.26,5.2,5.2,0,0,0,.23,1.53H435.53a5.34,5.34,0,0,0,.22-1.5,5.26,5.26,0,0,0-5.25-5.26,4.61,4.61,0,0,0-.84.07V840.56l-.83-.79v31.91H466.6V851.87Zm-5.43,17.37a4.58,4.58,0,0,1,5.43-4.52v1.3a3.2,3.2,0,0,0-.83-.11,3.34,3.34,0,0,0-3.34,3.33,3.42,3.42,0,0,0,.37,1.53h-1.36A4.56,4.56,0,0,1,460.34,869.33Zm-26.87,1.53a3.29,3.29,0,0,0,.36-1.5,3.32,3.32,0,0,0-4.17-3.23v-1.29a4.58,4.58,0,0,1,5.43,4.52,4.67,4.67,0,0,1-.25,1.5Z"/><path class="cls-5" d="M428.83,812.89v26.88l.83.79V820.2a5.16,5.16,0,0,0,.79.06,5.26,5.26,0,0,0,5.26-5.25,5.58,5.58,0,0,0-.16-1.3h24.26a5.19,5.19,0,0,0-.17,1.32,5.26,5.26,0,0,0,5.25,5.26,5.05,5.05,0,0,0,.88-.08V852l.83-.08v-39Zm6.22,2.12a4.6,4.6,0,0,1-4.6,4.59,4.15,4.15,0,0,1-.79-.07v-1.29a3.42,3.42,0,0,0,.79.1,3.34,3.34,0,0,0,3.34-3.33,3.5,3.5,0,0,0-.26-1.3h1.33A4.31,4.31,0,0,1,435.05,815Zm29.84,4.62a4.6,4.6,0,0,1-4.59-4.6,4.44,4.44,0,0,1,.19-1.32h1.34a3.42,3.42,0,0,0-.27,1.32,3.33,3.33,0,0,0,3.33,3.33,3.17,3.17,0,0,0,.88-.12v1.3A4.24,4.24,0,0,1,464.89,819.63Z"/><path class="cls-11" d="M425.4,807.21l.1-.07h0l11.67.1,11.95.06c4,0,8,0,12,0l11.72,0v7.51l0,7.74,0,15.48.06,12.72v2.76l.06,7.74.07,7.73.07-7.73.06-7.74v-2.82l.06-12.66,0-15.48V806.9h-.23l-11.95,0c-4,0-8,0-12,0L437.2,807l-11.66.1.29-.18,1.36-.88c-3.32.66-3.32,2.13-3.32,2.13l1.16-.74.17-.11Z"/><path class="cls-11" d="M474,813.81l.05,7.31c0,2.44,0,4.87.06,7.31s0,4.87.09,7.31c.05-2.44.07-4.88.1-7.31s0-4.87.06-7.31l0-7.31,0-7.3v-.23H457.14l-5.68,0-11.37.07-5.68.06c-1.9,0-3.79,0-5.69.08l5.69.07,5.68.06,11.37.07,5.68,0H474Z"/><path class="cls-5" d="M454.86,850.52v-4.21h-4.2l-3-3-3,3h-4.2v1.63l.94.43v-1.11h2.32l-1.47,1.47.95.39,1.85-1.86h5.17l3.65,3.65v.89l.94.12v-.07l.07.07,1.47.14Zm-8.81-4.21,1.64-1.63,1.64,1.63Zm5.55,1h2.32v2.32Z"/><path class="cls-4" d="M454.93,851.92l1.57,1.57-1.64,1.64v-3.21l-.94-.12v4.27l-3.65,3.65H445.1l-3.65-3.65v-5.16l1.8-1.79-1-.39-.84.85v-1.21l-.94-.42v2.57l-3,3,3,3v4.21h4.2l3,3,3-3h4.2v-4.21l3-3-1.43-1.43C455.91,852,455.42,852,454.93,851.92Zm-16.06,1.57,1.64-1.64v3.28Zm2.58,6.23v-2.31l2.32,2.31Zm6.24,2.59-1.64-1.64h3.28Zm6.23-2.59H451.6l2.32-2.31Z"/><path class="cls-4" d="M447.69,856a2.46,2.46,0,1,0-2.46-2.46A2.46,2.46,0,0,0,447.69,856Zm0-4a1.51,1.51,0,1,1-1.52,1.51A1.52,1.52,0,0,1,447.69,852Z"/></g><path class="cls-1" d="M279.38,286.46l36.21-36.21L279.38,214V162.82H228.15L192,126.65l0,0-36.21,36.21H104.5V214L68.28,250.25l36.22,36.23v51.21h51.22l36.21,36.22,36.22-36.22h51.23ZM267.73,326H223.32l-11.64,11.65h0l-19.75,19.75-19.74-19.75L160.54,326H116.15v-44.4L104.5,270,84.76,250.25l19.74-19.74h0l11.65-11.65V174.47h44.39l11.65-11.65,19.74-19.74,19.75,19.74,11.64,11.65h44.41v44.39l11.65,11.65,19.74,19.74-31.39,31.39V326Z"/><path class="cls-12" d="M177.55,717.84s-31.48-7.2-40.47-12.15,28.91-62,6.32-103c-38.21-69.32-9.91-153.18,22.91-197.59S177.55,717.84,177.55,717.84Z"/><path class="cls-2" d="M182.4,562a6.51,6.51,0,0,0-6.57,4.64C170.24,585.4,152,658.88,157.2,804c3.56,98.38-16.71,151-25.83,169.51a6.52,6.52,0,0,0,4.8,9.31c18.77,3.1,64.08,9.71,111.44,10.09,0,0,68.4,1,109.17-9.76a6.51,6.51,0,0,0,4.55-8.15c-7.83-26.41-37.53-129.62-40.14-183.54-4.39-90.56-1.43-161.93-39.71-221.19C279.52,567.22,202.91,563.09,182.4,562Z"/><path class="cls-5" d="M206,584.93h14.09a40.39,40.39,0,0,1,40.39,40.39v22.54a8.45,8.45,0,0,1-8.45,8.45h-78a8.45,8.45,0,0,1-8.45-8.45V625.32A40.39,40.39,0,0,1,206,584.93Z" transform="translate(573.19 1169.17) rotate(165.67)"/><path class="cls-4" d="M202.9,585.12h17.34a35.48,35.48,0,0,1,35.48,35.48v16.27a7.43,7.43,0,0,1-7.43,7.43H174.85a7.43,7.43,0,0,1-7.43-7.43V620.6A35.48,35.48,0,0,1,202.9,585.12Z" transform="translate(568.74 1157.9) rotate(165.67)"/><path class="cls-13" d="M175.29,585.26a13.41,13.41,0,0,0,6.18,8.38,19.53,19.53,0,0,1,5.22,4.55c2.83,3.16,12.86,14.45,11.93,16-2.26,3.86-13.43-8.12-14.24-6.57-1.95,3.66,9.31,28.23,5.54,30.17-4,2.06-12-21-12-21S186,642.22,183.33,644c-2.86,1.88-6.82-10-9.21-18.39,1.51,6.48,2.95,14.86.84,16.77-1.77,1.61-4.58-7.59-6.55-15.26.8,4.35,2.86,13.38.85,12-2.84-1.88-8.65-22.91-9.51-33.21a90.93,90.93,0,0,0-3.6-18.93Z"/><path class="cls-13" d="M280.21,615.64a19.58,19.58,0,0,1,3.83-5.76,13.42,13.42,0,0,0,3.74-9.72l18.93-3.4A90.32,90.32,0,0,0,308.24,616c1.9,10.16,1.62,34.2-.62,36.77-1.37,1.56-1.74-5.93-2.11-10.19,0,6.84-.51,13.48-2.31,12.56-2.53-1.28-3.36-9.74-3.62-16.39-.08,8.77-.76,21.22-4,20.17-3-1-1.94-27.55-1.94-27.55s-1.63,24.31-6,23.39c-4.15-.88.2-27.55-2.64-30.57-1.2-1.27-8.79,13.23-12,10.1C271.63,633,278.32,619.44,280.21,615.64Z"/><path class="cls-2" d="M281.76,384.78A30.72,30.72,0,0,1,312,406c18.58,57.12,10,174.1,7.53,202.53a9.1,9.1,0,0,1-7.59,8.27c-17.1,2.62-35.25-8.1-35.25-8.1L250.9,572.23l-48.14,7.37c-13.09,15.14-34.49,17.33-45.14,17.4a9,9,0,0,1-8.61-6.06c-7.39-21.41-14.54-52.88-13.8-69.4,1.18-26.67,18.55-74.26,25.6-101.57a39.72,39.72,0,0,1,35.87-29.71Z"/><path class="cls-14" d="M268.8,323.34s-16-33-31.54-33S206,321.41,206,321.41Z"/><path class="cls-5" d="M249.92,580.24c9.07-14.28,43.27-142.54,44.72-148l-5.28-1.4c-12.22,45.91-37.15,135.61-44.05,146.47Z"/><path class="cls-12" d="M151.2,445.13c1.9-12.27,9.31-46.34,33.67-53.67,5.81-1.75,8.38-7.52,5.66-12.94-3.74-7.44-6.57-16.61-4.44-25.29,4.69-19.17,10.65-71.31,51.17-71.31s46.75,52.14,51.45,71.31c1.67,6.84.63,13.74-1.41,19.78a9.11,9.11,0,0,0,6.45,11.71c9.7,2.56,22.63,12.54,28.28,45.9a12,12,0,0,1-2.2,9.37c-8.76,11.36-21.49,62.59-124.8,9.56,0,0-17.51-8.34-36.45-2.55L159,447a14.56,14.56,0,0,0-6.24,4.71,23.63,23.63,0,0,0-3.52,8.5Z"/><path class="cls-1" d="M149,591.19h.08a.26.26,0,0,0,.16-.32c-7.25-21-14.55-52.44-13.8-69.31.82-18.4,5.21-32.54,10.29-48.92,1.57-5.08,3.2-10.33,4.79-15.93a14.42,14.42,0,0,1,10.56-10.13c17.58-4.11,33.67,3.13,33.83,3.2,39.52,20.29,70.39,27.56,91.76,21.62,17.84-5,25.24-17.7,30.13-26.13a50.43,50.43,0,0,1,3.22-5.12.25.25,0,0,0-.4-.31,54.17,54.17,0,0,0-3.25,5.18c-4.85,8.36-12.19,21-29.83,25.9-21.26,5.9-52-1.36-91.41-21.58-.17-.08-16.41-7.39-34.16-3.25a14.92,14.92,0,0,0-10.93,10.48c-1.59,5.6-3.22,10.85-4.79,15.92-5.09,16.41-9.48,30.58-10.31,49-.75,16.93,6.56,48.44,13.83,69.49A.25.25,0,0,0,149,591.19Z"/><path class="cls-14" d="M206,321.41s6.33-28.59,32.67-29.35c31.18-.9,30.13,31.28,30.13,31.28C267.41,324.34,206,321.41,206,321.41Z"/><path class="cls-13" d="M269.8,341.14c-1.29,18.06-20,36.41-33.1,36.41s-32-20.21-32-36.41c0-5.45,1.29-19.73,1.29-19.73.56-.73,18.07-6.1,37-6.1s25.3,7.28,25.81,8C268.8,323.34,270.07,337.44,269.8,341.14Z"/><path class="cls-4" d="M235.16,349.4l2.91-14.9c.09-.48.62-.48.71,0l2.91,14.9c.48,2.45-.41,3.83-3.25,3.83-2.55,0-4-.52-3.28-3.83Z"/><path class="cls-4" d="M231.05,360.38c0,.67,3,3.63,6.66,3.63s6.5-3,6.5-3.63-2.87,1.21-6.5,1.21S231.05,359.71,231.05,360.38Z"/><path class="cls-1" d="M216.5,426.77a.91.91,0,0,0,.43-.1c1.26-.69-.15-4.58-.44-5.35-2.1-6.27-6.89-12.83-11.53-19.17-4.29-5.88-8.35-11.43-10.48-16.81a.25.25,0,0,0-.32-.14.25.25,0,0,0-.14.33c2.14,5.43,6.41,11.27,10.54,16.92,4.61,6.31,9.38,12.84,11.46,19,.67,1.76,1.32,4.39.67,4.74s-3.34-.66-15.56-17.1C191,395.44,178.52,400,178.39,400a.25.25,0,0,0,.18.46c.12,0,12.22-4.43,22.16,8.95C211.7,424.19,215.14,426.77,216.5,426.77Z"/><path class="cls-1" d="M240.16,393.53a.26.26,0,0,0,.25-.22.26.26,0,0,0-.22-.28c-.3,0-30.07-3.68-35.24-32.84a.24.24,0,0,0-.29-.2.25.25,0,0,0-.2.29c5.23,29.53,35.37,33.22,35.67,33.25Z"/><path class="cls-1" d="M226.71,417.53h.06c21.85-5.32,32.47-22.22,37.52-35.47a92.15,92.15,0,0,0,5.8-27.7.26.26,0,0,0-.24-.26c-.15,0-.26.11-.26.25a91.73,91.73,0,0,1-5.77,27.55c-5,13.12-15.54,29.88-37.17,35.15a.25.25,0,0,0-.18.3A.24.24,0,0,0,226.71,417.53Z"/><path class="cls-1" d="M238.82,433.68c12.58,0,22.8-3.62,30.48-10.8,16.24-15.19,15.38-41.44,15.37-41.7a.25.25,0,0,0-.26-.24.24.24,0,0,0-.24.26c0,.26.86,26.28-15.21,41.32-9.1,8.5-21.84,12-37.89,10.23a.25.25,0,0,0-.27.22.25.25,0,0,0,.22.28A72.77,72.77,0,0,0,238.82,433.68Z"/><path class="cls-1" d="M190.75,587.92a.25.25,0,0,0,.24-.18c.62-2.16-.57-5.15-3.19-11.71-.89-2.22-1.89-4.72-3.05-7.75-3.63-9.53-3.7-53.66-3.72-72.51,0-5,0-8.35-.08-9.27-.29-4.4,3.77-17.47,3.81-17.6a.26.26,0,0,0-.17-.32.25.25,0,0,0-.31.17c-.17.54-4.13,13.29-3.83,17.78.06.9.07,4.4.08,9.24,0,18.87.09,63.08,3.76,72.69,1.15,3,2.16,5.54,3,7.75,2.5,6.26,3.76,9.4,3.18,11.39a.25.25,0,0,0,.17.31Z"/><path class="cls-1" d="M280.7,611a.27.27,0,0,0,.23-.14.27.27,0,0,0-.12-.34c-15.31-7.14,9.64-114.41,11.43-119.08,1.27-3.32.06-12.62,0-13a.25.25,0,1,0-.5.06c0,.1,1.24,9.57,0,12.77-.61,1.59-7.38,29.38-12.08,58.21-6.14,37.67-5.84,58.36.9,61.51Z"/><path class="cls-1" d="M258.75,452.6c15.62,0,26.89-7.64,34.19-15.13a75.78,75.78,0,0,0,15.33-23.76.28.28,0,0,0-.15-.33.27.27,0,0,0-.33.15,74.74,74.74,0,0,1-15.22,23.6c-9.62,9.88-26.23,20-50.68,12.18-21.81-7-34.91-17.39-44.48-25-11.37-9-18.23-14.48-29.27-6.07a.25.25,0,0,0,0,.35.24.24,0,0,0,.35,0c10.73-8.16,17.1-3.11,28.66,6.08,9.6,7.62,22.74,18.06,44.63,25.07A55.76,55.76,0,0,0,258.75,452.6Z"/><path class="cls-1" d="M184.52,924.72a.25.25,0,0,0,.21-.12c30.5-46.87,46-108.64,53.7-152.2a649.48,649.48,0,0,0,9.43-84.14.24.24,0,0,0-.24-.26h0a.26.26,0,0,0-.25.24,649.37,649.37,0,0,1-9.42,84.08c-7.66,43.52-23.18,105.21-53.63,152a.26.26,0,0,0,.07.35A.37.37,0,0,0,184.52,924.72Z"/><path class="cls-1" d="M243.51,899.6a.26.26,0,0,0,.24-.16c19.91-51.07,16.57-130.41,16.53-131.2a.25.25,0,0,0-.5,0c0,.8,3.38,80-16.5,131a.25.25,0,0,0,.14.32Z"/><path class="cls-1" d="M202.22,550.18a.24.24,0,0,0,.12,0c24.83-13.57,39.56-56.48,39.71-56.92a.25.25,0,0,0-.48-.16c-.14.43-14.81,43.16-39.47,56.64a.26.26,0,0,0-.1.34A.27.27,0,0,0,202.22,550.18Z"/><path class="cls-1" d="M194.22,524.11a.28.28,0,0,0,.13,0c15.36-9,27.76-28.58,27.88-28.78a.25.25,0,0,0-.08-.34.26.26,0,0,0-.35.08c-.12.19-12.45,19.71-27.7,28.61a.25.25,0,0,0-.09.34A.24.24,0,0,0,194.22,524.11Z"/><path class="cls-1" d="M157.43,698.74a.25.25,0,0,0,.25-.24c0-.42,2.43-42.24,5.43-63.9a.25.25,0,0,0-.21-.28.24.24,0,0,0-.28.21c-3,21.68-5.42,63.52-5.44,64a.25.25,0,0,0,.23.26Z"/><path class="cls-15" d="M715,539.2l.46.69c1.15,1.74,1,3.67-.89,4.54-2.84,1.29-11.36.82-15,1.54-6.31,1.26-3.55,7.16,3.87,6.71,4.54-.28,14.49,2.83,23.1.83,7-1.62.48-13.84.48-13.84Z"/><path class="cls-15" d="M733,521.58a136.39,136.39,0,0,0-16.45,0,152.33,152.33,0,0,0-24.58,4.07l-13.49,12.26A2.93,2.93,0,0,0,680.8,543l25-4.82,20.32,15.46s9.6-2.24,12.48-8.24S733,521.58,733,521.58Z"/><path class="cls-1" d="M881.32,967.66a28,28,0,0,1-3.59,9.61c-3.41,5.36-95.12,8.22-91.24-5.26a6.48,6.48,0,0,1,.5-1.23c6.43-11.83,52.2-6.26,58.72-36.71l34.6,3.87S884,954.26,881.32,967.66Z"/><path class="cls-1" d="M969.41,969.05a27.87,27.87,0,0,1-3.43,8.61c-3.41,5.35-66.66,24.27-78.45,9.3a4.26,4.26,0,0,1-.5-.78c-5.32-10.63,52.69-19.35,45.4-50.54l36.78,2.21S972.67,955.35,969.41,969.05Z"/><path class="cls-4" d="M890.14,547,859.42,756.26,834.1,942.59s31,8.68,56.12,6.66l31-142.94,1.39,142.93s37.27,3.47,55.8-5.13c0,0,75.62-286,34.81-411.57Z"/><path class="cls-12" d="M883.18,559s84,7.9,137-21.06c0,0-26.19-221.82-63.56-234.6-24.78-8.48-52.95,1.33-52.95,1.33l-39.33,28.53s-25.3,27.23-34,72.14A750.39,750.39,0,0,1,810,485.76s-63.28,23.85-61.86,29.39c-9,2.23-16.74,5-16.74,5l5.33,29.51a173.49,173.49,0,0,1,18.1-3c9.49,6.16,55.61,1.67,82.95-5.91,20.49-5.68,29.09-15.93,38.81-38.72Z"/><path class="cls-15" d="M882.39,276.22s10.76,19,21.31,28.41c0,0-23.88,24.45-39.33,28.53l-7.15-5.85Z"/><polygon class="cls-12" points="868.78 331.48 870.84 322.45 898.12 292.57 907.68 303.86 872.27 336.39 860.41 341.01 858.74 331.21 862.41 329.42 868.78 331.48"/><path class="cls-15" d="M811.7,295.41c12.63,25.72,29.75,38.59,49.34,29s29.81-35.92,17.18-61.64-39.48-40.16-58.32-29.16C789.94,251.07,799.08,269.69,811.7,295.41Z"/><path class="cls-14" d="M875.91,274.82s3.51,24,.83,35.44-15.14,18.94-25.94,22.9c-15.15,5.56-38.67-30.93-36.13-32.18,0,0,8.33,12.65,13.44,14,3,.82,5.4-6.74,9.44-8.65,8.88-4.2,21.35-1.93,25.5-5.87,6.69-6.35,1.94-18.72,2.07-24.63a19,19,0,0,0-6.5-14.36,43.86,43.86,0,0,1-9-11.33c-2-3.68-25.79,20.59-50,20.62-13.16,0-15.43-23.32-4.22-25.36,8.51-1.55,7-11,15.83-17.93,4.31-3.41,8.15-15.63,27.52-13.89,12.88,1.16,25.88-5.84,30.12,7.68,11.57,36.9,22.44,58.13,12.26,57.91Z"/><path class="cls-15" d="M870.89,269.8c2.13,7.65,3.94,13.83,9.43,12.3s8.21-9,6.08-16.62-8.31-12.62-13.8-11.09S868.75,262.15,870.89,269.8Z"/><path class="cls-5" d="M833.24,304.26l-4.63-17.15c-.15-.55.41-.83.75-.36l10.73,14.14c1.77,2.33,1.54,4.23-1.44,5.69-2.68,1.32-4.44,1.5-5.41-2.32Z"/><path class="cls-15" d="M850.08,314.93a4.48,4.48,0,0,0-2.63-6.75,11.84,11.84,0,0,0-7.57.71,9,9,0,0,0-5.76,6.09A4.45,4.45,0,0,0,838,320.5C841.59,320.79,846.72,320.13,850.08,314.93Z"/><path class="cls-5" d="M836.14,315.42c.23.48,3.15.59,6-.81s4.55-3.78,4.32-4.26-2.31,1.14-5.16,2.54S835.9,315,836.14,315.42Z"/><path class="cls-15" d="M998.05,589.71a23.07,23.07,0,0,1-3-6.77c-1.94-7-7.83-20.56-11.41-27l4.66-5.43,26.07,18.41s-7.1,10.36-8.9,13.07S998.05,589.71,998.05,589.71Z"/><path class="cls-2" d="M1007.45,596c-.2,0-9.06-.12-12.64-13-3.08-11.07-11.54-27.27-11.62-27.43a.24.24,0,0,1,.1-.34.26.26,0,0,1,.34.1c.08.17,8.57,16.41,11.67,27.53,3.47,12.48,12,12.59,12.14,12.59h0a.26.26,0,0,1,.25.25.25.25,0,0,1-.25.25Z"/><path class="cls-2" d="M972.68,935.88h0a.24.24,0,0,1-.2-.29c.18-.91,18-91.64,34.8-179.4s4.64-176.77,4.52-177.66a.24.24,0,0,1,.21-.28.24.24,0,0,1,.28.21c.13.89,12.31,90-4.52,177.83s-34.62,178.49-34.8,179.4A.25.25,0,0,1,972.68,935.88Z"/><path class="cls-2" d="M933.47,788.49a.25.25,0,0,1-.24-.18.25.25,0,0,1,.18-.31c.07,0,7.66-2.12,12.2-8.17s8.21-11.29,8.25-11.35a.24.24,0,0,1,.34-.06.25.25,0,0,1,.07.35c0,.05-3.67,5.24-8.26,11.36s-12.4,8.33-12.48,8.36Z"/><path class="cls-2" d="M863.1,782.57a.24.24,0,0,1-.24-.17.25.25,0,0,1,.16-.31c5.06-1.6,14.94-5.1,16.13-6.88a.25.25,0,0,1,.34-.07.25.25,0,0,1,.07.35c-1.58,2.37-15.78,6.88-16.39,7.07Z"/><path class="cls-2" d="M884,941.28h0a.23.23,0,0,1-.2-.28l30.51-172.4a.25.25,0,1,1,.49.09L884.28,941.07A.26.26,0,0,1,884,941.28Z"/><path class="cls-2" d="M904.74,602.82l-.12,0a.26.26,0,0,1-.13-.24l1.31-35a.26.26,0,0,1,.26-.25.25.25,0,0,1,.24.26L905,602l4.29-3.43a17.89,17.89,0,0,0,6.64-12.51l1.44-18.52a.24.24,0,0,1,.27-.23.25.25,0,0,1,.23.27l-1.45,18.52A18.32,18.32,0,0,1,909.61,599l-4.72,3.77A.27.27,0,0,1,904.74,602.82Z"/><path class="cls-2" d="M921.55,794.6a.25.25,0,0,1-.25-.23c-.07-1.37-6.82-136.69-8.49-144.92s-4.09-18.72-4.12-18.82c-1.83-8.13-4.17-21.83-4.2-22a.25.25,0,0,1,.21-.29.23.23,0,0,1,.28.2c0,.14,2.37,13.82,4.2,21.94,0,.1,2.44,10.58,4.12,18.83s8.43,143.63,8.5,145a.24.24,0,0,1-.24.26Z"/><path class="cls-4" d="M969.41,969.05a27.87,27.87,0,0,1-3.43,8.61c-3.41,5.35-66.66,24.27-78.45,9.3a4.26,4.26,0,0,1-.5-.78c3.82,1.43,12,3.12,21.37,2.46,24-1.69,50.52-10.85,54.19-14.34A56.64,56.64,0,0,1,969.41,969.05Z"/><path class="cls-4" d="M881.32,967.66a28,28,0,0,1-3.59,9.61c-3.41,5.36-95.12,8.22-91.24-5.26a6.48,6.48,0,0,1,.5-1.23c3.47,2.37,12.4,6.39,33.15,6.39,29.42,0,44.91-2.94,49.55-4C872.78,972.38,878.1,969.5,881.32,967.66Z"/><path class="cls-14" d="M874.07,495a.25.25,0,0,1-.24-.18c-1-3.34-23.44-81.77-23.27-86.79a.27.27,0,0,1,.26-.24.25.25,0,0,1,.24.26c-.17,4.94,23,85.81,23.25,86.63a.25.25,0,0,1-.17.31Z"/><path class="cls-14" d="M888.33,337a.25.25,0,0,1-.16-.06L871,322.9l-2,8.64a.26.26,0,0,1-.3.19.25.25,0,0,1-.19-.3l2.06-9a.24.24,0,0,1,.4-.14l17.28,14.15,19.2-26.3a.25.25,0,1,1,.4.29l-19.35,26.52a.27.27,0,0,1-.17.1Z"/><path class="cls-14" d="M868.54,344.86a.25.25,0,0,1-.14,0l-7.44-5a.26.26,0,0,1-.07-.35.26.26,0,0,1,.35-.07L868,344l-5.83-14.44a.27.27,0,0,1,.05-.26.26.26,0,0,1,.26-.07l6.37,2.07a.25.25,0,0,1,.16.31.25.25,0,0,1-.32.16l-5.85-1.9,5.92,14.7a.25.25,0,0,1-.07.29A.3.3,0,0,1,868.54,344.86Z"/><path class="cls-14" d="M903.75,547.83a.24.24,0,0,1-.24-.22c-.26-1.8-25.17-180.11-25.74-191.86s-6.56-21.79-6.62-21.89a.25.25,0,0,1,.08-.34.26.26,0,0,1,.35.08c.06.1,6.12,10.33,6.69,22.13s25.48,190,25.73,191.81a.26.26,0,0,1-.21.29Z"/><path class="cls-14" d="M843.29,533.61a57,57,0,0,1-9.32-.79.25.25,0,0,1-.2-.29.26.26,0,0,1,.3-.2c.09,0,9.63,1.75,16.71,0a.25.25,0,0,1,.3.18.26.26,0,0,1-.18.31A32.79,32.79,0,0,1,843.29,533.61Z"/><path class="cls-12" d="M1014.38,571.51a127,127,0,0,0,10.52-17.37c14-1.79,18.3-49.1,19.27-71,1.54-34.92-52.2-168.18-81.28-175.73S954,394,954,394s40.3,57.69,44.92,72.43-12.18,84.51-12.18,84.51Z"/><path class="cls-14" d="M934.78,331h-.06a.24.24,0,0,1-.18-.3c5.78-22.47,22-23.44,22.11-23.44a.25.25,0,0,1,0,.5c-.15,0-16,1-21.65,23.06A.24.24,0,0,1,934.78,331Z"/><path class="cls-14" d="M943.87,310.5a.22.22,0,0,1-.13,0c-5.11-3.21-30.59-4-30.84-4a.24.24,0,0,1-.24-.25.27.27,0,0,1,.25-.25c1.06,0,25.87.83,31.1,4.11a.25.25,0,0,1-.14.46Z"/><path class="cls-14" d="M754.44,544.43a.24.24,0,0,1-.24-.17c-.85-2.76-5.71-26.69-5.92-27.7a.26.26,0,0,1,.2-.3.24.24,0,0,1,.29.2c.05.25,5.06,24.91,5.91,27.65a.25.25,0,0,1-.17.31Z"/><path class="cls-14" d="M987.51,547.81l-.11,0a.26.26,0,0,1-.12-.34l6.88-14.4c-4.53-2.69-1.31-26.74,2.4-51.2.74-4.89,1.33-8.76,1.58-11.1.42-3.82,3.46-6.59,5.91-8.81,2.16-2,3.87-3.52,3.14-5-.06-.13-.13-.15-.18-.16-.63-.11-2.25,1.49-3.68,2.9-2,1.94-4,4-5.32,3.72a1.18,1.18,0,0,1-.88-.71c-.1-.22,0-.43.94-1.83,1.13-1.72,3.23-4.92,2.79-6a.53.53,0,0,0-.4-.33c-.57-.14-1.65,1.66-2.45,3-1.07,1.78-1.76,2.86-2.44,2.88A.7.7,0,0,1,995,460c-13.49-20-52.18-81.41-57.54-102.64a.25.25,0,0,1,.18-.31.25.25,0,0,1,.3.18c5.35,21.17,44,82.54,57.47,102.49.08.12.14.12.16.12.44,0,1.36-1.53,2-2.64,1.1-1.84,2.06-3.42,3-3.19a1,1,0,0,1,.75.63c.49,1.25-1.14,3.89-2.84,6.49a15.91,15.91,0,0,0-.87,1.4.65.65,0,0,0,.47.37c1.06.18,3.18-1.91,4.89-3.59,2-2,3.28-3.17,4.12-3a.75.75,0,0,1,.54.43c.89,1.85-1,3.6-3.25,5.62-2.39,2.17-5.35,4.86-5.75,8.5-.26,2.35-.84,6.22-1.59,11.12-2.58,17-7.38,48.76-2.46,50.78a.32.32,0,0,1,.14.14.27.27,0,0,1,0,.2l-7,14.62A.24.24,0,0,1,987.51,547.81Z"/><path class="cls-14" d="M1020.21,550.73a.22.22,0,0,1-.11,0c-3.83-1.86-20.54-15.72-21.25-16.31a.25.25,0,0,1,0-.35.27.27,0,0,1,.36,0c.17.15,17.38,14.41,21.15,16.25a.25.25,0,0,1,.12.33A.27.27,0,0,1,1020.21,550.73Z"/><path class="cls-1" d="M207.56,896.49a95.27,95.27,0,0,0,32.05-11.08A111.16,111.16,0,1,1,212,708.85a95.37,95.37,0,1,0-4.47,187.64Zm99.77-112.21-38.23-6L263,740.05l-17.54,34.5-38.22-6,27.38,27.34-17.53,34.49,34.46-17.6L279,840.1l-6.09-38.22Z"/></svg>