<svg id="Illustration" xmlns="http://www.w3.org/2000/svg" viewBox="0 0 1080 1080"><defs><style>.cls-1{fill:#92e3a9;}.cls-2,.cls-4{fill:#fff;}.cls-2{opacity:0.7;}.cls-2,.cls-21,.cls-22{isolation:isolate;}.cls-3{fill:#1f733a;}.cls-5{fill:#d6f2df;}.cls-21,.cls-6{fill:#263238;}.cls-7{fill:#5ccd80;}.cls-8{fill:#33c060;}.cls-9{fill:#dbf4e3;}.cls-10{fill:#79d697;}.cls-11{fill:#56cb7b;}.cls-12{fill:#74d593;}.cls-13{fill:#333;}.cls-14{fill:#93bca0;}.cls-15{fill:#85daa0;}.cls-16{fill:#9de1b3;}.cls-17{fill:#6bd28b;}.cls-18{fill:#2c7b46;}.cls-19{opacity:0.62;}.cls-20{opacity:0.3;}.cls-21,.cls-22{opacity:0.1;}</style></defs><title>Image-3</title><g id="freepik--background-simple--inject-273"><path class="cls-1" d="M552.69,93.89S423.32,70.37,314.57,159.18,167.69,395.33,133.68,513.9s14.16,225.67,114.14,261.76,150-49.33,278-74,165.52-11.9,260.42-101.93,86.12-264.68-18.73-377.85S552.69,93.89,552.69,93.89Z"/><path class="cls-2" d="M552.69,93.89S423.32,70.37,314.57,159.18,167.69,395.33,133.68,513.9s14.16,225.67,114.14,261.76,150-49.33,278-74,165.52-11.9,260.42-101.93,86.12-264.68-18.73-377.85S552.69,93.89,552.69,93.89Z"/></g><g id="freepik--Device--inject-893"><path class="cls-3" d="M734.71,111.6H336.42A40.67,40.67,0,0,0,296,152.53V972.75a40.72,40.72,0,0,0,40.33,41.06H734.61a40.75,40.75,0,0,0,40.47-41V152.61A40.72,40.72,0,0,0,734.71,111.6Zm15.15,835.87c0,21.58-16.16,39-36.08,39H357.35c-20,0-36.15-17.47-36.15-39V183.74c0-44,16.14-46.12,36.15-46.12h71.38c4.15,0,7.54,4.71,7.54,10.56v2.52c0,13.69,7.5,13.69,16.78,13.69H618c9.42,0,16.71,0,16.71-13.74v-2.47c0-5.85,3.34-10.56,7.58-10.56h71.41c19.92,0,36.09,5.84,36.09,46.12Z"/><path class="cls-4" d="M558.05,147.33H513a2.78,2.78,0,0,1-2.78-2.78h0a2.77,2.77,0,0,1,2.78-2.78h45a2.78,2.78,0,0,1,2.78,2.78h0A2.79,2.79,0,0,1,558.05,147.33Z"/><path class="cls-4" d="M750,183.74V947.47c0,21.58-16.16,39-36.1,39H357.35c-20,0-36.15-17.47-36.15-39V183.74c0-44,16.16-46.12,36.15-46.12h71.38c4.15,0,7.54,4.71,7.54,10.56v2.52c0,13.69,7.5,13.69,16.78,13.69H618c9.28,0,16.71,0,16.71-13.74v-2.47c0-5.85,3.34-10.56,7.56-10.56h71.41C733.72,137.62,750,143.46,750,183.74Z"/><polygon class="cls-5" points="364.58 234.72 351.9 222.86 364.58 210.98 366.54 213.08 356.12 222.86 366.54 232.62 364.58 234.72"/><path class="cls-5" d="M716.68,215.46a2.5,2.5,0,1,1-2.5-2.5h0a2.48,2.48,0,0,1,2.5,2.45Z"/><path class="cls-5" d="M716.68,224.32a2.5,2.5,0,1,1-2.5-2.5h0a2.48,2.48,0,0,1,2.5,2.46Z"/><path class="cls-5" d="M716.68,233.18a2.5,2.5,0,1,1-2.5-2.49h0a2.46,2.46,0,0,1,2.5,2.45Z"/><path class="cls-5" d="M501.82,230.38a.87.87,0,0,1,1.2,0,5.13,5.13,0,0,0,3.16,1.27,3.43,3.43,0,0,0,2.05-.61,1.46,1.46,0,0,0,.7-1.18.89.89,0,0,0-.14-.52,1.53,1.53,0,0,0-.49-.49,6,6,0,0,0-2.36-.78h0a9.83,9.83,0,0,1-2.12-.66,3.33,3.33,0,0,1-1.53-1.27,2.47,2.47,0,0,1-.38-1.37,3.07,3.07,0,0,1,1.32-2.36,4.91,4.91,0,0,1,2.85-.87,6.58,6.58,0,0,1,3.61,1.32.85.85,0,0,1-.95,1.42,4.56,4.56,0,0,0-2.66-1.06,3.17,3.17,0,0,0-1.84.56,1.35,1.35,0,0,0-.63,1,.72.72,0,0,0,.11.47,1.63,1.63,0,0,0,.45.42,5.42,5.42,0,0,0,2.05.73h0a9.69,9.69,0,0,1,2.36.69,3.84,3.84,0,0,1,1.65,1.36,2.65,2.65,0,0,1,.4,1.42,3.24,3.24,0,0,1-1.41,2.57,5.18,5.18,0,0,1-3,.92,7.13,7.13,0,0,1-4.25-1.65.88.88,0,0,1-.25-1.21A.7.7,0,0,1,501.82,230.38Z"/><path class="cls-5" d="M513.29,222.53a.89.89,0,0,1,.9-.89h0a.94.94,0,0,1,.94.89v9.76a.94.94,0,0,1-.94.89.89.89,0,0,1-.9-.89h0Z"/><path class="cls-5" d="M517.7,227.27a6,6,0,0,1,6.06-6h0a6.12,6.12,0,0,1,3.77,1.27.93.93,0,0,1,.18,1.32v0a1,1,0,0,1-1.32.17,4.26,4.26,0,0,0-5.59.3,3.9,3.9,0,0,0-.21,5.5l.21.21a4.17,4.17,0,0,0,3,1.2,4.64,4.64,0,0,0,2.36-.61v-2.36h-2.36a.94.94,0,0,1-.94-.94.92.92,0,0,1,.92-.92h3.3a.91.91,0,0,1,1,.87v4h0a.72.72,0,0,1-.3.4A6.16,6.16,0,0,1,524,233a6,6,0,0,1-6.27-5.7Z"/><path class="cls-5" d="M533.44,232.29a.9.9,0,0,1-1.79,0V222.7h0a.88.88,0,0,1,.36-.76.92.92,0,0,1,1.27.19l5.32,7.38v-6.79a.9.9,0,0,1,1.8,0v9.59a.9.9,0,0,1-.9.9h0a.85.85,0,0,1-.68-.33h0l-5.28-7.33Z"/><path class="cls-5" d="M554.09,233.18a4.72,4.72,0,0,1-4.72-4.71v-5.89a.89.89,0,0,1,.85-.9h0a.92.92,0,0,1,.92.9v5.89a2.95,2.95,0,1,0,5.89,0v-5.89a.9.9,0,0,1,.9-.9h0a.89.89,0,0,1,.9.85v5.94a4.73,4.73,0,0,1-4.72,4.72Z"/><path class="cls-5" d="M566.58,228.71h-2v3.58a.92.92,0,0,1-1.81,0v-9.76a.89.89,0,0,1,.89-.89h3a3.54,3.54,0,0,1,0,7.07Zm-2-1.84h2a1.7,1.7,0,0,0,0-3.4h-2Z"/><g id="freepik--u5Zjqx--inject-893"><path class="cls-5" d="M416.41,154.78l-.69.68-.4.38a9.42,9.42,0,0,0-13.29,0l-.38-.4-.68-.69h0l.87-.78a12.13,12.13,0,0,1,2-1.27,9.46,9.46,0,0,1,2.69-.89,3.26,3.26,0,0,0,1.32-.19H410a11.12,11.12,0,0,1,4,1.36,10.93,10.93,0,0,1,1.58,1.11l.73.66Z"/><path class="cls-5" d="M404.22,158l-1.1-1.08a7.88,7.88,0,0,1,11.12,0L413.13,158A6.32,6.32,0,0,0,404.22,158Z"/><path class="cls-5" d="M412.05,159.11,411,160.2a3.18,3.18,0,0,0-4.5-.08l-.07.08c-.35-.38-.73-.73-1.08-1.09A4.71,4.71,0,0,1,412,159Z"/><path class="cls-5" d="M409.67,161.16a1,1,0,0,1-1,1,1,1,0,0,1-1-1v0a1,1,0,0,1,1-1h0a1,1,0,0,1,1,.94Z"/></g><path class="cls-5" d="M349.15,156.85A2.85,2.85,0,1,1,352,159.7h0a2.82,2.82,0,0,1-2.82-2.83Z"/><path class="cls-5" d="M358.08,156.85a2.85,2.85,0,1,1,2.87,2.83h0A2.84,2.84,0,0,1,358.08,156.85Z"/><path class="cls-5" d="M367,156.85a2.86,2.86,0,1,1,2.88,2.83h0A2.86,2.86,0,0,1,367,156.85Z"/><path class="cls-5" d="M376,156.85a2.85,2.85,0,1,1,2.87,2.83h0A2.83,2.83,0,0,1,376,156.85Z"/><path class="cls-5" d="M385,156.85a2.85,2.85,0,1,1,2.87,2.83h-.05A2.83,2.83,0,0,1,385,156.85Z"/><path class="cls-5" d="M717.74,163.07H694.57V152.32h23.17Zm-21.94-1.2h20.74v-8.34H695.8Z"/><rect class="cls-5" x="696.51" y="154.16" width="14.92" height="7.07"/><rect class="cls-5" x="717.74" y="154.82" width="2.05" height="5.73"/><polygon class="cls-5" points="375.8 945.25 373.7 945.25 373.7 954.87 369.79 954.87 369.79 949.96 362.86 949.96 362.86 954.87 358.93 954.87 358.93 945.25 356.85 945.25 366.33 935.47 375.8 945.25"/><rect class="cls-5" x="692.29" y="935.47" width="22.84" height="3.25"/><rect class="cls-5" x="692.29" y="943.53" width="22.84" height="3.28"/><rect class="cls-5" x="692.29" y="951.61" width="22.84" height="3.28"/><polygon class="cls-5" points="542.71 945.51 536.2 952.44 529.72 945.51 530.85 944.42 536.2 950.13 541.55 944.42 542.71 945.51"/><path class="cls-5" d="M536.2,959.6A11.78,11.78,0,1,1,548,947.82,11.77,11.77,0,0,1,536.2,959.6Zm0-22a10.25,10.25,0,1,0,10.25,10.25v0a10.23,10.23,0,0,0-10.23-10.23Z"/><path class="cls-6" d="M400,447.88a4.57,4.57,0,0,1-4.57-4.57h0v-5.54a.9.9,0,0,1,1.77,0v5.64a2.83,2.83,0,0,0,5.63,0v-5.64a.87.87,0,0,1,.87-.87h0a.85.85,0,0,1,.85.85v5.66A4.58,4.58,0,0,1,400,447.88Z"/><path class="cls-6" d="M407.76,445.62a.8.8,0,0,1,1.12-.16l.06,0a3,3,0,0,0,1.74.69,2.05,2.05,0,0,0,1.08-.31c.22-.19.29-.33.29-.47a.33.33,0,0,0,0-.14s0-.12-.21-.21a3.87,3.87,0,0,0-1.28-.43h0a6.31,6.31,0,0,1-1.36-.42,2.71,2.71,0,0,1-1.09-.92,1.75,1.75,0,0,1-.28-1,2.39,2.39,0,0,1,.94-1.75,3.5,3.5,0,0,1,2-.59,4,4,0,0,1,2.35.88.89.89,0,0,1,.26,1.18.82.82,0,0,1-1.14.23l0,0a2.69,2.69,0,0,0-1.44-.59,1.59,1.59,0,0,0-1,.3.49.49,0,0,0-.23.36.13.13,0,0,0,0,.12l.16.16a3.17,3.17,0,0,0,1.16.38h0a5.48,5.48,0,0,1,1.46.45,2.52,2.52,0,0,1,1.13.94,2.08,2.08,0,0,1,.28,1,2.32,2.32,0,0,1-1,1.83,3.51,3.51,0,0,1-2.05.64,4.73,4.73,0,0,1-2.83-1.08A.87.87,0,0,1,407.76,445.62Z"/><path class="cls-6" d="M415.35,443.92a3.88,3.88,0,0,1,3.81-3.95h0a3.79,3.79,0,0,1,3.82,3.68h0v.14a.73.73,0,0,1-.8.64h-5a2,2,0,0,0,.54,1.06,2.41,2.41,0,0,0,1.51.71,2.59,2.59,0,0,0,1.65-.4.89.89,0,0,1,1.2,0,.74.74,0,0,1,0,1,4,4,0,0,1-2.85,1A3.91,3.91,0,0,1,415.35,443.92Zm1.72-.77h4.48a2.61,2.61,0,0,0-2.36-1.68,2.21,2.21,0,0,0-2.1,1.68Z"/><path class="cls-6" d="M430.1,440.81a.85.85,0,0,1-.85.83,1.51,1.51,0,0,0-.94.3,2.4,2.4,0,0,0-.73.76,5.57,5.57,0,0,0-.66,1.34v3a.85.85,0,0,1-.85.84h0a.85.85,0,0,1-.83-.84v-6.23a.83.83,0,0,1,.83-.82h0a.83.83,0,0,1,.87.77v.17a2.57,2.57,0,0,1,.33-.33,3.42,3.42,0,0,1,2-.61.82.82,0,0,1,.85.8Z"/><path class="cls-6" d="M438.75,443.26V447a.82.82,0,0,1-.8.84h0a.85.85,0,0,1-.85-.84h0v-3.78a1.63,1.63,0,0,0-1.65-1.6h0a1.58,1.58,0,0,0-1.58,1.58V447a.43.43,0,0,1,0,.16.89.89,0,0,1-.85.68.82.82,0,0,1-.82-.82v-6.25a.81.81,0,0,1,.8-.84h0a.86.86,0,0,1,.78.5,3.2,3.2,0,0,1,1.67-.5A3.31,3.31,0,0,1,438.75,443.26Z"/><path class="cls-6" d="M448.55,444V447a.81.81,0,0,1-.74.9.83.83,0,0,1-.91-.74h0a3.66,3.66,0,0,1-2.12.68,3.72,3.72,0,0,1-2.68-1.15A4.1,4.1,0,0,1,441,444a3.89,3.89,0,0,1,1.09-2.78,3.58,3.58,0,0,1,4.71-.5.83.83,0,1,1,1.65.17Zm-1.67,0a2.39,2.39,0,0,0-.61-1.63,2,2,0,0,0-1.49-.66,1.91,1.91,0,0,0-1.46.66,2.39,2.39,0,0,0-.61,1.63,2.35,2.35,0,0,0,.61,1.62,1.94,1.94,0,0,0,1.46.62,2,2,0,0,0,1.49-.62,2.35,2.35,0,0,0,.61-1.62Z"/><path class="cls-6" d="M458.26,443.24V447a.84.84,0,0,1-.82.84.86.86,0,0,1-.87-.84v-3.8a1.61,1.61,0,0,0-1.63-1.58h0a1.62,1.62,0,0,0-1.6,1.63v3.91h0a.92.92,0,0,1-.8.52h-.17a.86.86,0,0,1-.66-.83v-3.74h0v-2.36a.85.85,0,0,1,.83-.87h0a.81.81,0,0,1,.75.47,3.5,3.5,0,0,1,1.7-.47,3.29,3.29,0,0,1,2.5,1.11,3.19,3.19,0,0,1,2.35-1.11,3.31,3.31,0,0,1,3.3,3.32V447a.85.85,0,0,1-.85.85h0a.85.85,0,0,1-.85-.85h0v-3.75a1.63,1.63,0,0,0-1.6-1.63A1.66,1.66,0,0,0,458.26,443.24Z"/><path class="cls-6" d="M466.13,443.92a3.94,3.94,0,0,1,3.87-4,3.78,3.78,0,0,1,3.82,3.68h0v.14a.73.73,0,0,1-.8.64h-5a2,2,0,0,0,.55,1.06,2.38,2.38,0,0,0,1.5.71,2.66,2.66,0,0,0,1.65-.4.9.9,0,0,1,1.21,0,.76.76,0,0,1,0,1,4.08,4.08,0,0,1-2.86,1A4,4,0,0,1,466.13,443.92Zm1.75-.77h4.48a2.61,2.61,0,0,0-2.36-1.68,2.2,2.2,0,0,0-2.12,1.68Z"/><rect class="cls-5" x="392.77" y="459.95" width="285.54" height="33.91"/><path class="cls-6" d="M395.43,528.3v-9.43a.85.85,0,0,1,.83-.87h5.21a.87.87,0,0,1,.87.87.89.89,0,0,1-.87.89h-4.29v2.88h3.7a.89.89,0,0,1,.87.87.9.9,0,0,1-.87.9h-3.7v2.92h4.29a.9.9,0,0,1,0,1.77H396.3A.88.88,0,0,1,395.43,528.3Z"/><path class="cls-6" d="M411.25,524.52v3.8a.86.86,0,0,1-.83.85.87.87,0,0,1-.87-.85v-3.8a1.59,1.59,0,0,0-1.63-1.57h0a1.62,1.62,0,0,0-1.6,1.62v3.91h0a.92.92,0,0,1-.8.52h-.17a.84.84,0,0,1-.68-.82v-3.75h0v-2.36a.87.87,0,0,1,.85-.87.82.82,0,0,1,.75.47,3.74,3.74,0,0,1,1.7-.47,3.36,3.36,0,0,1,2.5,1.11,3.22,3.22,0,0,1,2.47-1.11,3.32,3.32,0,0,1,3.3,3.32v3.75a.85.85,0,1,1-1.69,0v-3.75a1.65,1.65,0,0,0-3.3,0Z"/><path class="cls-6" d="M426.38,525.23v3.09a.85.85,0,0,1-.85.85h0a.88.88,0,0,1-.83-.69,3.52,3.52,0,0,1-2.09.69,3.7,3.7,0,0,1-2.69-1.16,4.08,4.08,0,0,1-1.09-2.78,4,4,0,0,1,1.09-2.78,3.61,3.61,0,0,1,2.69-1.2,3.51,3.51,0,0,1,2.09.71.87.87,0,0,1,.83-.71.85.85,0,0,1,.85.85v3.13Zm-1.68,0a2.22,2.22,0,0,0-.63-1.62,2,2,0,0,0-2.93,0,2.25,2.25,0,0,0-.61,1.62,2.39,2.39,0,0,0,.61,1.63,2.06,2.06,0,0,0,2.93,0,2.32,2.32,0,0,0,.7-1.63Z"/><path class="cls-6" d="M431.21,519.27a.87.87,0,0,1-1.72.29.71.71,0,0,1,0-.29v-.33a.87.87,0,0,1,1.72,0Zm0,2.87v6.18a.88.88,0,0,1-1,.72.87.87,0,0,1-.71-.72v-6.18a.87.87,0,1,1,1.72-.28A1.31,1.31,0,0,1,431.21,522.14Z"/><path class="cls-6" d="M434.58,518.09a.9.9,0,0,1,.87.87v9.43a.89.89,0,0,1-.87.87.87.87,0,0,1-.87-.87V519A.87.87,0,0,1,434.58,518.09Z"/><rect class="cls-5" x="392.77" y="541.23" width="285.54" height="33.91"/><path class="cls-6" d="M399.13,606.14h-1.95v3.44a.87.87,0,0,1-.88.87.89.89,0,0,1-.87-.87v-9.43a.87.87,0,0,1,.87-.87h2.83a3.39,3.39,0,1,1,.57,6.76,2.71,2.71,0,0,1-.57,0Zm-1.95-1.75h1.95a1.63,1.63,0,1,0,0-3.25h-1.95Z"/><path class="cls-6" d="M411.18,606.52v3.11a.85.85,0,0,1-.85.82.87.87,0,0,1-.83-.68,3.58,3.58,0,0,1-2.1.68,3.68,3.68,0,0,1-2.68-1.15,4.1,4.1,0,0,1,0-5.57,3.54,3.54,0,0,1,4.71-.49.88.88,0,0,1,.83-.71.87.87,0,0,1,.84.88Zm-1.68,0a2.33,2.33,0,0,0-.63-1.63,2,2,0,0,0-2.8-.15l-.15.15a2.53,2.53,0,0,0,0,3.25,2.06,2.06,0,0,0,2.93,0h0a2.33,2.33,0,0,0,.63-1.62Z"/><path class="cls-6" d="M413.89,608.19A.8.8,0,0,1,415,608s0,0,.05.05a3,3,0,0,0,1.75.68,2,2,0,0,0,1.08-.3c.21-.19.29-.33.29-.47a.33.33,0,0,0,0-.14.41.41,0,0,0-.22-.19,3.08,3.08,0,0,0-1.25-.45h0a6.31,6.31,0,0,1-1.36-.42,2.39,2.39,0,0,1-1.11-.92,2.06,2.06,0,0,1-.26-1,2.37,2.37,0,0,1,.92-1.75,3.5,3.5,0,0,1,2-.59,4.11,4.11,0,0,1,2.35.87.87.87,0,0,1,.24,1.18.8.8,0,0,1-1.11.25l0,0a2.7,2.7,0,0,0-1.46-.57,1.43,1.43,0,0,0-.94.28.49.49,0,0,0-.26.36.21.21,0,0,0,0,.11.44.44,0,0,0,.19.17,3.12,3.12,0,0,0,1.15.38h0a5.61,5.61,0,0,1,1.46.44,2.41,2.41,0,0,1,1.14.95,2.09,2.09,0,0,1,.3,1,2.32,2.32,0,0,1-1,1.84,3.64,3.64,0,0,1-2.07.64,4.77,4.77,0,0,1-2.81-1.09A.84.84,0,0,1,413.89,608.19Z"/><path class="cls-6" d="M421.52,608.19a.8.8,0,0,1,1.12-.17l.06.05a2.92,2.92,0,0,0,1.74.68,2.08,2.08,0,0,0,1.09-.3c.21-.19.28-.33.28-.47a.33.33,0,0,0,0-.14.55.55,0,0,0-.21-.19,3.23,3.23,0,0,0-1.27-.45h0a6.57,6.57,0,0,1-1.39-.42,2.57,2.57,0,0,1-1.09-.92,1.75,1.75,0,0,1-.28-1,2.37,2.37,0,0,1,.94-1.75,3.5,3.5,0,0,1,2-.59,4,4,0,0,1,2.35.87.9.9,0,0,1,.26,1.18.82.82,0,0,1-1.14.24l0,0a2.67,2.67,0,0,0-1.44-.57,1.67,1.67,0,0,0-1,.28.49.49,0,0,0-.23.36.11.11,0,0,0,0,.11l.16.17a3.37,3.37,0,0,0,1.16.38h0a5.85,5.85,0,0,1,1.46.44,2.61,2.61,0,0,1,1.13.95,2.07,2.07,0,0,1,.28,1,2.35,2.35,0,0,1-1,1.84,3.58,3.58,0,0,1-2.05.64,4.67,4.67,0,0,1-2.83-1.09A.87.87,0,0,1,421.52,608.19Z"/><path class="cls-6" d="M439.62,603.81,437,610v.11h-.92V610l-1.16-2.76L433.82,610v.11H433a.22.22,0,0,1-.16,0h0V610l-2.59-6.15a.79.79,0,0,1-.78-1.06.75.75,0,0,1,1,.37l0,.1,1.89,4.26,1.11-2.66a.84.84,0,0,1,1.53,0l1.13,2.66,1.86-4.26a.78.78,0,0,1,1-.51l.08,0a.82.82,0,0,1,.53,1Z"/><path class="cls-6" d="M443.39,609.3a3.94,3.94,0,0,1-1.08-2.78,4.12,4.12,0,0,1,1.08-2.79,3.79,3.79,0,0,1,2.74-1.2,3.59,3.59,0,0,1,2.64,1.2,4.07,4.07,0,0,1,1.1,2.79,3.82,3.82,0,0,1-1.1,2.78,3.52,3.52,0,0,1-2.64,1.2A3.66,3.66,0,0,1,443.39,609.3Zm.64-2.78a2.67,2.67,0,0,0,.56,1.67,2.2,2.2,0,0,0,1.54.59,2,2,0,0,0,1.43-.59,2.47,2.47,0,0,0,0-3.32,2.14,2.14,0,0,0-1.43-.59,2.31,2.31,0,0,0-1.54.59A2.58,2.58,0,0,0,444,606.52Z"/><path class="cls-6" d="M457.11,603.38a.85.85,0,0,1-.83.85,1.64,1.64,0,0,0-1,.28,2.85,2.85,0,0,0-.73.78,4.14,4.14,0,0,0-.64,1.32v3a.87.87,0,0,1-1.72,0v-6.25a.87.87,0,0,1,1.72,0v.12a2.57,2.57,0,0,1,.33-.33,3.35,3.35,0,0,1,2-.61.83.83,0,0,1,.83.82Z"/><path class="cls-6" d="M466,609.6a.85.85,0,0,1-1.68.17,3.8,3.8,0,0,1-2.17.68,4,4,0,0,1,0-7.92,3.68,3.68,0,0,1,2.13.69v-3a.86.86,0,0,1,1-.71.87.87,0,0,1,.72.71v6.27h0Zm-3.85-5.32a2.07,2.07,0,0,0-1.48.63,2.4,2.4,0,0,0-.64,1.61,2.2,2.2,0,0,0,.64,1.55,2,2,0,0,0,1.48.66,1.94,1.94,0,0,0,1.49-.66,2.2,2.2,0,0,0,.64-1.55,2.4,2.4,0,0,0-.64-1.61A2,2,0,0,0,462.1,604.28Z"/><rect class="cls-5" x="392.77" y="622.52" width="285.54" height="33.91"/><path class="cls-6" d="M410,694.42a.3.3,0,0,1,.31-.3h0a.3.3,0,0,1,.33.28V703a.33.33,0,0,1-.33.33h0a.3.3,0,0,1-.31-.3v-8.63Z"/><path class="cls-6" d="M423.17,697.2V703a.31.31,0,1,1-.61,0h0v-.94a3.08,3.08,0,0,1-2.36,1.27,3.23,3.23,0,0,1,0-6.45,3,3,0,0,1,2.36,1.25v-.95a.3.3,0,0,1,.31-.3.31.31,0,0,1,.3.3Zm-.61,2.93a2.36,2.36,0,1,0-2.36,2.59,2.53,2.53,0,0,0,2.36-2.59Z"/><path class="cls-6" d="M432,702.84a3.06,3.06,0,0,1-3.06,3,3.25,3.25,0,0,1-1.34-.31.31.31,0,0,1-.12-.42.28.28,0,0,1,.36-.18l.06,0a2.36,2.36,0,0,0,3.4-2.12v-.8a2.88,2.88,0,0,1-2.36,1.27,3.21,3.21,0,1,1,0-6.41,3,3,0,0,1,2.36,1.25v-.94a.3.3,0,0,1,.29-.32.35.35,0,0,1,.22.08.31.31,0,0,1,.31.31h0Zm-.63-2.74a2.36,2.36,0,1,0-2.36,2.59A2.5,2.5,0,0,0,431.4,700.1Z"/><path class="cls-6" d="M435.07,697.23a.33.33,0,0,1,.33-.33h0a.3.3,0,0,1,.31.3v1.28a3.14,3.14,0,0,1,2.59-1.58.3.3,0,0,1,.31.3v0a.3.3,0,0,1-.31.3h0a2.38,2.38,0,0,0-1.88,1.06,5.42,5.42,0,0,0-.78,1.51h0v2.83a.3.3,0,0,1-.28.33h0a.33.33,0,0,1-.33-.33h0Z"/><path class="cls-6" d="M439.74,700.13a3.14,3.14,0,1,1,6.27-.24h0a.3.3,0,0,1-.33.28h-5.3a2.54,2.54,0,0,0,2.52,2.48,2.36,2.36,0,0,0,2.07-1.18.32.32,0,0,1,.43,0,.36.36,0,0,1,.11.45,3.11,3.11,0,0,1-2.61,1.46,3.21,3.21,0,0,1-3.16-3.25Zm.68-.52h4.9a2.47,2.47,0,0,0-4.9,0Z"/><path class="cls-6" d="M447.78,700.13a3.13,3.13,0,0,1,6.24-.24h0a.27.27,0,0,1-.28.28h-5.4a2.56,2.56,0,0,0,2.5,2.48,2.36,2.36,0,0,0,2.1-1.18.31.31,0,0,1,.42,0,.33.33,0,0,1,0,.45,3.11,3.11,0,0,1-2.61,1.46A3.18,3.18,0,0,1,447.78,700.13Zm.68-.52h4.88a2.44,2.44,0,1,0-4.88,0Z"/><path class="cls-6" d="M462.48,697.2a.32.32,0,0,1-.3.31h-.85v4.71a.53.53,0,0,0,.47.5.33.33,0,1,1,.17.63.25.25,0,0,1-.17,0,1.1,1.1,0,0,1-1.13-1.08v-4.76h-.8c-.31,0-.31-.14-.31-.31s0-.3.31-.3h.8v-2.36a.33.33,0,0,1,.33-.33.33.33,0,0,1,.33.33h0v2.36h.85A.32.32,0,0,1,462.48,697.2Z"/><path class="cls-6" d="M468.07,697a3.23,3.23,0,1,1-3.22,3.22A3.24,3.24,0,0,1,468.07,697Zm0,5.83a2.62,2.62,0,1,0-2.35-2.87,2.44,2.44,0,0,0,0,.27,2.53,2.53,0,0,0,2.36,2.48Z"/><path class="cls-6" d="M482.91,697.2V703a.3.3,0,0,1-.28.33h0a.33.33,0,0,1-.33-.33h0v-.94a3,3,0,0,1-2.36,1.27,3.23,3.23,0,0,1,0-6.45,3,3,0,0,1,2.36,1.25v-.95a.29.29,0,0,1,.3-.3h0A.29.29,0,0,1,482.91,697.2Zm-.63,2.93a2.36,2.36,0,1,0-2.36,2.59,2.53,2.53,0,0,0,2.36-2.59Z"/><path class="cls-6" d="M486.05,694.42a.32.32,0,0,1,.3-.31h0a.33.33,0,0,1,.33.3V703a.33.33,0,0,1-.33.33h0a.33.33,0,0,1-.33-.33h0Z"/><path class="cls-6" d="M489.21,694.42a.33.33,0,1,1,.66,0V703a.33.33,0,0,1-.33.33.32.32,0,0,1-.33-.33Z"/><path class="cls-6" d="M495.92,702a.31.31,0,0,1,.44,0h0a3.52,3.52,0,0,0,2,.76,2,2,0,0,0,1.23-.41.92.92,0,0,0,.32-1.26.86.86,0,0,0-.32-.31,3.17,3.17,0,0,0-1.39-.48h0a3.56,3.56,0,0,1-1.46-.49,1.37,1.37,0,0,1-.69-1.16,1.64,1.64,0,0,1,.69-1.27,2.81,2.81,0,0,1,1.57-.42,3.48,3.48,0,0,1,1.94.68.35.35,0,0,1,0,.45.32.32,0,0,1-.43,0,2.93,2.93,0,0,0-1.6-.64,2.08,2.08,0,0,0-1.23.36,1,1,0,0,0-.4.75.78.78,0,0,0,.38.64,3,3,0,0,0,1.32.44h0a4.34,4.34,0,0,1,1.56.55,1.58,1.58,0,0,1,.73,1.32,1.67,1.67,0,0,1-.73,1.29,2.67,2.67,0,0,1-1.61.52,4,4,0,0,1-2.35-.92A.31.31,0,0,1,495.92,702Z"/><path class="cls-6" d="M505.3,697.2a.32.32,0,0,1-.3.31h-.85v4.71a.53.53,0,0,0,.47.5.33.33,0,0,1,.41.23.33.33,0,0,1-.23.4.28.28,0,0,1-.18,0,1.1,1.1,0,0,1-1.13-1.08v-4.76h-.8c-.31,0-.31-.14-.31-.31s0-.3.31-.3h.8v-2.36a.33.33,0,1,1,.66,0h0v2.36h.75a.33.33,0,0,1,.4.25Z"/><path class="cls-6" d="M513.34,697.2V703a.3.3,0,0,1-.28.33h0a.33.33,0,0,1-.33-.33h0v-.94a3,3,0,0,1-2.35,1.27,3.23,3.23,0,0,1,0-6.45,2.94,2.94,0,0,1,2.35,1.25v-.95a.3.3,0,0,1,.31-.3h0A.3.3,0,0,1,513.34,697.2Zm-.64,2.93a2.36,2.36,0,1,0-2.35,2.59,2.52,2.52,0,0,0,2.35-2.59Z"/><path class="cls-6" d="M518.34,697.2a.33.33,0,0,1-.31.31h-.85v4.71a.52.52,0,0,0,.5.5.32.32,0,0,1,.4.23.32.32,0,0,1-.23.4.25.25,0,0,1-.17,0,1.07,1.07,0,0,1-1.13-1,.17.17,0,0,1,0-.1v-4.71h-.83c-.31,0-.31-.14-.31-.31s0-.3.31-.3h.83v-2.36a.33.33,0,0,1,.3-.33.35.35,0,0,1,.33.33v2.36H518A.33.33,0,0,1,518.34,697.2Z"/><path class="cls-6" d="M520.36,700.13a3.14,3.14,0,1,1,6.27-.24h0a.3.3,0,0,1-.33.28H521a2.55,2.55,0,0,0,2.52,2.48,2.37,2.37,0,0,0,2.08-1.18.31.31,0,0,1,.42,0,.33.33,0,0,1,0,.45,3.06,3.06,0,0,1-2.59,1.46A3.21,3.21,0,0,1,520.36,700.13Zm.69-.52H526a2.47,2.47,0,0,0-4.9,0Z"/><path class="cls-6" d="M538.11,699.54a2,2,0,1,0-4,0h0v3.56h0a.31.31,0,0,1-.16.16h-.38v-3.51a2,2,0,0,0-4-.44,1.62,1.62,0,0,0,0,.44v3.51a.3.3,0,0,1-.14.26h-.22a.42.42,0,0,1-.28-.24v-5.91a.33.33,0,0,1,.31-.31.31.31,0,0,1,.33.28V698a2.56,2.56,0,0,1,2-.92,2.63,2.63,0,0,1,2.35,1.37,2.77,2.77,0,0,1,2.36-1.37,2.62,2.62,0,0,1,2.62,2.62v3.53a.31.31,0,0,1-.31.31h0a.31.31,0,0,1-.31-.31h0Z"/><path class="cls-6" d="M540.94,700.13a3.13,3.13,0,0,1,6.24-.24h0a.27.27,0,0,1-.28.28h-5.33a2.56,2.56,0,0,0,2.5,2.48,2.36,2.36,0,0,0,2.1-1.18.31.31,0,0,1,.42,0,.33.33,0,0,1,0,.45,3.11,3.11,0,0,1-2.61,1.46A3.18,3.18,0,0,1,540.94,700.13Zm.68-.52h4.88a2.44,2.44,0,1,0-4.88,0Z"/><path class="cls-6" d="M554,699.54a2,2,0,0,0-1.95-2h0a2,2,0,0,0-2,2v3.7a.32.32,0,0,1-.24.11h0a.34.34,0,0,1-.21-.16h0V697.3a.38.38,0,0,1,.07-.29.31.31,0,0,1,.31.31V698a2.61,2.61,0,0,1,4.71,1.69v3.49a.3.3,0,0,1-.28.33h0a.33.33,0,0,1-.33-.33h0Z"/><path class="cls-6" d="M559.77,697.2a.33.33,0,0,1-.33.31h-.83v4.71a.53.53,0,0,0,.47.5.33.33,0,0,1,.41.23.32.32,0,0,1-.23.4.28.28,0,0,1-.18,0,1.11,1.11,0,0,1-1.13-1.08v-4.76h-.8c-.3,0-.3-.14-.3-.31s0-.3.3-.3h.8v-2.36a.33.33,0,1,1,.66,0h0v2.36h.83A.33.33,0,0,1,559.77,697.2Z"/><path class="cls-6" d="M562.34,702a.3.3,0,0,1,.43,0h0a3.52,3.52,0,0,0,2,.76,2,2,0,0,0,1.23-.41,1,1,0,0,0,.49-.77,1,1,0,0,0-.47-.8,3,3,0,0,0-1.36-.48h0a3.42,3.42,0,0,1-1.46-.49,1.32,1.32,0,0,1-.71-1.16,1.58,1.58,0,0,1,.71-1.27,2.81,2.81,0,0,1,1.57-.42,3.58,3.58,0,0,1,1.94.68.35.35,0,0,1,0,.45.32.32,0,0,1-.43,0,2.87,2.87,0,0,0-1.58-.64,1.92,1.92,0,0,0-1.22.36,1,1,0,0,0-.43.75.78.78,0,0,0,.38.64,3,3,0,0,0,1.32.44h0a4.44,4.44,0,0,1,1.58.55,1.56,1.56,0,0,1,.73,1.32,1.59,1.59,0,0,1-.75,1.29,2.61,2.61,0,0,1-1.61.52,3.92,3.92,0,0,1-2.35-.92.28.28,0,0,1,0-.4Z"/><path class="cls-6" d="M573.25,695.08a.3.3,0,0,1,.31-.3h0a.29.29,0,0,1,.32.28v.33a.33.33,0,0,1-.24.4.32.32,0,0,1-.4-.23.25.25,0,0,1,0-.17Zm0,2.12a.3.3,0,0,1,.31-.3h0a.29.29,0,0,1,.32.28V703a.33.33,0,0,1-.33.33h0a.3.3,0,0,1-.31-.3V697.2Z"/><path class="cls-6" d="M581.54,699.54a2,2,0,0,0-1.95-2h0a2,2,0,0,0-2,2v3.7a.3.3,0,0,1-.23.11h0a.36.36,0,0,1-.22-.16h0V697.3a.33.33,0,0,1,.33-.33h0a.3.3,0,0,1,.31.3v.64a2.58,2.58,0,0,1,2-.94,2.64,2.64,0,0,1,2.62,2.64v3.49a.3.3,0,0,1-.28.32h0a.33.33,0,0,1-.33-.33h0Z"/><path class="cls-6" d="M591.23,697.2a.33.33,0,0,1-.33.31h-.82v4.71a.53.53,0,0,0,.47.5.32.32,0,0,1,.4.23.32.32,0,0,1-.23.4.25.25,0,0,1-.17,0,1.1,1.1,0,0,1-1.13-1.08v-4.76h-.81c-.33,0-.33-.14-.33-.31s0-.3.33-.3h.81v-2.36a.34.34,0,0,1,.3-.33.36.36,0,0,1,.36.33v2.36h.82A.33.33,0,0,1,591.23,697.2Z"/><path class="cls-6" d="M593.26,700.13a3.13,3.13,0,0,1,6.24-.24h0a.27.27,0,0,1-.28.28h-5.33a2.51,2.51,0,0,0,2.5,2.48,2.37,2.37,0,0,0,2.08-1.18.37.37,0,0,1,.56.41l0,0a3.13,3.13,0,0,1-2.62,1.46,3.18,3.18,0,0,1-3.13-3.23Zm.66-.52h4.9a2.47,2.47,0,0,0-4.9,0Z"/><path class="cls-6" d="M601.53,697.23a.33.33,0,0,1,.33-.33h0a.3.3,0,0,1,.31.3v1.28a3.13,3.13,0,0,1,2.59-1.58.3.3,0,0,1,.31.3v0a.29.29,0,0,1-.3.3h0a2.4,2.4,0,0,0-1.89,1.06,5.67,5.67,0,0,0-.77,1.51h0v2.83a.31.31,0,0,1-.29.33h0a.33.33,0,0,1-.33-.33h0Z"/><path class="cls-6" d="M616.49,699.54a2,2,0,1,0-4-.44,3.23,3.23,0,0,0,0,.44v3.56h0a.31.31,0,0,1-.16.16H612v-3.51a2,2,0,0,0-4-.44,1.62,1.62,0,0,0,0,.44v3.51a.3.3,0,0,1-.14.26h-.21a.37.37,0,0,1-.26-.24v-5.91a.31.31,0,1,1,.61,0h0V698a2.61,2.61,0,0,1,2-.92,2.64,2.64,0,0,0,4.72,0,2.64,2.64,0,0,1,2.64,2.64v3.51a.31.31,0,0,1-.31.31h0a.31.31,0,0,1-.31-.31h0Z"/><path class="cls-6" d="M619.35,702a.3.3,0,0,1,.43,0h0a3.52,3.52,0,0,0,2,.76,2,2,0,0,0,1.23-.41,1,1,0,0,0,.49-.77,1,1,0,0,0-.47-.8,3,3,0,0,0-1.36-.48h0a3.51,3.51,0,0,1-1.47-.49,1.31,1.31,0,0,1-.7-1.16,1.59,1.59,0,0,1,.7-1.27,2.86,2.86,0,0,1,1.58-.42,3.46,3.46,0,0,1,1.91.68.3.3,0,0,1,0,.43l0,0a.31.31,0,0,1-.42,0,2.87,2.87,0,0,0-1.58-.64,1.93,1.93,0,0,0-1.23.36,1,1,0,0,0-.42.75.78.78,0,0,0,.38.64,3,3,0,0,0,1.32.44h0a4.51,4.51,0,0,1,1.58.55,1.55,1.55,0,0,1,0,2.61,2.56,2.56,0,0,1-1.6.52,3.94,3.94,0,0,1-2.36-.92.29.29,0,0,1,0-.4Z"/><path class="cls-6" d="M633,697a3.23,3.23,0,1,1-3.06,3.39v-.16A3.17,3.17,0,0,1,633,697Zm0,5.83a2.62,2.62,0,1,0-2.34-2.87,2.44,2.44,0,0,0,0,.27,2.52,2.52,0,0,0,2.35,2.48Z"/><path class="cls-6" d="M640.86,694.47a.3.3,0,0,1-.3.31h0c-.44,0-.68,0-.8.26a1.58,1.58,0,0,0-.26,1.06v.68h.9a.33.33,0,0,1,.33.33h0a.31.31,0,0,1-.31.31h-.92v5.63a.35.35,0,0,1-.33.33.33.33,0,0,1-.33-.33h0v-5.63H638a.31.31,0,0,1-.32-.29v0a.33.33,0,0,1,.33-.33h.85v-.68a2.31,2.31,0,0,1,.43-1.44,1.75,1.75,0,0,1,1.29-.45A.33.33,0,0,1,640.86,694.47Z"/><path class="cls-6" d="M646.31,702a.3.3,0,0,1,.43,0h0a3.53,3.53,0,0,0,2,.76,1.88,1.88,0,0,0,1.22-.41.89.89,0,0,0,.37-1.21.92.92,0,0,0-.37-.36,3,3,0,0,0-1.37-.48h0a3.52,3.52,0,0,1-1.46-.49,1.35,1.35,0,0,1-.7-1.16,1.62,1.62,0,0,1,.7-1.27,2.85,2.85,0,0,1,1.53-.38,3.68,3.68,0,0,1,1.94.69.32.32,0,0,1-.45.45,2.87,2.87,0,0,0-1.58-.64,2.08,2.08,0,0,0-1.23.35,1.06,1.06,0,0,0-.4.76.79.79,0,0,0,.36.63,3.1,3.1,0,0,0,1.32.45h0a4.49,4.49,0,0,1,1.58.54,1.61,1.61,0,0,1,.73,1.32,1.68,1.68,0,0,1-.73,1.3,2.75,2.75,0,0,1-1.63.52,3.94,3.94,0,0,1-2.36-.92.31.31,0,0,1,.07-.43Z"/><path class="cls-6" d="M652.77,700.13a3.13,3.13,0,0,1,6.24-.24h0a.28.28,0,0,1-.28.28h-5.35a2.56,2.56,0,0,0,2.5,2.48,2.34,2.34,0,0,0,2.09-1.18.32.32,0,0,1,.43,0,.35.35,0,0,1,0,.45,3.12,3.12,0,0,1-2.62,1.46A3.17,3.17,0,0,1,652.77,700.13Zm.66-.52h4.9a2.51,2.51,0,0,0-2.36-2.1,2.57,2.57,0,0,0-2.59,2.1Z"/><path class="cls-6" d="M661,697.23a.34.34,0,0,1,.35-.33.29.29,0,0,1,.28.32h0v1.41a.43.43,0,0,0,0-.16,3.16,3.16,0,0,1,2.6-1.58.3.3,0,0,1,.3.3v0a.3.3,0,0,1-.3.3h0a2.38,2.38,0,0,0-1.89,1.06,5.7,5.7,0,0,0-.78,1.51h0v2.83a.3.3,0,0,1-.28.33h0a.34.34,0,0,1-.35-.33Z"/><path class="cls-6" d="M668.84,703.31v-.14l-2.36-5.8a.31.31,0,0,1,.14-.4.33.33,0,0,1,.43.16l2.14,5.09,2.15-5.09a.27.27,0,0,1,.35-.18l0,0a.3.3,0,0,1,.16.4h0l-2.35,5.73a.43.43,0,0,1,0,.16.28.28,0,0,1-.22,0h-.19Z"/><path class="cls-6" d="M674.45,695.08a.31.31,0,0,1,.3-.31h0a.33.33,0,0,1,.33.3v.31a.36.36,0,0,1-.33.35.35.35,0,0,1-.33-.35Zm0,2.12a.29.29,0,0,1,.3-.3h0a.3.3,0,0,1,.33.28V703a.33.33,0,0,1-.33.33h0a.32.32,0,0,1-.33-.33h0Z"/><path class="cls-6" d="M677.68,700.1a3.24,3.24,0,0,1,3.29-3.2h0a3.3,3.3,0,0,1,2.07.7.3.3,0,0,1,0,.43.33.33,0,0,1-.42,0,2.64,2.64,0,0,0-3.27,4.15,2.72,2.72,0,0,0,1.6.56,2.8,2.8,0,0,0,1.67-.56.29.29,0,0,1,.42,0,.32.32,0,0,1,0,.46h0a3.3,3.3,0,0,1-2.05.68,3.27,3.27,0,0,1-3.34-3.2Z"/><path class="cls-6" d="M685,700.13a3.13,3.13,0,1,1,6.26-.24h0a.29.29,0,0,1-.32.28h-5.31a2.56,2.56,0,0,0,2.5,2.48,2.36,2.36,0,0,0,2.1-1.18.31.31,0,0,1,.42,0,.33.33,0,0,1,0,.45,3.11,3.11,0,0,1-2.61,1.46A3.2,3.2,0,0,1,685,700.13Zm.68-.52h4.9a2.47,2.47,0,0,0-4.9,0Z"/><path class="cls-5" d="M396.28,707.57H377.64V688.91H396.3ZM380,705.22h13.95v-14H380Z"/><path class="cls-7" d="M662.8,473.93a3.44,3.44,0,1,1-3.44-3.45h0a3.42,3.42,0,0,1,3.44,3.4A0,0,0,0,1,662.8,473.93Z"/><path class="cls-7" d="M665.3,483.35H653.38a6,6,0,0,1,11.9,0Z"/><path class="cls-7" d="M653.38,554.79l-2-1.63h15.91l-2,1.63c-.68.54-1.36,1.08-2,1.65L661,558.32h0l-1.68,1.41-1.67-1.41h0l-2.24-1.88Z"/><path class="cls-7" d="M667.31,553.25v10.09H651.4V553.25l1.93,1.82,2,1.77,2.05,1.81h-.12a13.18,13.18,0,0,0-1.29.8c-.55.33-1.06.69-1.61,1.06l-1.53,1.11c-.52.4-1,.78-1.51,1.2a18.47,18.47,0,0,0,1.65-1c.55-.35,1.06-.68,1.58-1.06s1.06-.73,1.56-1.11.82-.63,1.22-1h0l1.75,1.51h0l1.74-1.51h0c.4.36.8.66,1.2,1l1.56,1.11c.52.38,1.06.73,1.58,1.06s1.08.69,1.65,1c-.47-.42-1-.8-1.49-1.2l-1.55-1.11c-.52-.37-1-.73-1.58-1.06a15,15,0,0,0-1.32-.8h-.12l2.08-1.81,2-1.77Z"/><path class="cls-7" d="M659.34,635.57a11.66,11.66,0,0,0-7.94,3.94,10,10,0,0,0,14.08,1.83,10.23,10.23,0,0,0,1.83-1.83A11.68,11.68,0,0,0,659.34,635.57Zm0,6.72a2.81,2.81,0,1,1,2.81-2.8,2.8,2.8,0,0,1-2.81,2.8Z"/><path class="cls-7" d="M661.13,639.49a1.79,1.79,0,0,1-3.56.41,2.8,2.8,0,0,1,0-.41,1.79,1.79,0,0,1,3.56,0Z"/><circle class="cls-8" cx="596.3" cy="285.29" r="27.15"/><circle class="cls-5" cx="470.73" cy="385.88" r="19.04"/><path class="cls-3" d="M574.24,396.72A72.3,72.3,0,0,1,553,405.58a73.45,73.45,0,1,1,21.21-8.86Z"/><path class="cls-4" d="M558,325.8a22.32,22.32,0,1,1,0-.09Z"/><path class="cls-4" d="M574.24,387.5v9.22A72.3,72.3,0,0,1,553,405.58a73.09,73.09,0,0,1-56.09-8.88v-9.2a38.65,38.65,0,0,1,77.27-1.91c0,.64,0,1.28,0,1.91Z"/></g><path class="cls-9" d="M518.4,944.17a15.69,15.69,0,0,0,.55-3.4c-5.78-.8-11.65-1.38-17.3-1.71,5.76-.41,11.52.26,17.28-.2a15.66,15.66,0,0,0-.9-4.15c-3.77-.11-7.58-.06-11.22-.34a81.77,81.77,0,0,0,10.89-.49,18.86,18.86,0,0,0-1.19-2.38c-.16-.27-10,1.44-10.21,1.17s9.33-2.54,9.13-2.81c-.41-.59-.88-1.18-1.38-1.77-19.1,2.07-28.72,7.95-33.57,13.59,5,5.2,15,4.33,22.11,5.82a30.38,30.38,0,0,0,14.9-.81c.18-.4.35-.82.51-1.25-3-.64-6-1.06-8.84-1.69C512.38,943.35,515.27,944,518.4,944.17Z"/><path class="cls-5" d="M502.59,947.5c-7.07-1.49-17.1-.62-22.11-5.82a20,20,0,0,0-4.46,8.54,5.44,5.44,0,1,1-7.49,6.47c0,.21,0,.42,0,.64a5.68,5.68,0,0,0,0,.59,4.56,4.56,0,0,1,1.36,3.63,4.82,4.82,0,0,0,.35.44l.11,0a4.5,4.5,0,0,1,4.75,2.47c.17,0,.35,0,.53,0a7.12,7.12,0,0,0,6.46-10.16c9.32-6.33,32-2.45,32-2.45a18.31,18.31,0,0,0,3.44-5.17A30.38,30.38,0,0,1,502.59,947.5Z"/><path class="cls-9" d="M474.84,960.5A5.36,5.36,0,1,0,476,950.22l-.39,0a5.39,5.39,0,1,0-.79,10.31Z"/><path class="cls-3" d="M343.73,929.43a4.64,4.64,0,0,1-.29-1.93,4.53,4.53,0,0,0-4.79-.76l-.57.25a4.53,4.53,0,0,0,3.64,8.29l.56-.25a4.49,4.49,0,0,0,2.68-3.88A4.59,4.59,0,0,1,343.73,929.43Z"/><path class="cls-3" d="M383.29,915.73a4.57,4.57,0,0,0-3.19,2.55,4.52,4.52,0,0,0-4.41-2.35l-1.29.13a4.55,4.55,0,0,0-3.82,3.17,4.53,4.53,0,0,0-4.62-1.78l-1.25.28a4.53,4.53,0,0,0-3.43,3.52,4.53,4.53,0,0,0-4.73-1.32l-1.2.38a4.55,4.55,0,0,0-3.12,3.77,4.52,4.52,0,0,0-4.77-1l-1.17.46a4.52,4.52,0,0,0-2.85,3.94,4.35,4.35,0,0,0,1.52,3.65,4.53,4.53,0,0,0,4.64.83l1.11-.43a4.52,4.52,0,0,0,2.87-3.68,4.53,4.53,0,0,0,4.53,1.06l1.12-.36a4.52,4.52,0,0,0,3.1-3.43,4.51,4.51,0,0,0,4.39,1.41l1.13-.25a4.49,4.49,0,0,0,3.38-3.09,4.54,4.54,0,0,0,4.18,1.85l1.14-.12a4.51,4.51,0,0,0,3.69-2.63,4.53,4.53,0,0,0,3.76,2.37,7.39,7.39,0,0,1-.71-8.95Z"/><path class="cls-3" d="M405.51,965.08a4.54,4.54,0,0,0-4.59,1.13,4.52,4.52,0,0,0-3.72-3.73c-.45-.08-.92-.15-1.4-.2a4.51,4.51,0,0,0-4.6,2.45,4.51,4.51,0,0,0-4.52-2.45c-.43,0-.87.1-1.32.16a4.53,4.53,0,0,0-3.78,3.29,4.54,4.54,0,0,0-4.69-1.62l-1.24.33a4.53,4.53,0,0,0-3.27,3.49,4.53,4.53,0,0,0-4.52-1.38l-1.17.3a4.53,4.53,0,0,0-3.29,3.37A4.51,4.51,0,0,0,359,968.7l-1.17.25a4.52,4.52,0,0,0-3.41,3.2,4.52,4.52,0,0,0-4.33-1.73l-1.17.18a4.54,4.54,0,0,0-3.57,2.94,4.51,4.51,0,0,0-4.11-2l-1.15.07a4.53,4.53,0,0,0-3.78,2.45,4.53,4.53,0,0,0-3.65-2.54c-.36,0-.72-.07-1.07-.12a4.5,4.5,0,0,0-3.92,1.46,4.52,4.52,0,0,0-2.49-3.18q-.42-.2-.81-.42a4.51,4.51,0,0,0-3.82-.27,4.46,4.46,0,0,0-.17-3.77c-.07-.13-.13-.26-.19-.4a4.52,4.52,0,0,0-8.18,3.87c.11.24.23.48.35.71a4.52,4.52,0,0,0,4,2.44,4.65,4.65,0,0,0,1.59-.29,4.5,4.5,0,0,0,2,5.59c.44.25.9.49,1.37.71a4.52,4.52,0,0,0,5.3-1,4.52,4.52,0,0,0,3.87,3.58q.66.09,1.35.15a4.53,4.53,0,0,0,4.45-2.43,4.53,4.53,0,0,0,4.32,2.55l1.29-.09a4.51,4.51,0,0,0,3.94-3,4.53,4.53,0,0,0,4.48,2l1.25-.2a4.51,4.51,0,0,0,3.63-3.24,4.54,4.54,0,0,0,4.56,1.69l1.22-.27a4.53,4.53,0,0,0,3.44-3.4,4.52,4.52,0,0,0,4.59,1.49l1.2-.31a4.5,4.5,0,0,0,3.3-3.5,4.53,4.53,0,0,0,4.56,1.37l1.13-.3a4.51,4.51,0,0,0,3.25-3.19,4.52,4.52,0,0,0,4.17,1.72l1.1-.13a4.53,4.53,0,0,0,3.57-2.47,4.54,4.54,0,0,0,3.48,2.45l1,.14a4.48,4.48,0,0,0,4-1.28,4.53,4.53,0,0,0,2.58,3.38l1,.48.24.1c-.47-.87-.89-1.77-1.27-2.66A5.76,5.76,0,0,1,405.51,965.08Z"/><path class="cls-3" d="M470.35,962l-.11,0c-.14,0-.28,0-.41.09,0-.18,0-.35.06-.53a4.54,4.54,0,0,0-3-4.64c-.46-.17-.94-.32-1.43-.46a4.53,4.53,0,0,0-4.94,1.7,4.52,4.52,0,0,0-3.83-3.13l-1.17-.13a4.52,4.52,0,0,0-4.2,1.85,4.51,4.51,0,0,0-3.33-3l-1.07-.25a4.54,4.54,0,0,0-4.05,1,4.49,4.49,0,0,0-2.08-3.4c-.26-.17-.52-.34-.77-.53a4.55,4.55,0,0,0-4.11-.62,4.56,4.56,0,0,0-.92-4.32l-.8-.91a4.52,4.52,0,0,0-4.6-1.39,4.52,4.52,0,0,0-.94-4.77c-.28-.3-.58-.6-.88-.91a4.52,4.52,0,0,0-4.75-1.12,4.54,4.54,0,0,0-1.3-4.71l-.93-.83a4.54,4.54,0,0,0-4.86-.75,4.52,4.52,0,0,0-1.78-4.68l-1.09-.76a4.53,4.53,0,0,0-5.08,0,4.52,4.52,0,0,0-2.65-4.34q-.62-.29-1.23-.54a4.52,4.52,0,0,0-5,1,4.52,4.52,0,0,0-3.45-3.73l-1.3-.29a4.53,4.53,0,0,0-4.68,1.92,4.53,4.53,0,0,0-4-3l-1.31-.05a4.69,4.69,0,0,0-1.07.09,7.39,7.39,0,0,0,.71,8.95h.08l1.13.05a4.52,4.52,0,0,0,4-2,4.52,4.52,0,0,0,3.36,2.93l1.08.24a4.53,4.53,0,0,0,4.25-1.23,4.55,4.55,0,0,0,2.72,3.49l1,.44a4.52,4.52,0,0,0,4.41-.37,4.51,4.51,0,0,0,2,4l.91.63a4.5,4.5,0,0,0,4.48.45,4.55,4.55,0,0,0,1.41,4.39l.89.79a4.49,4.49,0,0,0,4.53.9,4.53,4.53,0,0,0,1.08,4.5l.81.85a4.51,4.51,0,0,0,4.48,1.24,4.49,4.49,0,0,0,.8,4.62l.81.93a4.53,4.53,0,0,0,4.86,1.31,4.52,4.52,0,0,0,1.66,5c.41.29.83.58,1.25.84a4.52,4.52,0,0,0,5.37-.39,4.52,4.52,0,0,0,3.41,4l1.3.31a4.53,4.53,0,0,0,4.65-1.77,4.54,4.54,0,0,0,3.79,3.12l1.26.14a4.52,4.52,0,0,0,4.16-1.86,4.51,4.51,0,0,0,3.05,3l.9.29a4.47,4.47,0,0,0,2.75.09,4.74,4.74,0,0,0,0,1.64v.05a2.22,2.22,0,0,1-2.71,3.49c-.24.2-.5.4-.77.59a4.53,4.53,0,0,0-1.88,3.75,4.52,4.52,0,0,0-4.24-.55l-1,.36a4.53,4.53,0,0,0-2.93,3.27,4.53,4.53,0,0,0-4.13-1.56c-.36.06-.73.11-1.1.15a4.53,4.53,0,0,0-3.57,2.64,4.52,4.52,0,0,0-3.79-2.33l-1.11-.06a4.54,4.54,0,0,0-4,2,4.53,4.53,0,0,0-3.41-3l-1.13-.23a4.5,4.5,0,0,0-4.3,1.39,4.51,4.51,0,0,0-3-3.4l-1.07-.39a4.53,4.53,0,0,0-4.44.76,4.53,4.53,0,0,0-2.46-3.82l-1-.54a4.52,4.52,0,0,0-4.73.32,4.52,4.52,0,0,0-2.53-4.18l-1.2-.58c-.18-.08-.35-.14-.53-.2a5.76,5.76,0,0,0-3.29,6.34c.38.89.8,1.79,1.27,2.66a4.52,4.52,0,0,0,4.38-.47,4.53,4.53,0,0,0,2.42,4.12l1.12.58a4.52,4.52,0,0,0,4.94-.53,4.52,4.52,0,0,0,3,4l1.23.45a4.54,4.54,0,0,0,4.84-1.24,4.53,4.53,0,0,0,3.5,3.55l1.27.26a4.52,4.52,0,0,0,4.61-1.89,4.54,4.54,0,0,0,4,3.06l1.33.06h.18a4.54,4.54,0,0,0,4.13-2.68,4.52,4.52,0,0,0,4.51,2.31l1.33-.19a4.52,4.52,0,0,0,3.74-3.46,4.51,4.51,0,0,0,4.93,1.36c.44-.15.87-.3,1.28-.46a4.52,4.52,0,0,0,2.92-4.31,4.53,4.53,0,0,0,5.29,0c.4-.29.8-.6,1.17-.9a9.25,9.25,0,0,1,6-9.68,8.83,8.83,0,0,0,0-.89,8.69,8.69,0,0,0-.11-1.45,4.41,4.41,0,0,0-.42-1.27A4.5,4.5,0,0,0,470.35,962Z"/><path class="cls-10" d="M281.33,982.39h-6.81A6.9,6.9,0,0,0,286,989.08L321.4,955.2c-2.56-1.25-5.15-2.4-7.76-3.43Z"/><path class="cls-8" d="M359,911.41a41.93,41.93,0,0,1-.29-9.31l-19.32,18.09,9.42,8.82,11.71-11.21A21.8,21.8,0,0,1,359,911.41Z"/><path class="cls-11" d="M455.69,819l-90,81.66c-1.56-.21-3.12-.44-4.68-.7l-2.29,2.14a41.93,41.93,0,0,0,.29,9.31,21.8,21.8,0,0,0,1.52,6.39l100.32-96a5.6,5.6,0,0,0-7.7-8.14l-1.52,1.42Z"/><path class="cls-11" d="M330.12,911.54l-10.29-.36,7,6.79-8.61-.28,3.07,3.08,3.79,3.63,14,.34a4.42,4.42,0,0,1,4.41,4.42s0,.06,0,.09l50.08,51.2-.84,4.21-4.56.06,4.56,4.36a6.9,6.9,0,1,0,9.49-10l-53.45-50-9.42-8.82Z"/><path class="cls-8" d="M343.51,929.16a4.42,4.42,0,0,0-4.41-4.42l4.4,4.51S343.51,929.19,343.51,929.16Z"/><polygon class="cls-7" points="172.86 933.62 118.08 982.39 227.62 982.39 177.33 933.57 172.86 933.62"/><path class="cls-7" d="M313.64,951.77c-11-4.34-22.23-6.68-31.93-6.64-15.22.06-22,4.61-24.19,10.71-.6,9.94,7.1,21.91,10,26.09l-.09.46h13.86Z"/><path class="cls-12" d="M210.23,917.1l-29.4-1s-9.31.42-11.75-9V906h.67L77.43,821.28l-15.9.24,107.55,99,26.06.65Z"/><path class="cls-3" d="M297.19,911s-4.4-.44-12.38-1.07L200,907l-.94.25-2-.16-1.56,5.12-4.65,1.22,127.4,4.22,8.61.28-7-6.79-23-.79Z"/><path class="cls-3" d="M173.91,905.94q-3.06-5.67-6.31-10.88L92,826.15,95.87,825a45.43,45.43,0,0,0-6.17-2.17l1.45-.95,12.64,4L92,821.26l1.54-1s61.78-1,108.13-2.21c.91-1.88,1.87-3.76,2.86-5.65L74.47,814.74,173.92,906Z"/><path class="cls-3" d="M169.08,906v1.12c2.44,9.46,11.75,9,11.75,9l29.4,1,111.1,3.67-3.07-3.08-127.4-4.22,4.65-1.22,1.56-5.12-3.86-.32L180,906.35v-.27l-6-.12h0L74.47,814.74l-1,3,3.92,3.59L169.75,906Z"/><path class="cls-3" d="M92,826.15l75.59,68.91C135.93,844.31,92,826.15,92,826.15Z"/><path class="cls-3" d="M95.87,825,92,826.15s43.92,18.16,75.59,68.91q3.24,5.21,6.31,10.88C144.28,849.88,109.7,830.7,95.87,825Z"/><path class="cls-13" d="M296.81,910.39l-12-.42c8,.63,12.38,1.07,12.38,1.07Z"/><path class="cls-5" d="M178.22,906H180c0-4.36.86-45.05,21.74-87.92-46.35,1.18-108.13,2.21-108.13,2.21S152.7,830.84,178.22,906Z"/><path class="cls-14" d="M333.38,892.21A79.66,79.66,0,0,1,310,877.13L200,907,284.81,910l12,.42,23,.79,10.29.36,7.31.25C333.11,907.24,332.13,900.36,333.38,892.21Z"/><path class="cls-14" d="M180,906h-1.74c-25.52-75.12-84.65-85.71-84.65-85.71l-1.54,1,11.76,4.61-12.64-4-1.45.95A45.43,45.43,0,0,1,95.87,825c13.83,5.74,48.41,24.92,78,81v0h0l6,.12v.27l13.25.46-10-.84s8.59-69.73,63.74-93.8H374.93c6-8.3,10.13-13.57,10.13-13.57l-169.86-4a189.64,189.64,0,0,0-10.64,17.78c-1,1.89-1.95,3.77-2.86,5.65C180.82,860.91,180,901.6,180,906Z"/><path class="cls-3" d="M183.25,906l10,.84,3.86.32,2,.16L200,907l110-29.91c-1.53-1.44-3-3-4.44-4.55-12.14-13.3-19.46-29-24.89-45.37l8.71-8.21H293l-1.47-2.92,107-.64,2-3.25H247C191.84,836.24,183.25,906,183.25,906Z"/><path class="cls-15" d="M361,900c1.56.26,3.12.49,4.68.7l90-81.65-162.07,1.24L293,819h-3.62l-8.71,8.21c5.43,16.42,12.75,32.07,24.89,45.37,1.43,1.6,2.91,3.11,4.44,4.55a79.66,79.66,0,0,0,23.39,15.08A117.77,117.77,0,0,0,361,900Z"/><polygon class="cls-16" points="292.99 819 293.62 820.25 455.69 819.01 451.6 815.12 398.47 815.44 291.51 816.08 292.99 819"/><polygon class="cls-15" points="232.76 982.34 173.42 924.74 168.24 924.74 177.33 933.57 227.62 982.39 231.92 986.56 266.72 986.15 267.47 982.39 267.56 981.93 232.76 982.34"/><path class="cls-15" d="M393.58,980.45l-36.52.43c-15.1-24.79-49.81-40.07-74.51-40-18.56.08-24.55,6.83-25,14.93,2.21-6.1,9-10.65,24.19-10.71,9.7,0,20.94,2.3,31.93,6.64,2.61,1,5.2,2.18,7.76,3.43,14.1,6.92,27.05,17.14,34.82,29.89l32-.37,4.56-.06Z"/><path class="cls-17" d="M267.56,981.93c-2.94-4.18-10.64-16.15-10-26.09.48-8.1,6.47-14.85,25-14.93,24.7-.1,59.41,15.18,74.51,40l36.52-.43-50.08-51.2-4.4-4.51-14-.34-130-3.22-26.06-.65,4.34,4.21,59.34,57.6Z"/><path class="cls-10" d="M305.55,872.58c-12.14-13.3-19.46-29-24.89-45.37L180,922.12l159.14,2.62,26.55-24.08C343.23,897.66,321.26,890.16,305.55,872.58Z"/><path class="cls-11" d="M112.93,979.05a6.9,6.9,0,1,0,9.49,10l40-38.22A44.17,44.17,0,0,0,149,945.24Z"/><path class="cls-8" d="M195.42,911.41a41.93,41.93,0,0,1-.29-9.31l-19.32,18.09,9.42,8.82,11.71-11.21A21.49,21.49,0,0,1,195.42,911.41Z"/><path class="cls-8" d="M149,945.24a44.17,44.17,0,0,1,13.35,5.62L175.81,938l-9.42-9Z"/><path class="cls-11" d="M195.42,911.41a21.49,21.49,0,0,0,1.52,6.39l100.32-96a5.61,5.61,0,0,0-7.71-8.14l-94.42,88.4A41.93,41.93,0,0,0,195.42,911.41Z"/><path class="cls-11" d="M62.06,813.7a5.6,5.6,0,0,0-7.7,8.14L166.39,929l9.42,9,53.38,51.06a6.9,6.9,0,1,0,9.49-10l-53.45-50-9.42-8.82ZM180,929.16a4.42,4.42,0,1,1-4.42-4.42A4.41,4.41,0,0,1,180,929.16Z"/><path class="cls-8" d="M171.13,929.16a4.42,4.42,0,1,0,4.41-4.42A4.4,4.4,0,0,0,171.13,929.16Zm7.09,0a2.68,2.68,0,1,1-2.68-2.68A2.68,2.68,0,0,1,178.22,929.16Z"/><circle class="cls-18" cx="175.54" cy="929.16" r="2.68"/><g class="cls-19"><g class="cls-20"><path class="cls-13" d="M305.13,901.48c-14-6.18-14.38-21.51-.87-34.25s35.81-18.05,49.8-11.87c5.93,2.61,9.41,6.87,10.44,11.88.64-8.33-3.66-15.67-12.85-19.73-16.79-7.41-43.55-1-59.77,14.26s-15.75,33.69,1,41.1c9.19,4.06,21.36,4,33.16.58C318.47,904.65,311.06,904.09,305.13,901.48Z"/></g><g class="cls-20"><polygon class="cls-13" points="348.27 878.98 353.22 885.91 340.98 886.5 331.44 894.41 330.65 885.86 319.81 883.82 331.56 877.94 334.39 868.77 342.45 873.69 355.05 870.07 348.27 878.98"/></g></g><g id="freepik--Plant--inject-893"><path class="cls-3" d="M876.55,840.39s46.21-10.48,71.53-33.81,39.48-65.15,39.48-65.15a399.51,399.51,0,0,0-51.83,13.51,87.81,87.81,0,0,0-15.67,22.16,104.69,104.69,0,0,1,0-15.84,69.19,69.19,0,0,0-16.46,10C882.46,789.88,876.55,840.39,876.55,840.39Z"/><path class="cls-5" d="M958.7,761.75c6.3-4.35,12.7-8.57,18.92-12.94a.37.37,0,0,0,.12-.5.36.36,0,0,0-.5-.13h0c-11.89,7.11-23.65,14.71-35.13,22.68-4,2.7-7.84,5.65-11.7,8.59l.81-1.35c1.38-2.32,2.86-4.59,4.32-6.89a95.38,95.38,0,0,1,9.81-13.08c.14-.16,0-.38-.24-.22-3.6,4.14-7.19,8.25-10.46,12.65-1.57,2.11-3,4.27-4.41,6.49-.7,1.13-1.4,2.29-2.08,3.48l-.67,1.19c-6,4.7-11.81,9.6-17.35,14.76-3.43,3.19-6.73,6.51-9.92,9.92,1.78-5.6,3.32-11.25,5.4-16.76,0-.19-.24-.27-.29,0-2,5.78-4.22,11.59-5.79,17.51a152.72,152.72,0,0,0-10.1,11.92l.16-.76c.54-2.16,1.08-4.35,1.65-6.51,1.13-4.16,2.35-8.32,3.78-12.43a72.25,72.25,0,0,1,12.4-23.43c.14-.16,0-.38-.24-.22a90,90,0,0,0-17.67,36.95c-.52,2-1,3.94-1.43,5.91-.22,1.06-.52,2.14-.68,3.22-1.41,1.86-2.7,3.78-4.08,5.73a200.52,200.52,0,0,0-19.57,38.35A452.7,452.7,0,0,0,849,912.06c0,.3.38.41.49,0,9-27,18.27-54.45,33.73-78.64a180,180,0,0,1,10.56-14.76,87.33,87.33,0,0,0,22.79-4.45,100.26,100.26,0,0,0,22.53-10.81,144.28,144.28,0,0,0,11.54-8.73.16.16,0,1,0-.21-.25h0a91.34,91.34,0,0,1-21.16,12.81,116.42,116.42,0,0,1-23.33,7.84c-3.4.73-6.86,1.3-10.32,1.76a195.51,195.51,0,0,1,13.51-15.11c1.57-1.54,3.17-3,4.79-4.54A106.56,106.56,0,0,1,931,787.4c7.56-3.68,15-7.54,22.51-11.35,4.24-2.17,8.43-4.35,12.7-6.44.16,0,0-.35-.16-.27-7.6,3.68-15.33,7.08-23,10.6-7.19,3.32-14.51,6.65-21.43,10.51l-.87.54c6.25-5.4,12.73-10.65,19.38-15.65Q949.21,768.26,958.7,761.75Z"/><path class="cls-6" d="M956.08,785.59c-3.76,1.64-7.59,3.1-11.32,4.83s-7.44,3.9-11.08,6c-.17,0,0,.32.16.24,3.67-1.75,7.4-3.4,11-5.24s7.43-3.89,11.27-5.57C956.35,785.8,956.27,785.51,956.08,785.59Z"/><path class="cls-3" d="M726.42,607.52a66,66,0,0,1,13.81,38.38c0,4.13-.51,9.91-1,16.7a109.55,109.55,0,0,1,30.16,25.78,54.41,54.41,0,0,0-30.45-7.3,89.16,89.16,0,0,0,1.75,13.81,51.88,51.88,0,0,1,19.6,3.87,44,44,0,0,0-17.68,3.51c8.24,26.21,32.73,53.13,100.34,64.56a141.75,141.75,0,0,0-12-95.13C810.71,631.84,726.42,607.52,726.42,607.52Z"/><path class="cls-5" d="M866.36,879.06c-1.16-11.18-2.71-22.37-4.38-33.48a665.47,665.47,0,0,0-13.51-66.18,261.14,261.14,0,0,0-9.76-30.16,44.45,44.45,0,0,0,.27-5.41v-6.48c0-4.33-.27-8.65-.62-13A155.14,155.14,0,0,0,834.2,699c-1.25-4.81-2.7-9.57-4.08-14.33a.16.16,0,0,0-.22-.08.3.3,0,0,0-.08.08,186.49,186.49,0,0,1,5,25.33,242.24,242.24,0,0,1,2.3,25.37v10a218.4,218.4,0,0,0-11.38-23.57,286.05,286.05,0,0,0-23.21-34.59,16,16,0,0,0-.57-3.76l-1-4.54c-.71-3.08-1.49-6.16-2.33-9.21-1.67-6.14-3.89-12.06-5.81-18.11,0-.19-.35,0-.29,0,1.78,6,3,12.19,4.35,18.3.67,3,1.32,6,2,9,.32,1.49.65,3,.94,4.51v.35c-2.7-3.46-5.4-6.86-8.38-10.21-12.91-15.14-27-29.11-41.32-43-1.75-1.7-3.54-3.35-5.4-5.05-.14-.14-.35,0-.22.24,13.51,14.21,27,28.56,39.73,43.62,3,3.56,6,7.19,8.89,10.81l-4.59-3.06c-3.95-2.56-7.92-5.08-12-7.37s-8.11-4.55-12.46-6.63-9-3.89-13.16-6.35c-.16,0-.32.22-.13.3A97.48,97.48,0,0,1,763.07,664c4.13,2.43,8.11,4.89,12.27,7.46s8,5,11.92,7.56c3.29,2.14,6.54,4.46,9.94,6.44a318.47,318.47,0,0,1,21.62,31.53A237.77,237.77,0,0,1,830,738.18l-2.44-1-6.18-2.7-12-5.22c-7.56-3.29-15.27-6.32-22.72-9.94a100.67,100.67,0,0,1-12.14-6.76c-.16,0-.3.16,0,.3,13.86,9.54,29.4,16.21,44.75,23.08l6.65,2.92c1.81.81,3.65,1.73,5.41,2.43a240.3,240.3,0,0,1,11.43,31.32A639.4,639.4,0,0,1,857.52,838c3.89,22.08,6.51,44.32,8.54,66.64.24,2.7.49,5.57.81,8.35a.88.88,0,0,0,1,.72.89.89,0,0,0,.73-.72C868.71,901.6,867.55,890.25,866.36,879.06Z"/><path class="cls-5" d="M825.23,692.27c-1.25-6.89-3.09-13.51-4.92-20.35,0-.19-.35,0-.3,0,1.7,6.59,2.92,13.32,4.16,20.05s2.38,13.68,3.35,20.57h.19A183.87,183.87,0,0,0,825.23,692.27Z"/><path class="cls-5" d="M796.09,710.89a122.48,122.48,0,0,0-14.7-8.27c-2.48-1.27-5-2.49-7.46-3.7s-5.4-2.27-7.81-3.57a.17.17,0,0,0-.16.3c2.49,1.21,4.84,2.7,7.27,4.05s5,2.7,7.49,4.11a163.57,163.57,0,0,0,15,7.76.4.4,0,0,0,.53-.15.38.38,0,0,0-.15-.53Z"/><path class="cls-21" d="M877.38,760.35s42.76-10.22,62.4-38.89c18.73-27.41,24.81-74.11,25.27-78.21-.75,3.75-9.59,44.59-38.7,63.59C904.06,721.4,882.52,733.37,877.38,760.35Z"/><path class="cls-6" d="M916.84,686.46a54.76,54.76,0,0,0-15.76,26h0a63.85,63.85,0,0,1,15.84-25.78C917.19,686.57,917,686.32,916.84,686.46Z"/><path class="cls-3" d="M877.38,760.35s42.76-10.22,62.4-38.89c18.73-27.41,24.81-74.11,25.27-78.21a1.5,1.5,0,0,0,0-.3s-20.48,29.16-42,36.59S871.19,712.7,877.38,760.35Z"/><path class="cls-5" d="M957.54,659a176.25,176.25,0,0,1-13.22,22.62,90.51,90.51,0,0,1-17.59,18.08c-5.81,4.62-11.94,8.81-17.84,13.32a.74.74,0,0,0,0-.21c1.1-1.63,2.27-3.22,3.49-4.79,2.46-3.13,5.14-6.08,7.84-9a210.74,210.74,0,0,0,15.48-17.64,64.39,64.39,0,0,0,6.87-11.06c0-.19-.22-.27-.3,0-6.95,14.46-20.78,23.7-30.67,35.92a61.18,61.18,0,0,0-4,5.4,21,21,0,0,0-2.46,4.35,90,90,0,0,0-14.59,14.73,60,60,0,0,1,1.7-8.29,42.66,42.66,0,0,1,4.54-10.81c0-.17-.16-.33-.27-.17a51.35,51.35,0,0,0-5,10.81,38.69,38.69,0,0,0-1.57,9.25h0a83.37,83.37,0,0,0-5.76,9c.17-.92.36-1.81.52-2.7.86-4.27,1.81-8.52,2.89-12.73A75.72,75.72,0,0,1,898,701a.16.16,0,0,0,0-.23.16.16,0,0,0-.22,0,.1.1,0,0,0,0,.07,90.3,90.3,0,0,0-11.38,23.56c-1.38,4.19-2.46,8.46-3.43,12.76-.46,2.11-.9,4.21-1.3,6.35-.19,1.08-.43,2.19-.62,3.32a156.15,156.15,0,0,0-9.87,29,426.11,426.11,0,0,0-9.1,54,447.57,447.57,0,0,0-2.84,57.29c0,2.41.19,4.81.3,7.19a.5.5,0,1,0,1,0c.43-9.48.67-18.92,1.24-28.48s1.38-18.92,2.38-28.41A506.32,506.32,0,0,1,873,782.18c3.45-15.62,8-31.35,16.51-45A84.26,84.26,0,0,1,905,718.78c6-5.4,12.54-10.11,18.92-15.08a104.17,104.17,0,0,0,17.32-16.65A134.43,134.43,0,0,0,954.7,665c1-1.94,2.06-3.86,3.08-5.78C957.89,659,957.62,658.87,957.54,659Z"/><path class="cls-6" d="M950.16,665.3A146.17,146.17,0,0,1,940.62,682s0,.25.19.14a118.51,118.51,0,0,0,9.65-16.7C950.54,665.22,950.24,665.14,950.16,665.3Z"/><path class="cls-3" d="M720.45,741.43s-.68,60.78,35.67,78.37,55.81,2.92,80.51,8.81h0c-1-1.46-18.59-26.78-46.62-33.75C761.15,787.59,729.21,766.75,720.45,741.43Z"/><path class="cls-22" d="M720.45,741.43s-.68,60.78,35.67,78.37,55.81,2.92,80.51,8.81h0a137.28,137.28,0,0,0-41.32-12.19C772.37,813.58,728.58,798.64,720.45,741.43Z"/><path class="cls-5" d="M839,829.64a60.43,60.43,0,0,0-14.38-9.79c-.78-.37-1.57-.67-2.38-1a13.28,13.28,0,0,0-1.21-1.38c-1.08-1.14-2.22-2.24-3.41-3.27a54.16,54.16,0,0,0-7.4-5.38c-6-3.54-12.6-6-18.76-9.3-.19,0-.35.19-.16.27,3.05,1.6,6,3.33,8.94,5.06s5.84,3.29,8.63,5.11a60.68,60.68,0,0,1,7.18,5.4c.65.57,1.27,1.16,1.9,1.78a97.5,97.5,0,0,0-12.25-3.18c-6.64-1.33-13.51-2.3-20-3.71q-4.87-1.11-9.62-2.7c-3-2.43-6-4.84-8.89-7.49a71,71,0,0,1-9.44-10.16c0-.16-.4,0-.27.17a112.15,112.15,0,0,0,14.9,16.43c-1.57-.6-3.11-1.22-4.65-1.92a75.12,75.12,0,0,1-31-25.76c0-.16-.38,0-.27.17a85.72,85.72,0,0,0,25,24,76.64,76.64,0,0,0,15.83,7.48A147.67,147.67,0,0,0,797,815.15a142.36,142.36,0,0,1,19.24,4.46,58.38,58.38,0,0,1,16.22,8.51,75.86,75.86,0,0,1,21.62,27,135.33,135.33,0,0,1,12,44.43c0,.65,1.09.65,1,0C865.52,874,858.71,847.36,839,829.64Z"/><path class="cls-6" d="M796.85,809.83A20.72,20.72,0,0,0,789.5,803a26.81,26.81,0,0,1-8.87-7.35c-.13-.16-.4,0-.27.17a29.52,29.52,0,0,0,7.84,7,27.41,27.41,0,0,1,8.54,7.08C796.71,810.1,796.93,810,796.85,809.83Z"/><polygon class="cls-3" points="816.12 874.5 817.77 907.9 822.85 1010 899.06 1010 904.14 907.9 905.79 874.5 816.12 874.5"/><polygon class="cls-5" points="816.12 874.5 817.77 907.9 904.14 907.9 905.79 874.5 816.12 874.5"/><rect class="cls-3" x="810.79" y="860.53" width="100.34" height="31.89"/></g></svg>