<svg id="Illustration" xmlns="http://www.w3.org/2000/svg" xmlns:xlink="http://www.w3.org/1999/xlink" viewBox="0 0 1080 1080"><defs><style>.cls-1,.cls-13,.cls-16,.cls-23,.cls-26{fill:none;}.cls-2{fill:#92e3a9;}.cls-27,.cls-3{fill:#daefe0;}.cls-3{fill-rule:evenodd;}.cls-4{fill:#eaf4ed;}.cls-22,.cls-24,.cls-25,.cls-5{fill:#1f733a;}.cls-18,.cls-6{fill:#5ccd80;}.cls-12,.cls-19,.cls-20,.cls-7{fill:#d6f2df;}.cls-8{fill:#33c060;}.cls-9{fill:#2b994a;}.cls-10{fill:#fff;}.cls-11,.cls-14{fill:#030;}.cls-11,.cls-12,.cls-13,.cls-15,.cls-16,.cls-17{stroke:#030;}.cls-11,.cls-12,.cls-13,.cls-15,.cls-16,.cls-17,.cls-18,.cls-20,.cls-22,.cls-23,.cls-24,.cls-25{stroke-linecap:round;stroke-linejoin:round;}.cls-15{fill:#cafcca;}.cls-16{stroke-width:2px;}.cls-17{fill:#1d5e1d;}.cls-18,.cls-19,.cls-20{stroke:#1f733a;}.cls-19,.cls-26{stroke-miterlimit:10;}.cls-21{clip-path:url(#clip-path);}.cls-22,.cls-23,.cls-24,.cls-25,.cls-26{stroke:#263238;}.cls-22,.cls-25{stroke-width:0.75px;}.cls-22{opacity:0.2;isolation:isolate;}</style><clipPath id="clip-path"><path class="cls-1" d="M415.8,731.48,292.07,586.67l-20.36,4,92.61,169a83.32,83.32,0,0,0-13.48,14c-4.4,6.59,1.67,20.82,1.67,20.82l-155.77,60-2.07,6.1L364.51,806C403.44,830,478,849.51,478,849.51L75.34,1002.16l-13.61-3,11.21,19.68,1.45-9.21,159-55.75a34.12,34.12,0,0,0,13.94.49c7-1.38,15-10.3,15-10.3l85.76-32.27s3.08,4.2,14.2,2.82,28.4-17,28.4-17l60.8-21.08A96.49,96.49,0,0,0,467.65,888a43,43,0,0,0,11.12,2.69l-6.3,9.37c-3.15,4.69-.33,10.63,5.9,21.62s14.69,8.49,21.71,11.18a70.77,70.77,0,0,0,45.09,1.67c22.4-6,45.72-23.68,31.91-52.67s-49.88-17.8-49.88-17.8l-15.31-7.58,41.35-9A97.78,97.78,0,0,0,568.55,851c7.68,1,44.77-3.84,63.43-8.43S693.27,815,693.27,815s173.18-31.74,198.92-47.39a51.34,51.34,0,0,0,18-69.45c-13.58-23.35-21.58-25.88-51.09-44.44s-65.59-7.38-65.59-7.38l-360,88.91C419.51,734,415.8,731.48,415.8,731.48Z"/></clipPath></defs><title>Image-1</title><path class="cls-2" d="M930.27,347.58A30.87,30.87,0,0,0,889.41,363l0,.06c-7,15.61,7.67,58.34,7.67,58.34s41.66-17.35,48.71-33A30.87,30.87,0,0,0,930.27,347.58Zm-17.68,39.26a11.74,11.74,0,1,0,0-.12Z"/><path class="cls-3" d="M51.16,538a34.14,34.14,0,0,0,7.38,26.72l-.88.23a1.67,1.67,0,0,0-1.49,1.82,1.62,1.62,0,0,0,1.88,1.36,1.89,1.89,0,0,0,.41-.1l.4-.11,1,4-4.69,1.22L76.5,655l505.05-131.3-32-123.27a58.76,58.76,0,0,0-7.21-3.66,109.14,109.14,0,0,0-16.69-5.42,9.18,9.18,0,0,0-.17-2.51,7.91,7.91,0,0,0-1.57-3.34h0a10.64,10.64,0,0,0-4.11-2.6,27.65,27.65,0,0,0-4.21-1.28l-.55-2.12a2.59,2.59,0,0,0,.47-.92,2.3,2.3,0,0,0,0-1.22,2.42,2.42,0,0,0-1.66-1.71l-.48-1.84a1.91,1.91,0,0,0,.36-.71,2,2,0,0,0,0-1,1.91,1.91,0,0,0-.53-.91,2.5,2.5,0,0,0-.77-.46l-.5-1.94-4.58-14.69a.34.34,0,0,0-.41-.23h0a.32.32,0,0,0-.29.32.19.19,0,0,0,0,.08l2.94,15.25.5,1.94a2.07,2.07,0,0,0-.5,1.83,2,2,0,0,0,.5.87,2.4,2.4,0,0,0,.65.44l.48,1.84a2.46,2.46,0,0,0-.6,1,2.34,2.34,0,0,0,0,1.31,2.38,2.38,0,0,0,.6,1.07,2.76,2.76,0,0,0,.85.57l.55,2.12a30.22,30.22,0,0,0-3,3.16,10,10,0,0,0-2.3,4.27,7.19,7.19,0,0,0,.26,3.71,8.13,8.13,0,0,0,1.05,2.28,109.15,109.15,0,0,0-11.94,12.87,38.93,38.93,0,0,0-8,15.62,34.16,34.16,0,0,0,7.38,26.71l-.89.23a1.7,1.7,0,0,0-1.49,1.83,1.63,1.63,0,0,0,1.89,1.36,1.49,1.49,0,0,0,.4-.11h0l1.05,4L487.44,461l4.23,16.27-7.15,1.86-3.19-12.3a3.16,3.16,0,0,0,.9-2.79,3.43,3.43,0,0,0-3.49-2.48l-2.61-10-.1-.38-.19-.72-1-4.06,1.44-.38a1.81,1.81,0,0,0,1.6-2,1.76,1.76,0,0,0-2-1.46,2.17,2.17,0,0,0-.42.11l-2,.52A18,18,0,0,0,469.65,430a20.89,20.89,0,0,0-7.9-5.29,60,60,0,0,0-9-2.93,5.39,5.39,0,0,0-.1-1.33,4.16,4.16,0,0,0-.84-1.79h0a6,6,0,0,0-2.21-1.42,19.49,19.49,0,0,0-2.29-.68l-.3-1.14a1.52,1.52,0,0,0,.25-.53,1.22,1.22,0,0,0,0-.63,1.17,1.17,0,0,0-.35-.62,1.3,1.3,0,0,0-.54-.32l-.26-1a1.3,1.3,0,0,0,.2-.41,1.1,1.1,0,0,0,0-.51,1.07,1.07,0,0,0-.3-.51,1.87,1.87,0,0,0-.41-.25l-.28-1.05-2.47-7.95a.2.2,0,0,0-.24-.11.19.19,0,0,0-.16.22l1.71,8.14.27,1.06a1.24,1.24,0,0,0-.24.42,1,1,0,0,0,0,.58,1.14,1.14,0,0,0,.12.48,1.18,1.18,0,0,0,.37.26l.25,1a1.69,1.69,0,0,0-.32.55,1.23,1.23,0,0,0,0,.71,1.24,1.24,0,0,0,.31.56,1.27,1.27,0,0,0,.47.34l.29,1.14a15.76,15.76,0,0,0-1.66,1.71,5.91,5.91,0,0,0-1.24,2.31,4.23,4.23,0,0,0,.14,2,4.93,4.93,0,0,0,.56,1.21,59.08,59.08,0,0,0-6.47,7,20.89,20.89,0,0,0-4.32,8.47A18.09,18.09,0,0,0,435.76,453l-1.67.43a1.81,1.81,0,0,0-1.59,2,1.75,1.75,0,0,0,2,1.45,2,2,0,0,0,.42-.11l1.4-.36,3.95,15.21a3.4,3.4,0,0,0-1.71,3.81,3.12,3.12,0,0,0,2.14,2l3.2,12.3-13.72,3.56c2.07-16.7,2.92-53-22.23-83.46-10.89-13.15-28.7-23.67-47.86-31.9a359.39,359.39,0,0,0-54.67-18,30.84,30.84,0,0,0-.53-8A24.79,24.79,0,0,0,299.78,341h0a33.82,33.82,0,0,0-13.44-8.59,98,98,0,0,0-13.75-4.08l-2.15-6.91a8.4,8.4,0,0,0,1.56-2.95,7.66,7.66,0,0,0-2.21-7.69,7.94,7.94,0,0,0-3.2-1.9L264.74,303a7.12,7.12,0,0,0,1.18-2.35h0a6.27,6.27,0,0,0-1.77-6.19h0a6.63,6.63,0,0,0-2.52-1.46l-2-6.32-14.81-47.51a27.66,27.66,0,0,0,13.3-6.51,25.94,25.94,0,0,0,7.68-13.12c-5.42,11.92-19.86,17.69-32.26,12.89S215.51,214,220.93,202.11a24.18,24.18,0,0,1,5.49-7.63,24.82,24.82,0,0,1,8.11-5.14c-14.73,2.94-24.52,16.6-21.85,30.51a24.39,24.39,0,0,0,7.11,13,26.92,26.92,0,0,0,22.62,6.75l10.23,48.84,1.36,6.48a6.76,6.76,0,0,0-1.48,2.53,6.3,6.3,0,0,0-.1,3.47,6.46,6.46,0,0,0,1.59,2.79,6.74,6.74,0,0,0,2.15,1.49l1.28,6.09a8.09,8.09,0,0,0-1.87,3.21,7.77,7.77,0,0,0-.14,4.35,8.13,8.13,0,0,0,4.8,5.33l1.46,7.09a97.89,97.89,0,0,0-10,10.25,33.73,33.73,0,0,0-7.55,14h0a25.09,25.09,0,0,0,.82,12.11,32,32,0,0,0,3.42,7.21A358.59,358.59,0,0,0,209,417.11c-12.73,16.52-23.16,34.38-26.26,51.17C175.62,507.09,194,538.38,204,552l-13.44,3.5-3.2-12.3a3.11,3.11,0,0,0,.88-2.78,3.42,3.42,0,0,0-3.36-2.52l-2.61-10-.1-.38-.18-.72-1.06-4.06,1.47-.38a1.76,1.76,0,0,0,1.07-2.26,1.79,1.79,0,0,0-1.93-1.06l-2,.51a18.26,18.26,0,0,0-3.74-13.15,21.37,21.37,0,0,0-7.93-5.28,57.13,57.13,0,0,0-9-2.93,5.31,5.31,0,0,0-.1-1.32,3.66,3.66,0,0,0-.84-1.8h0a5.9,5.9,0,0,0-2.21-1.41,14,14,0,0,0-2.29-.68l-.3-1.15a1.15,1.15,0,0,0,.25-.52,1.3,1.3,0,0,0,0-.65A1.24,1.24,0,0,0,153,490a1.55,1.55,0,0,0-.54-.32l-.26-1a.93.93,0,0,0,.2-.41,1.1,1.1,0,0,0-.13-.47,1,1,0,0,0-.29-.51,1.38,1.38,0,0,0-.42-.25l-.27-1.05-2.47-7.95a.19.19,0,0,0-.23-.12h0a.26.26,0,0,0-.18.22l1.71,8.15.28,1.05a1.26,1.26,0,0,0-.22.41,1,1,0,0,0,.21,1,1,1,0,0,0,.4.26l.25,1a1.75,1.75,0,0,0-.32.54,1.46,1.46,0,0,0,0,.72,1.28,1.28,0,0,0,.8.88l.29,1.15a16.43,16.43,0,0,0-1.64,1.7,6,6,0,0,0-1.26,2.32,4.36,4.36,0,0,0,.14,2,4.44,4.44,0,0,0,.58,1.2,59.08,59.08,0,0,0-6.47,7,21.41,21.41,0,0,0-4.34,8.48A18.24,18.24,0,0,0,142,529.33l-1.67.43a1.82,1.82,0,0,0-1.59,2,1.75,1.75,0,0,0,2,1.45,1.85,1.85,0,0,0,.42-.11l1.4-.36,4,15.21a3.4,3.4,0,0,0-1.71,3.81,3.12,3.12,0,0,0,2.14,2l3.2,12.3L143,567.9l-4.23-16.26-9.89,2.57-1-4,.81-.22a1.67,1.67,0,0,0,1.49-1.82,1.62,1.62,0,0,0-1.88-1.36,1.89,1.89,0,0,0-.41.1l-.89.23a34.13,34.13,0,0,0-6.57-26.92,38.77,38.77,0,0,0-14.6-9.75A108.9,108.9,0,0,0,89,505a9.12,9.12,0,0,0-.19-2.5,7.45,7.45,0,0,0-1.54-3.35h0a10.16,10.16,0,0,0-4.09-2.61,28.67,28.67,0,0,0-4.2-1.27l-.55-2.13a2.61,2.61,0,0,0,.46-.91,2.35,2.35,0,0,0-.66-2.35,2.47,2.47,0,0,0-1-.58l-.48-1.84a2.12,2.12,0,0,0,.36-.7,2,2,0,0,0,0-1,1.89,1.89,0,0,0-.56-.9,2,2,0,0,0-.77-.46l-.5-1.94-4.58-14.69a.37.37,0,0,0-.43-.22.33.33,0,0,0-.31.35.13.13,0,0,0,0,.06l3.16,15.06.5,1.94a2.4,2.4,0,0,0-.45.77,2,2,0,0,0,0,1.06,2.06,2.06,0,0,0,.49.86,2.46,2.46,0,0,0,.66.44l.48,1.84a2.44,2.44,0,0,0-.62,2.3,2.33,2.33,0,0,0,.6,1.07,2.45,2.45,0,0,0,.85.57l.56,2.13a26,26,0,0,0-3,3.16,10.51,10.51,0,0,0-2.33,4.28,8.12,8.12,0,0,0,.26,3.7,9.46,9.46,0,0,0,1.08,2.27,109.09,109.09,0,0,0-11.94,12.87A39.26,39.26,0,0,0,51.16,538Z"/><g id="freepik--Device--inject-273"><rect class="cls-4" x="303.52" y="176.69" width="421.05" height="780"/><path class="cls-5" d="M724.57,957.85H303.52a1.16,1.16,0,0,1-1.16-1.16v-780a1.16,1.16,0,0,1,1.16-1.16H724.57a1.16,1.16,0,0,1,1.16,1.16v780A1.16,1.16,0,0,1,724.57,957.85Zm-419.89-2.32H723.41V177.85H304.68Z"/><rect class="cls-6" x="393.69" y="243.44" width="78.33" height="28.15" rx="7.74"/><path class="cls-5" d="M464.29,272.77H401.46a8.93,8.93,0,0,1-8.92-8.92V251.2a8.93,8.93,0,0,1,8.92-8.92h62.83a8.94,8.94,0,0,1,8.92,8.92v12.65A8.94,8.94,0,0,1,464.29,272.77ZM401.46,244.6a6.63,6.63,0,0,0-6.61,6.6v12.65a6.63,6.63,0,0,0,6.61,6.6h62.83a6.62,6.62,0,0,0,6.6-6.6V251.2a6.62,6.62,0,0,0-6.6-6.6Z"/><rect class="cls-6" x="481.83" y="243.44" width="78.33" height="28.15" rx="7.74"/><path class="cls-5" d="M552.42,272.77H489.59a8.94,8.94,0,0,1-8.92-8.92V251.2a8.94,8.94,0,0,1,8.92-8.92h62.83a8.92,8.92,0,0,1,8.9,8.92v12.65A8.92,8.92,0,0,1,552.42,272.77ZM489.59,244.6a6.62,6.62,0,0,0-6.6,6.6v12.65a6.62,6.62,0,0,0,6.6,6.6h62.83a6.6,6.6,0,0,0,6.58-6.6V251.2a6.6,6.6,0,0,0-6.58-6.6Z"/><rect class="cls-6" x="569.96" y="243.44" width="78.33" height="28.15" rx="7.74"/><path class="cls-5" d="M640.56,272.77H577.72a9,9,0,0,1-8.92-8.92V251.2a9,9,0,0,1,8.92-8.92h62.84a8.91,8.91,0,0,1,8.89,8.92v12.65A8.91,8.91,0,0,1,640.56,272.77ZM577.72,244.6a6.62,6.62,0,0,0-6.6,6.6v12.65a6.62,6.62,0,0,0,6.6,6.6h62.84a6.6,6.6,0,0,0,6.58-6.6V251.2a6.6,6.6,0,0,0-6.58-6.6Z"/><rect class="cls-6" x="303.52" y="176.69" width="421.05" height="57.32"/><path class="cls-5" d="M724.57,235.17H303.52a1.16,1.16,0,0,1-1.16-1.16V176.69a1.16,1.16,0,0,1,1.16-1.16H724.57a1.16,1.16,0,0,1,1.16,1.16V234A1.16,1.16,0,0,1,724.57,235.17Zm-419.89-2.32H723.41v-55H304.68Z"/><path class="cls-7" d="M671.74,215.38a7.23,7.23,0,1,0-7.25,7.21h.09A7.23,7.23,0,0,0,671.74,215.38Z"/><path class="cls-5" d="M664.58,223.74a8.39,8.39,0,1,1,8.39-8.38v0A8.38,8.38,0,0,1,664.58,223.74Zm0-14.43a6.07,6.07,0,1,0,6.07,6.07h0A6.09,6.09,0,0,0,664.58,209.31Z"/><path class="cls-7" d="M691.32,215.38a7.23,7.23,0,1,0-7.25,7.21h0A7.24,7.24,0,0,0,691.32,215.38Z"/><path class="cls-5" d="M684.12,223.74a8.39,8.39,0,1,1,8.27-8.5v.14A8.39,8.39,0,0,1,684.12,223.74Zm0-14.43a6.07,6.07,0,1,0,6,6.18v-.11A6.07,6.07,0,0,0,684.12,209.31Z"/><path class="cls-7" d="M710.92,215.38a7.23,7.23,0,1,0-7.25,7.21h0A7.23,7.23,0,0,0,710.92,215.38Z"/><path class="cls-5" d="M703.69,223.74a8.39,8.39,0,1,1,8.39-8.38v0a8.36,8.36,0,0,1-8.36,8.36Zm0-14.43a6.07,6.07,0,1,0,6.07,6.07h0A6.07,6.07,0,0,0,703.69,209.31Z"/><rect class="cls-6" x="303.52" y="895.29" width="421.05" height="61.37"/><path class="cls-5" d="M724.57,957.85H303.52a1.16,1.16,0,0,1-1.16-1.16v-61.4a1.16,1.16,0,0,1,1.16-1.16H724.57a1.16,1.16,0,0,1,1.16,1.16v61.4A1.16,1.16,0,0,1,724.57,957.85Zm-419.89-2.32H723.41V896.45H304.68Z"/><path class="cls-5" d="M737.19,330.16a5.22,5.22,0,0,0,5.22-5.21v-52a5.2,5.2,0,0,0-5.19-5.19h0a7.85,7.85,0,0,0-1,0V170.43A33.52,33.52,0,0,0,702.7,137H333.13a33.53,33.53,0,0,0-33.52,33.53h0v785a33.51,33.51,0,0,0,33.5,33.55H702.7a33.52,33.52,0,0,0,33.52-33.52V478a7.85,7.85,0,0,0,1,0,5.22,5.22,0,0,0,5.22-5.21v-51.9a5.22,5.22,0,0,0-5.22-5.22,7.85,7.85,0,0,0-1,0V403.93a5.73,5.73,0,0,0,6.19-5.17V346.91a5.22,5.22,0,0,0-5.22-5.21h0a4.58,4.58,0,0,0-1,.11V330A4.6,4.6,0,0,0,737.19,330.16ZM716.81,938.64H319V194.92H716.81Z"/></g><path class="cls-8" d="M625.15,619.89c-1.72,0-5.6-2.2-5.33-3.9,2.31-14.08,9.87-67.73,21.41-67.15,7.48.37-3.89,26.32-6.48,34.68s-10.21,29.42-6.47,27c8.09-5.23,11.52-40.2,19.8-33.29,9.69,8.09-15.2,36.87-12.47,36.63,7.12-.61,32.7-20.82,29-8.33C660.72,618.9,649.38,620.55,625.15,619.89Z"/><path class="cls-8" d="M375.12,619.89c.92,0,8.05-.07,8.51-.86,3.68-6.2-7.35-46.42-18.66-48.15-12.77-2,20.16,39.51,14.41,38.8s-24-43.44-40.56-41.69,36,42.69,32.25,41.69-29.13-12.7-29.46-6.55C341.08,613.06,350.57,618.8,375.12,619.89Z"/><polygon class="cls-9" points="500.13 627.86 375.13 619.89 375.13 407.76 500.13 387.78 500.13 627.86"/><polygon class="cls-5" points="625.15 619.89 500.13 627.86 500.13 387.78 625.15 407.76 625.15 619.89"/><polygon class="cls-8" points="500.2 465.41 375.19 477.15 375.19 455.8 500.2 444.06 500.2 465.41"/><polygon class="cls-8" points="625.15 476.91 500.13 465.17 500.13 443.82 625.15 455.56 625.15 476.91"/><path class="cls-10" d="M619.22,457.83h0l-111.54-11a.09.09,0,0,1-.08-.11.1.1,0,0,1,.1-.08l111.54,11a.08.08,0,0,1,.08.1A.08.08,0,0,1,619.22,457.83Z"/><path class="cls-10" d="M605.12,473.68h0l-77.35-7.49a.08.08,0,0,1-.08-.1.1.1,0,0,1,.1-.09l77.35,7.49a.1.1,0,0,1,.09.1A.11.11,0,0,1,605.12,473.68Z"/><path class="cls-10" d="M381.3,457.83a.08.08,0,0,1-.09-.08.08.08,0,0,1,.08-.1l113.28-11a.1.1,0,1,1,0,.19l-113.28,11Z"/><path class="cls-10" d="M397.11,473.68a.11.11,0,0,1-.09-.09.09.09,0,0,1,.08-.1l83.5-8.23a.09.09,0,1,1,0,.18l-83.5,8.24Z"/><path class="cls-6" d="M620.31,488.62h-.1L506.5,480.31a1.32,1.32,0,0,1,.19-2.63L620.4,486a1.31,1.31,0,0,1-.09,2.62Z"/><path class="cls-6" d="M380.88,488.62a1.31,1.31,0,0,1-.1-2.62l113.71-8.32a1.32,1.32,0,0,1,.19,2.63L381,488.62Z"/><g id="freepik--Character--inject-646"><ellipse class="cls-11" cx="807.78" cy="671.14" rx="182.5" ry="10"/><path class="cls-11" d="M803.28,540.14S805,589.28,804.63,592s-1.35,5.06-.67,8.1,1.34,5.39,1,6.74-5.06,50.26-6.41,52.62c-1,1.74-2.17,3.43-3.37,5.06,0,0-3.71.68-5.74,3a11.12,11.12,0,0,0-2.36,5.39H802.6s2.69-6.07,3.37-8.43.34-14.45.34-16.82,6.74-39.51,7.42-40.86,4-7.42,4-11.13,0-8.09.68-10.12,8.87-42.39,8.87-42.39S812.43,535.41,803.28,540.14Z"/><path class="cls-11" d="M938.56,585.57s10.8,17.54,12.15,20.24-2.36,24.62-2.7,28.33-3,21-5.06,23.66a17,17,0,0,0-2.7,6.07,11.31,11.31,0,0,0-4.38,2.7,17,17,0,0,0-3,4l-.34,2.36,16.19.67s2-4.72,2.7-7.08-.67-4.38,0-7.08,2.7-22.65,4.72-28.72,4.39-20.91,5.74-25.3,3-11.46,2.36-13.49-9.45-11.8-10.46-14.5-3.37-33.3-3.37-33.3S939.91,575.46,938.56,585.57Z"/><path class="cls-12" d="M854.28,429.64s-18,.25-22.25-1-9.25-1.5-12,1-4.25,11-6.5,14.25-20,38.25-24.5,43.5-8.25,9.5-19.5,10-23-2.5-28.75-10.5-9.5-25.75-9.5-25.75-4.5-12-8.25-13.75-16-2.5-18.75-2.25-4.75,3.75-9.25,5.25-17.5,2.25-23.5,5-5.75,9-5.75,11.25a37,37,0,0,0,.5,5.25,6,6,0,0,0,.75,3c.75,1,4.5-.25,5.5-.5s-.75,1,3.75,1,5.5-.25,8.25-.25,7.25-1,12,2,11.25,5,15,13,10.75,26.75,26.5,40.25,31.5,13.75,45.25,13.75,21.25-2,24.75-.75,12,5.75,12,5.75,9,37.09,9.25,41.34-3,7.5.5,12.75,5,11,5.75,13.25,4,39.83,3.5,41.33-1.25,4.25-1.25,4.25-8.5,3-10,6.5a38.42,38.42,0,0,0-1.75,4.5s17,.25,19.25.25,5.75-4,6.75-6.75.75-4.25-1.75-10.25-6.75-38.08-6.5-44.08S844,598.73,842,594s-3.25-6.75-3.5-7.5-.5-31.34.5-33.59,4.75-9.75,4.75-9.75,24,6.5,42.25,3.75,27.75-4.75,27.75-4.75,9,32.59,12,39.84,2.25,24.5,2.25,28.5,1.75,8,0,16-3.75,21.58-4,24.08,0,4.75-1.25,6.25-9.75,8-11.75,10-2.25,5.5-2.25,5.5l.75,1s10.75.5,11.75.5,4.75-4,4.75-4,1.75-3.75,1.75-5.75-.25-3.75.5-6,4.5-21.58,7-28.83,6.5-16.5,7.5-20.5,0-22,1.25-28,6-24.84,9.5-35.09,2.25-26.75,2.25-26.75,1.5,25.5,1.5,29.5v11c0,3,3.25,13.5,3.25,13.5s3.5-14.5,2.5-19.25-3-5.75-3.75-10.5-1.25-25.25-1.75-28.25-3-12-3.75-13-12.75-18-15.25-23.75-6-16.75-6-16.75-11.25-24.5-17.5-27.25-7.75-2-15-1.75S854.28,429.64,854.28,429.64Z"/><polyline class="cls-13" points="693.88 453.79 693.28 455.56 703.63 457.44"/><path class="cls-11" d="M694.84,455.82s-.26,2.84,3.37,3.62,3.33-2.52,3.33-2.52Z"/><path class="cls-11" d="M672.58,457.89s-3.88,1.55-3.1,2.84,6.21,0,7.24-.26S675.17,457.63,672.58,457.89Z"/><path class="cls-13" d="M672.53,474.39s4.71-3,7.3-3,5.43.51,6.73.51"/><path class="cls-14" d="M730,458.07c-17,6.85-30.42,7.94-33.66,8.1-1.16-3.44-5.38-10.9-7.49-14.52l-2.12.32c2.57,4.4,7.34,12.89,7.89,15.44.41,2-.3,5.6-1,8.35a15,15,0,0,1,1.86.79,31.36,31.36,0,0,0,1.23-8.39c3.83-.23,17.27-1.48,34.07-8.25C730.59,459.41,730.33,458.78,730,458.07Z"/><path class="cls-15" d="M718.65,452.45s5.7-3.31,10.63-3.31,11.39.26,11.39.26-.78,1.81-3.88,4.4-8.28,5.43-10.35,5.69-7.25-3.37-7.25-3.37"/><path class="cls-11" d="M720.72,456.59s1.3-2.59,6-3.88a52.46,52.46,0,0,1,11.38-1.29s-3.92,5.43-7.82,6.72S722.79,458.92,720.72,456.59Z"/><path class="cls-16" d="M679.83,471.35s2.59,29.5,6.21,42.18,21.22,21.23,35.46,18.38,21.22-23.29,22-31.32.77-10.61.77-10.61"/><path class="cls-16" d="M735.73,476.26s-6.73,14-23,16.05"/><path class="cls-16" d="M716.58,491.53s1.81,45.3,13.2,55.91,28,0,31.06-18.12a135.84,135.84,0,0,0,1.81-32.09"/><path class="cls-17" d="M950.55,514.31a81.49,81.49,0,0,0,1.5-14.86c-3.58-5.12-11.54-16.75-13.52-21.31-2.5-5.75-6-16.75-6-16.75s-11.25-24.5-17.5-27.25-7.75-2-15-1.75-45.75-2.75-45.75-2.75-18,.25-22.25-1-9.25-1.5-12,1-4.25,11-6.5,14.25c-1.69,2.44-12.12,22.78-19.11,35,5.52,5.75,23.15,23.44,36.3,29.48,15.79,7.24,24.07,10.35,40.64,12.42s67,20.45,67,20.45S947.71,528.29,950.55,514.31Z"/><path class="cls-18" d="M935.28,477.82c-.08-3.5-.29-6.79-.59-9.93-1.24-3.6-2.16-6.5-2.16-6.5s-11.25-24.5-17.5-27.25-7.75-2-15-1.75-45.75-2.75-45.75-2.75-18,.25-22.25-1a23.79,23.79,0,0,0-3.91-.8h0a241.52,241.52,0,0,1,12.94,31.84c6.47,19.41,14,52.8,14.76,59.27s1,11.13,1,11.13,8,2.84,32.87,2.84a292.93,292.93,0,0,0,43.48-3.1S935.8,498.78,935.28,477.82Z"/><path class="cls-14" d="M860.09,451.45l-7.91,8.27a.41.41,0,0,0,0,.59l0,0,8.67,7.47a.43.43,0,0,0,.33.11.45.45,0,0,0,.32-.14l7.91-8.27a.53.53,0,0,0,.12-.32.51.51,0,0,0-.15-.3l-8.67-7.47A.48.48,0,0,0,860.09,451.45Zm1.07,15.41-8-6.88,7.28-7.61,8,6.88Z"/><path class="cls-14" d="M892.84,510.66a.41.41,0,0,0,0,.59l0,0,5.82,5a.45.45,0,0,0,.34.11.45.45,0,0,0,.32-.14l5.31-5.56a.41.41,0,0,0,0-.59l0,0-5.82-5a.49.49,0,0,0-.66,0Zm5.68-4.64,5.14,4.43-4.68,4.9-5.14-4.43Z"/><path class="cls-14" d="M875.15,511.52a.41.41,0,0,0,0,.59l0,0,5.82,5a.45.45,0,0,0,.34.11.58.58,0,0,0,.32-.14l5.31-5.56a.53.53,0,0,0,.12-.32.51.51,0,0,0-.15-.3l-5.83-5a.48.48,0,0,0-.65,0Zm5.68-4.64,5.14,4.43-4.69,4.9-5.13-4.43Z"/><path class="cls-14" d="M898,502.52l-7.91,8.27a.41.41,0,0,0,0,.59l0,0,8.67,7.47a.43.43,0,0,0,.33.11.45.45,0,0,0,.32-.14l7.91-8.27a.41.41,0,0,0,0-.59s0,0,0,0l-8.67-7.47A.48.48,0,0,0,898,502.52Zm1.07,15.41-8-6.87,7.28-7.62,8,6.88Z"/><path class="cls-14" d="M842.77,453.22l8,6.88-7.19,7.53c.09.33.19.66.29,1l7.89-8.26a.46.46,0,0,0,.13-.32.47.47,0,0,0-.16-.31l-8.66-7.46a.49.49,0,0,0-.66,0l-2.83,3,.33,1Z"/><path class="cls-14" d="M849,460.5a.53.53,0,0,0,.12-.32.48.48,0,0,0-.15-.3l-5.83-5a.5.5,0,0,0-.65,0l-2.24,2.39.33,1,2.31-2.42,5.14,4.42-4.72,4.87-.73-.64c.16.53.32,1.07.49,1.61a.48.48,0,0,0,.29.09.53.53,0,0,0,.33-.15Z"/><path class="cls-14" d="M933.41,500.81l-7.9,8.27a.41.41,0,0,0,0,.59l0,0,8.58,7.4c0-.37,0-.75.07-1.13l-7.69-6.63,7.28-7.61,1.11,1a8.93,8.93,0,0,1,0-1.15l-.88-.75A.48.48,0,0,0,933.41,500.81Z"/><path class="cls-14" d="M851.87,499.63c.06.29.13.58.2.87l83.06-4v-.88Z"/><path class="cls-14" d="M933.54,503.39,928.28,509a.34.34,0,0,0-.12.31.35.35,0,0,0,.15.31l5.82,5a.56.56,0,0,0,.19.09,6.52,6.52,0,0,1,.06-1.07l-5.11-4.4,4.69-4.9.87.75.06-1.14-.65-.56a.48.48,0,0,0-.68,0Z"/><path class="cls-14" d="M933.73,522.93a4.54,4.54,0,0,1,.06-.89l-77.26,3.74c0,.31.06.6.08.88Z"/><path class="cls-14" d="M934.87,470a3.32,3.32,0,0,0-.08-.88l-89.57,4.34.24.87Z"/><path class="cls-14" d="M915.72,501.67l-7.9,8.27a.41.41,0,0,0,0,.59l0,0,8.66,7.46a.48.48,0,0,0,.33.12.53.53,0,0,0,.33-.15l7.9-8.27a.41.41,0,0,0,0-.59l0,0-8.67-7.47A.48.48,0,0,0,915.72,501.67Zm1.07,15.41-8-6.88,7.28-7.62,8,6.88Z"/><path class="cls-14" d="M910.53,509.8a.43.43,0,0,0-.12.32.42.42,0,0,0,.15.31l5.83,5a.48.48,0,0,0,.33.12.5.5,0,0,0,.32-.15l5.31-5.56a.43.43,0,0,0,.12-.31.46.46,0,0,0-.15-.31l-5.82-5a.49.49,0,0,0-.66,0Zm5.69-4.64,5.13,4.43-4.68,4.91-5.14-4.43Z"/><path class="cls-14" d="M877.78,450.6l-7.91,8.26a.43.43,0,0,0,0,.62h0l8.67,7.46a.48.48,0,0,0,.33.12.46.46,0,0,0,.32-.15l7.91-8.27a.41.41,0,0,0,0-.59s0,0,0,0l-8.67-7.47A.48.48,0,0,0,877.78,450.6ZM878.85,466l-8-6.88,7.28-7.62,8,6.88Z"/><path class="cls-14" d="M908,457a.35.35,0,0,0-.12.32.38.38,0,0,0,.15.3l5.82,5a.43.43,0,0,0,.33.11.45.45,0,0,0,.32-.14l5.31-5.56a.41.41,0,0,0,.12-.32.48.48,0,0,0-.15-.3l-5.82-5a.48.48,0,0,0-.65,0Zm5.68-4.64,5.14,4.43-4.69,4.9L909,457.28Z"/><path class="cls-14" d="M836.68,447.45l.33.87,86.4-4.19c-.17-.29-.35-.57-.53-.85Z"/><path class="cls-14" d="M895.47,449.74l-7.9,8.27a.41.41,0,0,0,0,.59l0,0,8.71,7.51a.45.45,0,0,0,.34.11.58.58,0,0,0,.32-.14l7.9-8.27a.44.44,0,0,0,0-.62h0l-8.67-7.46a.47.47,0,0,0-.67,0Zm1.07,15.4-8-6.88,7.28-7.62,8,6.88Z"/><path class="cls-14" d="M913.16,448.88l-7.88,8.26a.41.41,0,0,0,0,.59l0,0,8.66,7.47a.45.45,0,0,0,.34.11.45.45,0,0,0,.32-.14l7.9-8.27a.41.41,0,0,0,0-.59l0,0-8.66-7.47A.5.5,0,0,0,913.16,448.88Zm1.12,15.41-8-6.88,7.28-7.61,8,6.88Z"/><path class="cls-14" d="M890.28,457.88a.41.41,0,0,0,0,.59l0,0,5.82,5a.48.48,0,0,0,.33.12.5.5,0,0,0,.32-.15l5.31-5.55a.45.45,0,0,0,.12-.32.42.42,0,0,0-.15-.3l-5.82-5a.5.5,0,0,0-.65,0Zm5.68-4.64,5.14,4.42-4.69,4.91-5.13-4.43Z"/><path class="cls-14" d="M872.59,458.73a.41.41,0,0,0,0,.59l0,0,5.83,5a.43.43,0,0,0,.33.11.45.45,0,0,0,.32-.14l5.31-5.56a.43.43,0,0,0,.12-.31.51.51,0,0,0-.15-.31l-5.82-5a.49.49,0,0,0-.66,0Zm5.69-4.59,5.13,4.43-4.68,4.9-5.14-4.42Z"/><path class="cls-14" d="M923,456.92l8.67,7.46a.48.48,0,0,0,.33.12.5.5,0,0,0,.32-.15l.89-.93-.32-1-.94,1-8-6.88,4.07-4.26-.45-.84-4.62,4.83a.44.44,0,0,0,0,.62Z"/><path class="cls-14" d="M854.9,459.59a.41.41,0,0,0,0,.59l0,0,5.82,5a.45.45,0,0,0,.34.11.58.58,0,0,0,.32-.14l5.31-5.56a.53.53,0,0,0,.12-.32.57.57,0,0,0-.15-.3l-5.82-5a.51.51,0,0,0-.66,0Zm5.68-4.64,5.14,4.43-4.68,4.9-5.14-4.43Z"/><path class="cls-14" d="M869.28,512.43a.45.45,0,0,0,.12-.32.46.46,0,0,0-.15-.31l-5.82-5a.48.48,0,0,0-.65,0l-5.31,5.56a.41.41,0,0,0,0,.59l0,0,5.82,5a.48.48,0,0,0,.33.12.46.46,0,0,0,.32-.15Zm-5.68,4.64-5.14-4.43,4.69-4.9,5.13,4.4Z"/><path class="cls-14" d="M925.55,456.48a.36.36,0,0,0,.15.3l5.82,5a.43.43,0,0,0,.33.11.47.47,0,0,0,.33-.14l.35-.37h0l-.41-.87-.32.33-5.13-4.42,2.26-2.37-.44-.85-2.82,2.94A.4.4,0,0,0,925.55,456.48Z"/><path class="cls-14" d="M863.77,520.71a.5.5,0,0,0,.32-.15l7.9-8.27a.39.39,0,0,0,.12-.31.46.46,0,0,0-.15-.31l-8.68-7.46a.49.49,0,0,0-.66,0l-7.9,8.27v.07l.12.58,8.62,7.44A.5.5,0,0,0,863.77,520.71ZM863,505.14l8,6.88-7.28,7.62-8-6.88Z"/><path class="cls-14" d="M880.33,503.38l-7.9,8.27a.41.41,0,0,0,0,.59l0,0,8.67,7.47a.43.43,0,0,0,.33.11.45.45,0,0,0,.32-.14l7.9-8.27a.41.41,0,0,0,0-.59l0,0L881,503.35A.49.49,0,0,0,880.33,503.38Zm1.08,15.41-8-6.88,7.28-7.61,8,6.87Z"/><polyline class="cls-17" points="795.51 488.43 790.34 500.85 793.71 501.37 795.51 503.96 798.88 504.47 798.55 500.4 797.72 489.98 799.39 499.56 802.76 498.26 799.65 488.69"/><path class="cls-17" d="M800.7,486.75a3,3,0,1,1-3-3.24,3.13,3.13,0,0,1,3,3.24Z"/><polyline class="cls-17" points="807.16 499.04 801.99 511.46 805.36 511.98 807.16 514.57 810.52 515.09 810.21 511.01 809.37 500.59 811.04 510.17 814.4 508.87 811.3 499.3"/><path class="cls-17" d="M812.34,497.36a3,3,0,1,1-3-3.24,3.12,3.12,0,0,1,3,3.22Z"/><polyline class="cls-17" points="817.77 506.8 812.6 519.23 815.97 519.75 817.77 522.33 821.13 522.85 820.82 518.78 819.98 508.36 821.65 517.93 825.02 516.64 821.91 507.06"/><path class="cls-17" d="M823,505.14a3,3,0,1,1-3-3.23A3.12,3.12,0,0,1,823,505.14Z"/><polyline class="cls-17" points="829.16 513.27 823.99 525.7 827.36 526.21 829.16 528.8 832.52 529.32 832.21 525.25 831.37 514.83 833.04 524.4 836.4 523.11 833.3 513.53"/><path class="cls-17" d="M834.34,511.59a3,3,0,1,1-3-3.23,3.12,3.12,0,0,1,3,3.22Z"/><polyline class="cls-17" points="841.59 518.71 836.4 531.13 839.77 531.65 841.59 534.24 844.96 534.76 844.63 530.68 843.78 520.26 845.47 529.84 848.84 528.54 845.73 518.97"/><path class="cls-17" d="M846.77,517a3,3,0,1,1-3-3.24,3.13,3.13,0,0,1,3,3.24Z"/></g><g id="freepik--Airplane--inject-666"><path class="cls-19" d="M45.86,718.27C60,790,228.62,821.53,464.5,807.83V755.36C290.86,760.67,169.13,733.19,158,676.65c-8.27-41.84,45.55-91.95,140-139.9q3-12.59,6.56-24.95C136.3,580.63,34,657.11,45.86,718.27Z"/><path class="cls-20" d="M857.89,663l55.75-47.59a89.16,89.16,0,0,1,10.66-3.74,16.74,16.74,0,0,0,10.1-10.06l88.94-68.87,6.1,6.13-.43-14.56-18.76-12.59,6.86,10L841,651.66Z"/><polygon class="cls-20" points="491.06 729.65 533.6 689.54 524.81 690.42 477.58 727.42 491.06 729.65"/><path class="cls-19" d="M415.8,731.48,292.07,586.67l-20.36,4,92.61,169a83.32,83.32,0,0,0-13.48,14c-4.4,6.59,1.67,20.82,1.67,20.82l-155.77,60-2.07,6.1L364.51,806C403.44,830,478,849.51,478,849.51L75.34,1002.16l-13.61-3,11.21,19.68,1.45-9.21,159-55.75a34.12,34.12,0,0,0,13.94.49c7-1.38,15-10.3,15-10.3l85.76-32.27s3.08,4.2,14.2,2.82,28.4-17,28.4-17l60.8-21.08A96.49,96.49,0,0,0,467.65,888a43,43,0,0,0,11.12,2.69l-6.3,9.37c-3.15,4.69-.33,10.63,5.9,21.62s14.69,8.49,21.71,11.18a70.77,70.77,0,0,0,45.09,1.67c22.4-6,45.72-23.68,31.91-52.67s-49.88-17.8-49.88-17.8l-15.31-7.58,41.35-9A97.78,97.78,0,0,0,568.55,851c7.68,1,44.77-3.84,63.43-8.43S693.27,815,693.27,815s173.18-31.74,198.92-47.39a51.34,51.34,0,0,0,18-69.45c-13.58-23.35-21.58-25.88-51.09-44.44s-65.59-7.38-65.59-7.38l-360,88.91C419.51,734,415.8,731.48,415.8,731.48Z"/><g class="cls-21"><path class="cls-22" d="M467.91,888A43,43,0,0,0,479,890.7l-6.3,9.37c-3.15,4.69-.33,10.63,5.9,21.62s14.7,8.49,21.71,11.18a70.77,70.77,0,0,0,45.09,1.67c22.4-6,45.72-23.68,31.91-52.67s-49.88-17.8-49.88-17.8l-15.31-7.58,41.35-9A98.16,98.16,0,0,0,568.82,851c7.67,1,44.76-3.84,63.42-8.43S693.53,815,693.53,815s107.33-19.68,165.58-35.68l2.82-2.29s1.57-28.5-28.47-61.69-74.31-25.25-110.68-20.53-283,60.08-283,60.08-31.68,1.57-45.91-19C380.35,716.27,292.6,597.85,285.25,588l-13.54,2.66,92.61,169a83.32,83.32,0,0,0-13.48,14c-4.4,6.59,1.67,20.82,1.67,20.82l-155.77,60-2.07,6.1L364.51,806C403.44,830,478,849.51,478,849.51L75.34,1002.16l-13.61-3,11.21,19.68,1.45-9.21,159-55.75a34.12,34.12,0,0,0,13.94.49c7-1.38,15-10.3,15-10.3l85.76-32.27s3.08,4.2,14.2,2.82,28.4-17,28.4-17l60.93-21.08A97,97,0,0,0,467.91,888Z"/></g><path class="cls-23" d="M415.8,731.48,292.07,586.67l-20.36,4,92.61,169a83.32,83.32,0,0,0-13.48,14c-4.4,6.59,1.67,20.82,1.67,20.82l-155.77,60-2.07,6.1L364.51,806C403.44,830,478,849.51,478,849.51L75.34,1002.16l-13.61-3,11.21,19.68,1.45-9.21,159-55.75a34.12,34.12,0,0,0,13.94.49c7-1.38,15-10.3,15-10.3l85.76-32.27s3.08,4.2,14.2,2.82,28.4-17,28.4-17l60.8-21.08A96.49,96.49,0,0,0,467.65,888a43,43,0,0,0,11.12,2.69l-6.3,9.37c-3.15,4.69-.33,10.63,5.9,21.62s14.69,8.49,21.71,11.18a70.77,70.77,0,0,0,45.09,1.67c22.4-6,45.72-23.68,31.91-52.67s-49.88-17.8-49.88-17.8l-15.31-7.58,41.35-9A97.78,97.78,0,0,0,568.55,851c7.68,1,44.77-3.84,63.43-8.43S693.27,815,693.27,815s173.18-31.74,198.92-47.39a51.34,51.34,0,0,0,18-69.45c-13.58-23.35-21.58-25.88-51.09-44.44s-65.59-7.38-65.59-7.38l-360,88.91C419.51,734,415.8,731.48,415.8,731.48Z"/><polygon class="cls-5" points="830.64 705.41 861.17 692.65 862.62 691.64 849.69 677.93 822.71 689.38 830.64 705.41"/><path class="cls-5" d="M885.24,675.08,888,672c-4.07-3-8.79-5.93-14.63-9.54l-2.49,2.07Z"/><polygon class="cls-5" points="865.57 689.64 882.52 678.03 882.85 677.7 867.99 666.75 853.14 676.46 865.57 689.64"/><polygon class="cls-5" points="806.47 717.94 810.51 716.89 827.43 706.89 819.36 690.59 808.31 694.52 806.47 717.94"/><path class="cls-5" d="M793.75,721.09l9.18-2.43,1.8-23L795.88,699s-1.48-1.64-2.76,7.48A35.9,35.9,0,0,0,793.75,721.09Z"/><ellipse class="cls-24" cx="550.64" cy="895.39" rx="26.23" ry="28.14" transform="translate(-162.89 123.51) rotate(-11.16)"/><path class="cls-20" d="M352.48,794.32s20-5,24.36-2.37a10.5,10.5,0,0,1,4.07,8.83l-16.4,5"/><path class="cls-25" d="M568.69,851c7.67.95,44.76-3.84,63.42-8.43S693.4,815,693.4,815s173.18-31.75,198.93-47.39A51.36,51.36,0,0,0,916.92,728c-11.71,9.25-38.3,25.28-92.67,38.4C742.69,786.12,661,800.55,661,800.55l-47.78,13.11s5.94,12.3-6.56,17.48a490.76,490.76,0,0,1-50.76,17.28A92.3,92.3,0,0,0,568.69,851Z"/><path class="cls-25" d="M477.45,849.21,530.55,828l7.11-5L448.3,840.65C463.48,845.44,474.83,848.42,477.45,849.21Z"/><line class="cls-26" x1="422.49" y1="749.72" x2="405.47" y2="752.6"/><line class="cls-26" x1="393.67" y1="754.57" x2="364.32" y2="759.52"/></g><path class="cls-27" d="M993.4,317.56a.63.63,0,0,1,.64.61.65.65,0,0,1-1.29,0,.63.63,0,0,1,.65-.61Z"/><path class="cls-27" d="M993.4,307.74c.35,0,.64.54.64,1.23s-.29,1.22-.64,1.22-.65-.54-.65-1.22S993,307.74,993.4,307.74Z"/><path class="cls-27" d="M993.4,297.9c.35,0,.64.56.64,1.25s-.29,1.22-.64,1.22-.65-.56-.65-1.22S993,297.9,993.4,297.9Z"/><path class="cls-27" d="M993.4,288.08c.35,0,.64.54.64,1.22s-.29,1.22-.64,1.22-.65-.53-.65-1.22S993,288.08,993.4,288.08Z"/><path class="cls-27" d="M993.4,278.16c.35,0,.64.54.64,1.23s-.29,1.22-.64,1.22-.65-.54-.65-1.22S993,278.16,993.4,278.16Z"/><path class="cls-27" d="M993.4,268.39c.35,0,.64.54.64,1.22s-.29,1.25-.64,1.25-.65-.56-.65-1.25S993,268.39,993.4,268.39Z"/><path class="cls-27" d="M993.4,258.62c.35,0,.64.56.64,1.22s-.29,1.25-.64,1.25-.65-.56-.65-1.25S993,258.62,993.4,258.62Z"/><ellipse class="cls-27" cx="993.4" cy="249.98" rx="0.64" ry="1.22"/><path class="cls-27" d="M993.4,238.91c.35,0,.64.54.64,1.22s-.29,1.25-.64,1.25-.65-.56-.65-1.25S993,238.91,993.4,238.91Z"/><ellipse class="cls-27" cx="993.4" cy="230.31" rx="0.64" ry="1.22"/><path class="cls-27" d="M993.4,219.25c.35,0,.64.53.64,1.22s-.29,1.22-.64,1.22-.65-.54-.65-1.22S993,219.25,993.4,219.25Z"/><ellipse class="cls-27" cx="993.4" cy="210.62" rx="0.64" ry="1.22"/><path class="cls-27" d="M993.4,199.56c.35,0,.64.56.64,1.22s-.29,1.25-.64,1.25-.65-.57-.65-1.25S993,199.56,993.4,199.56Z"/><path class="cls-27" d="M993.4,189.72c.35,0,.64.56.64,1.24s-.29,1.22-.64,1.22-.65-.56-.65-1.22S993,189.72,993.4,189.72Z"/><path class="cls-27" d="M993.4,179.87c.35,0,.64.56.64,1.22s-.29,1.25-.64,1.25-.65-.56-.65-1.25S993,179.87,993.4,179.87Z"/><ellipse class="cls-27" cx="993.4" cy="171.25" rx="0.64" ry="1.22"/><path class="cls-27" d="M993.4,160.18c.35,0,.64.54.64,1.23s-.29,1.22-.64,1.22-.65-.54-.65-1.22S993,160.18,993.4,160.18Z"/><path class="cls-27" d="M993.4,150.34c.35,0,.64.54.64,1.22s-.29,1.22-.64,1.22-.65-.53-.65-1.22S993,150.34,993.4,150.34Z"/><path class="cls-27" d="M993.4,140.5c.35,0,.64.53.64,1.22s-.29,1.22-.64,1.22-.65-.54-.65-1.22S993,140.5,993.4,140.5Z"/><ellipse class="cls-27" cx="993.4" cy="131.87" rx="0.64" ry="1.22"/><path class="cls-27" d="M993.4,120.78c.35,0,.64.57.64,1.25s-.29,1.22-.64,1.22-.65-.54-.65-1.22S993,120.78,993.4,120.78Z"/><ellipse class="cls-27" cx="993.4" cy="112.16" rx="0.64" ry="1.25"/><ellipse class="cls-27" cx="993.4" cy="102.32" rx="0.64" ry="1.25"/><ellipse class="cls-27" cx="993.4" cy="92.47" rx="0.64" ry="1.25"/><ellipse class="cls-27" cx="993.4" cy="82.61" rx="0.64" ry="1.25"/><ellipse class="cls-27" cx="993.4" cy="73.32" rx="0.64" ry="0.61"/><path class="cls-27" d="M962.9,339.23h63.51s-1.08-16.8-20.65-24.28a14.89,14.89,0,0,1-6.69-4.18,16.47,16.47,0,0,1-4.88-9.33s-1.1,9-11.92,13.71C972.42,319.42,963.36,327,962.9,339.23Z"/><circle class="cls-27" cx="993.4" cy="301.64" r="5.11"/><path class="cls-27" d="M1027.11,342.85h-65a3.71,3.71,0,0,1-3.68-3.69h0a3.69,3.69,0,0,1,3.68-3.69h65a3.66,3.66,0,0,1,3.69,3.64v.05h0A3.69,3.69,0,0,1,1027.11,342.85Z"/><path class="cls-27" d="M964.12,339.47v61.32h61.31V339.47Zm17.71,55.26H968.17V355.65a6.84,6.84,0,1,1,13.66-.82c0,.27,0,.54,0,.82Zm19.93,0H988.1V355.65a6.84,6.84,0,1,1,13.66-.82,5.61,5.61,0,0,1,0,.82Zm19.93,0H1008V355.65a6.84,6.84,0,1,1,13.66-.82c0,.27,0,.54,0,.82Z"/><path class="cls-27" d="M1026.36,342.87c0,.34-14,.64-31.22.64s-31.24-.3-31.24-.64,14-.64,31.24-.64S1026.36,342.53,1026.36,342.87Z"/><path class="cls-27" d="M1026.23,335.47c0,.34-14.14.63-31.6.63s-31.64-.29-31.64-.63,14.17-.64,31.64-.64S1026.23,335.1,1026.23,335.47Z"/><path class="cls-27" d="M1026.48,402.74H963s1,16.81,20.64,24.28a15.15,15.15,0,0,1,6.69,4.18,16.49,16.49,0,0,1,4.89,9.33s1.1-9,11.89-13.71C1017,422.48,1026,415,1026.48,402.74Z"/><circle class="cls-27" cx="995.99" cy="440.26" r="5.11"/><path class="cls-27" d="M962.29,399.05h65a3.69,3.69,0,0,1,3.69,3.69h0a3.68,3.68,0,0,1-3.64,3.69h-65a3.69,3.69,0,0,1-3.69-3.69h0A3.71,3.71,0,0,1,962.29,399.05Z"/><path class="cls-27" d="M963,399c0-.35,14-.64,31.24-.64s31.24.29,31.24.64-14,.63-31.24.63S963,399.37,963,399Z"/><path class="cls-27" d="M963.14,406.43c0-.34,14.17-.64,31.63-.64s31.61.3,31.61.64-14.14.63-31.61.63S963.14,406.79,963.14,406.43Z"/><path class="cls-27" d="M973.2,331.56a1.59,1.59,0,1,1-1.61-1.56h0A1.58,1.58,0,0,1,973.2,331.56Z"/><path class="cls-27" d="M982.14,331.56a1.59,1.59,0,1,1-1.61-1.56h0A1.58,1.58,0,0,1,982.14,331.56Z"/><path class="cls-27" d="M991.08,331.56a1.59,1.59,0,1,1-1.61-1.56h0A1.58,1.58,0,0,1,991.08,331.56Z"/><path class="cls-27" d="M1000.05,331.56a1.59,1.59,0,1,1-1.59-1.56A1.58,1.58,0,0,1,1000.05,331.56Z"/><path class="cls-27" d="M1009,331.56a1.59,1.59,0,1,1-1.61-1.56h0A1.58,1.58,0,0,1,1009,331.56Z"/><path class="cls-27" d="M1017.93,331.56a1.59,1.59,0,1,1-1.61-1.56h0A1.58,1.58,0,0,1,1017.93,331.56Z"/><path class="cls-27" d="M974.08,411.22a1.59,1.59,0,1,1-1.58-1.59h0A1.59,1.59,0,0,1,974.08,411.22Z"/><circle class="cls-27" cx="981.44" cy="411.22" r="1.59"/><path class="cls-27" d="M992,411.22a1.59,1.59,0,1,1-1.58-1.59h0A1.58,1.58,0,0,1,992,411.22Z"/><path class="cls-27" d="M1000.93,411.22a1.59,1.59,0,1,1-1.59-1.59h0A1.59,1.59,0,0,1,1000.93,411.22Z"/><path class="cls-27" d="M1009.87,411.22a1.59,1.59,0,1,1-1.59-1.59h0A1.59,1.59,0,0,1,1009.87,411.22Z"/><path class="cls-27" d="M1018.81,411.22a1.59,1.59,0,1,1-1.59-1.59h0A1.59,1.59,0,0,1,1018.81,411.22Z"/><path class="cls-27" d="M789.42,158.7h63.51s-1.07-16.83-20.66-24.28a15.58,15.58,0,0,1-6.7-4.18,16.29,16.29,0,0,1-4.88-9.33s-1.13,9-11.92,13.7C798.92,138.91,789.89,146.39,789.42,158.7Z"/><circle class="cls-27" cx="819.91" cy="121.11" r="5.11"/><path class="cls-27" d="M853.64,162.31h-65a3.68,3.68,0,0,1-3.64-3.68h0a3.71,3.71,0,0,1,3.69-3.69h64.95a3.71,3.71,0,0,1,3.69,3.69h0a3.69,3.69,0,0,1-3.69,3.68Z"/><path class="cls-27" d="M790.62,159v61.31h61.31V159Zm17.66,55.25H794.62V175.14a6.84,6.84,0,0,1,13.66,0Zm19.93,0H814.56V175.14a6.84,6.84,0,0,1,13.65,0Zm19.91,0H834.46V175.14a6.84,6.84,0,0,1,13.66,0Z"/><path class="cls-27" d="M852.88,162.36c0,.35-14,.64-31.24.64s-31.24-.29-31.24-.64,14-.63,31.24-.63S852.88,162,852.88,162.36Z"/><path class="cls-27" d="M852.76,154.94c0,.36-14.17.63-31.63.63s-31.61-.27-31.61-.63,14.14-.64,31.61-.64S852.76,154.6,852.76,154.94Z"/><path class="cls-27" d="M853,222.16H789.49s1.08,16.83,20.64,24.43a15.09,15.09,0,0,1,6.72,4.17,16.67,16.67,0,0,1,4.89,9.33s1.12-9,11.94-13.92C843.48,241.94,852.54,234.49,853,222.16Z"/><path class="cls-27" d="M817.41,259.75a5.11,5.11,0,1,1,5.11,5.11h0A5.11,5.11,0,0,1,817.41,259.75Z"/><path class="cls-27" d="M788.79,218.54h65a3.71,3.71,0,0,1,3.68,3.69h0a3.7,3.7,0,0,1-3.68,3.69h-65a3.72,3.72,0,0,1-3.79-3.64v-.05h0a3.72,3.72,0,0,1,3.74-3.69Z"/><path class="cls-27" d="M789.54,218.52c0-.37,14-.64,31.22-.64s31.24.27,31.24.64-14,.64-31.24.64S789.54,218.86,789.54,218.52Z"/><path class="cls-27" d="M789.67,225.92c0-.34,14.14-.63,31.6-.63s31.64.29,31.64.63-14.17.71-31.64.71S789.67,226.26,789.67,225.92Z"/><path class="cls-27" d="M799.66,151.05a1.59,1.59,0,1,1-1.59-1.58h0A1.59,1.59,0,0,1,799.66,151.05Z"/><path class="cls-27" d="M808.67,151.05a1.59,1.59,0,1,1-1.59-1.58h0A1.59,1.59,0,0,1,808.67,151.05Z"/><path class="cls-27" d="M817.61,151.05a1.59,1.59,0,1,1-1.59-1.58h0A1.59,1.59,0,0,1,817.61,151.05Z"/><path class="cls-27" d="M826.53,151.05a1.59,1.59,0,1,1-1.59-1.58h0A1.59,1.59,0,0,1,826.53,151.05Z"/><path class="cls-27" d="M835.49,151.05a1.59,1.59,0,1,1-1.59-1.58h0A1.59,1.59,0,0,1,835.49,151.05Z"/><path class="cls-27" d="M844.43,151.05a1.59,1.59,0,1,1-1.59-1.58h0A1.59,1.59,0,0,1,844.43,151.05Z"/><path class="cls-27" d="M800.61,230.68A1.59,1.59,0,1,1,799,229.1h0A1.59,1.59,0,0,1,800.61,230.68Z"/><path class="cls-27" d="M809.55,230.68A1.59,1.59,0,1,1,808,229.1h0A1.59,1.59,0,0,1,809.55,230.68Z"/><path class="cls-27" d="M818.49,230.68a1.59,1.59,0,1,1-1.59-1.58h0A1.59,1.59,0,0,1,818.49,230.68Z"/><path class="cls-27" d="M827.43,230.68a1.59,1.59,0,1,1-1.59-1.58h0A1.59,1.59,0,0,1,827.43,230.68Z"/><path class="cls-27" d="M836.3,230.68a1.59,1.59,0,1,1-1.59-1.58h0A1.59,1.59,0,0,1,836.3,230.68Z"/><path class="cls-27" d="M845.31,230.68a1.56,1.56,0,1,1,0-.12Z"/><path class="cls-27" d="M821.22,119a.61.61,0,1,1-.61.61A.61.61,0,0,1,821.22,119Z"/><path class="cls-27" d="M821.22,110.38c.37,0,.64.49.64,1.08s-.27,1.07-.64,1.07-.63-.49-.63-1.07S820.88,110.38,821.22,110.38Z"/><path class="cls-27" d="M821.22,101.81c.37,0,.64.49.64,1.07s-.27,1.08-.64,1.08-.63-.49-.63-1.08S820.88,101.81,821.22,101.81Z"/><path class="cls-27" d="M821.22,94.16a.62.62,0,1,1-.61.61A.62.62,0,0,1,821.22,94.16Z"/></svg>